<svg viewBox="0 0 200 200" fill="none" xmlns="http://www.w3.org/2000/svg">
    <g clip-path="url(#clip0)">
        <path d="M167.051 57.7304H16.0471C6.8212 57.7304 -0.657715 50.2515 -0.657715 41.0256C-0.657715 31.7997 6.8212 24.3208 16.0471 24.3208H171.996V52.7862C171.996 55.5167 169.782 57.7304 167.051 57.7304Z"
              fill="#81ADE5"/>
        <path d="M195.055 100.482H22.8891C20.1581 100.482 17.9443 98.268 17.9443 95.537V5.72965C17.9443 2.99867 20.1581 0.784912 22.8891 0.784912H195.055C197.786 0.784912 200 2.99867 200 5.72965V95.537C200 98.268 197.786 100.482 195.055 100.482Z"
              fill="#5AEEFF"/>
        <path d="M179.057 18.7347L180.289 13.7386C180.673 12.18 179.494 10.6743 177.888 10.6743H40.0554C38.4503 10.6743 37.2705 12.18 37.6547 13.7386L38.8865 18.7347C39.3315 20.5401 37.6992 22.1723 35.8939 21.7273L30.8978 20.4951C29.3392 20.1109 27.8335 21.2902 27.8335 22.8957V78.3708C27.8335 79.9758 29.3392 81.1556 30.8978 80.7714L35.8939 79.5397C37.6992 79.0947 39.3315 80.7264 38.8865 82.5323L37.6547 87.5284C37.2705 89.087 38.4499 90.5927 40.0554 90.5927H177.889C179.494 90.5927 180.674 89.087 180.29 87.5284L179.058 82.5323C178.613 80.7269 180.245 79.0947 182.051 79.5397L187.047 80.7714C188.605 81.1556 190.111 79.9763 190.111 78.3708V22.8957C190.111 21.2907 188.605 20.1109 187.047 20.4951L182.051 21.7273C180.244 22.1723 178.612 20.5406 179.057 18.7347Z"
              fill="white"/>
        <path d="M108.972 78.9707C134.898 78.9707 155.914 66.2844 155.914 50.6349C155.914 34.9855 134.898 22.2991 108.972 22.2991C83.0462 22.2991 62.0293 34.9855 62.0293 50.6349C62.0293 66.2844 83.0462 78.9707 108.972 78.9707Z"
              fill="#BEFBFF"/>
        <path d="M43.8574 54.0416C45.3838 54.0416 46.6215 55.2793 46.6215 56.8057C46.6215 58.3322 45.3838 59.5698 43.8574 59.5698C42.3309 59.5698 41.0933 58.3322 41.0933 56.8057C41.0933 55.2793 42.3309 54.0416 43.8574 54.0416Z"
              fill="#00AAFF"/>
        <path d="M43.8574 45.6803C45.3838 45.6803 46.6215 46.918 46.6215 48.4444C46.6215 49.9708 45.3838 51.2085 43.8574 51.2085C42.3309 51.2085 41.0933 49.9708 41.0933 48.4444C41.0933 46.9175 42.3309 45.6803 43.8574 45.6803Z"
              fill="#00AAFF"/>
        <path d="M41.0933 40.0831C41.0933 38.5566 42.3309 37.3189 43.8574 37.3189C45.3838 37.3189 46.6215 38.5566 46.6215 40.0831C46.6215 41.6095 45.3838 42.8472 43.8574 42.8472C42.3309 42.8472 41.0933 41.61 41.0933 40.0831Z"
              fill="#00AAFF"/>
        <path d="M176.076 42.8471C174.549 42.8471 173.312 41.6094 173.312 40.083C173.312 38.5565 174.549 37.3188 176.076 37.3188C177.602 37.3188 178.84 38.5565 178.84 40.083C178.84 41.6094 177.602 42.8471 176.076 42.8471Z"
              fill="#00AAFF"/>
        <path d="M176.076 51.2087C174.549 51.2087 173.312 49.971 173.312 48.4446C173.312 46.9181 174.549 45.6804 176.076 45.6804C177.602 45.6804 178.84 46.9181 178.84 48.4446C178.84 49.9715 177.602 51.2087 176.076 51.2087Z"
              fill="#00AAFF"/>
        <path d="M178.84 56.8061C178.84 58.3325 177.602 59.5702 176.076 59.5702C174.549 59.5702 173.312 58.3325 173.312 56.8061C173.312 55.2797 174.549 54.042 176.076 54.042C177.602 54.042 178.84 55.2792 178.84 56.8061Z"
              fill="#00AAFF"/>
        <path d="M195.055 100.482H22.8891C20.1581 100.482 17.9443 98.268 17.9443 95.537V5.72965C17.9443 2.99867 20.1581 0.784912 22.8891 0.784912H195.055C197.786 0.784912 200 2.99867 200 5.72965V95.537C200 98.268 197.786 100.482 195.055 100.482Z"
              fill="url(#paint0_linear)"/>
        <path d="M75.2973 59.5556C74.9544 59.5556 74.6544 59.4311 74.3973 59.1822C74.1401 58.9333 74.0115 58.6347 74.0115 58.2862V43.104L72.1343 43.8756C71.8429 43.9917 71.5686 44.0498 71.3115 44.0498C70.9343 44.0498 70.6172 43.9336 70.36 43.7013C70.12 43.469 70 43.1704 70 42.8053C70 42.5399 70.0686 42.2993 70.2057 42.0836C70.3429 41.8679 70.5572 41.7102 70.8486 41.6107L74.8601 40.2169C74.9458 40.1837 75.0316 40.1588 75.1173 40.1422C75.203 40.1256 75.2801 40.1173 75.3487 40.1173C75.743 40.1173 76.0516 40.2418 76.2744 40.4907C76.5145 40.723 76.6345 41.0299 76.6345 41.4116V58.2862C76.6345 58.6347 76.5059 58.9333 76.2487 59.1822C75.9916 59.4311 75.6744 59.5556 75.2973 59.5556Z"
              fill="#0DBB8D"/>
        <path d="M87.9125 59.5556C85.9581 59.5556 84.441 58.701 83.3609 56.992C82.298 55.2664 81.7666 52.877 81.7666 49.824C81.7666 46.7544 82.298 44.365 83.3609 42.656C84.441 40.947 85.9581 40.0924 87.9125 40.0924C89.2154 40.0924 90.3211 40.4907 91.2297 41.2871C92.1554 42.067 92.8583 43.187 93.3383 44.6471C93.8183 46.0907 94.0583 47.8163 94.0583 49.824C94.0583 51.8317 93.8183 53.5656 93.3383 55.0258C92.8583 56.4693 92.1554 57.5893 91.2297 58.3858C90.3211 59.1656 89.2154 59.5556 87.9125 59.5556ZM87.9125 56.9671C88.7011 56.9671 89.3525 56.6601 89.8668 56.0462C90.3811 55.4157 90.7668 54.5612 91.024 53.4827C91.2811 52.4041 91.4097 51.1846 91.4097 49.824C91.4097 48.4634 91.2811 47.2439 91.024 46.1653C90.7668 45.0868 90.3811 44.2323 89.8668 43.6018C89.3525 42.9713 88.7011 42.656 87.9125 42.656C87.1239 42.656 86.4724 42.9713 85.9581 43.6018C85.4438 44.2157 85.0581 45.0619 84.801 46.1404C84.5438 47.219 84.4152 48.4468 84.4152 49.824C84.4152 51.2012 84.5438 52.429 84.801 53.5076C85.0581 54.5861 85.4438 55.4323 85.9581 56.0462C86.4896 56.6601 87.141 56.9671 87.9125 56.9671Z"
              fill="#0DBB8D"/>
        <path d="M104.065 59.5556C102.11 59.5556 100.593 58.701 99.5131 56.992C98.4502 55.2664 97.9188 52.877 97.9188 49.824C97.9188 46.7544 98.4502 44.365 99.5131 42.656C100.593 40.947 102.11 40.0924 104.065 40.0924C105.368 40.0924 106.473 40.4907 107.382 41.2871C108.308 42.067 109.011 43.187 109.491 44.6471C109.971 46.0907 110.211 47.8163 110.211 49.824C110.211 51.8317 109.971 53.5656 109.491 55.0258C109.011 56.4693 108.308 57.5893 107.382 58.3858C106.473 59.1656 105.368 59.5556 104.065 59.5556ZM104.065 56.9671C104.853 56.9671 105.505 56.6601 106.019 56.0462C106.533 55.4157 106.919 54.5612 107.176 53.4827C107.433 52.4041 107.562 51.1846 107.562 49.824C107.562 48.4634 107.433 47.2439 107.176 46.1653C106.919 45.0868 106.533 44.2323 106.019 43.6018C105.505 42.9713 104.853 42.656 104.065 42.656C103.276 42.656 102.625 42.9713 102.11 43.6018C101.596 44.2157 101.21 45.0619 100.953 46.1404C100.696 47.219 100.567 48.4468 100.567 49.824C100.567 51.2012 100.696 52.429 100.953 53.5076C101.21 54.5861 101.596 55.4323 102.11 56.0462C102.642 56.6601 103.293 56.9671 104.065 56.9671Z"
              fill="#0DBB8D"/>
        <path d="M120.217 59.5556C118.263 59.5556 116.745 58.701 115.665 56.992C114.602 55.2664 114.071 52.877 114.071 49.824C114.071 46.7544 114.602 44.365 115.665 42.656C116.745 40.947 118.263 40.0924 120.217 40.0924C121.52 40.0924 122.626 40.4907 123.534 41.2871C124.46 42.067 125.163 43.187 125.643 44.6471C126.123 46.0907 126.363 47.8163 126.363 49.824C126.363 51.8317 126.123 53.5656 125.643 55.0258C125.163 56.4693 124.46 57.5893 123.534 58.3858C122.626 59.1656 121.52 59.5556 120.217 59.5556ZM120.217 56.9671C121.005 56.9671 121.657 56.6601 122.171 56.0462C122.686 55.4157 123.071 54.5612 123.328 53.4827C123.586 52.4041 123.714 51.1846 123.714 49.824C123.714 48.4634 123.586 47.2439 123.328 46.1653C123.071 45.0868 122.686 44.2323 122.171 43.6018C121.657 42.9713 121.005 42.656 120.217 42.656C119.428 42.656 118.777 42.9713 118.263 43.6018C117.748 44.2157 117.363 45.0619 117.105 46.1404C116.848 47.219 116.72 48.4468 116.72 49.824C116.72 51.2012 116.848 52.429 117.105 53.5076C117.363 54.5861 117.748 55.4323 118.263 56.0462C118.794 56.6601 119.445 56.9671 120.217 56.9671Z"
              fill="#0DBB8D"/>
        <path d="M148.328 43.5264C147.945 42.5667 147.387 41.9974 146.795 41.4602C146.204 40.9229 145.154 40.4041 144.283 40.225C143.654 40.0689 142.731 40 141.549 40C141.549 40 134.486 40.0489 133.644 40.0489C132.802 40.0489 132.352 40.5753 132.352 41.3649C132.352 42.1545 132.352 50.6527 132.352 50.6527H130.847C130.847 50.6527 129.714 50.6527 129.714 51.8465C129.714 53.0403 130.847 53.0403 130.847 53.0403H132.352V54.0092H130.847C130.847 54.0092 129.714 53.9984 129.714 55.203C129.714 56.4076 130.847 56.3968 130.847 56.3968H132.352V62.9951C132.352 62.9951 132.572 64 133.669 64C134.766 64 134.987 62.9951 134.987 62.9951V56.3968H144.43C144.43 56.3968 145.433 56.3672 145.433 55.3144C145.433 54.0092 144.43 54.0092 144.43 54.0092H134.987V53.0403H141.757C144.297 53.0403 146.119 52.3516 147.254 51.0108C148.338 49.7297 149 48.6094 149 46.6441C149 45.5054 148.674 44.4585 148.323 43.5218L148.328 43.5264ZM144.865 49.5599C144.203 50.2945 143.328 50.6527 141.795 50.6527H134.992V42.4474H141.743C142.821 42.4474 143.569 42.5162 143.952 42.6494C144.586 43.0397 145.083 43.3427 145.452 44.0085C145.835 44.7019 146.024 45.5238 146.024 46.4605C146.024 47.7967 145.49 48.8481 144.86 49.5599H144.865Z"
              fill="#0DBB8D"/>
        <path d="M171.996 62.6767V161.567C171.996 164.298 169.782 166.511 167.051 166.511H16.0437C6.81876 166.511 -0.659668 159.033 -0.659668 149.808V41.0237C-0.659668 50.2506 6.82173 57.732 16.0486 57.732H167.051C169.782 57.732 171.996 59.9457 171.996 62.6767Z"
              fill="url(#paint1_linear)"/>
        <path d="M156.554 77.5592H150.621C149.255 77.5592 148.148 76.4521 148.148 75.0869C148.148 73.7216 149.255 72.6145 150.621 72.6145H156.554C157.92 72.6145 159.027 73.7216 159.027 75.0869C159.027 76.4526 157.92 77.5592 156.554 77.5592Z"
              fill="#94FFF9"/>
        <path d="M136.841 77.5592H130.907C129.541 77.5592 128.435 76.4521 128.435 75.0869C128.435 73.7216 129.541 72.6145 130.907 72.6145H136.841C138.206 72.6145 139.313 73.7216 139.313 75.0869C139.313 76.4526 138.206 77.5592 136.841 77.5592Z"
              fill="#94FFF9"/>
        <path d="M117.127 77.5592H111.194C109.828 77.5592 108.721 76.4521 108.721 75.0869C108.721 73.7216 109.828 72.6145 111.194 72.6145H117.127C118.493 72.6145 119.6 73.7216 119.6 75.0869C119.6 76.4526 118.493 77.5592 117.127 77.5592Z"
              fill="#94FFF9"/>
        <path d="M97.4137 77.5592H91.4801C90.1143 77.5592 89.0077 76.4521 89.0077 75.0869C89.0077 73.7216 90.1143 72.6145 91.4801 72.6145H97.4137C98.7795 72.6145 99.8861 73.7216 99.8861 75.0869C99.8861 76.4526 98.779 77.5592 97.4137 77.5592Z"
              fill="#94FFF9"/>
        <path d="M77.6997 77.5592H71.766C70.4002 77.5592 69.2936 76.4521 69.2936 75.0869C69.2936 73.7216 70.4002 72.6145 71.766 72.6145H77.6997C79.0654 72.6145 80.172 73.7216 80.172 75.0869C80.172 76.4526 79.0654 77.5592 77.6997 77.5592Z"
              fill="#94FFF9"/>
        <path d="M57.9864 77.5592H52.0527C50.687 77.5592 49.5804 76.4521 49.5804 75.0869C49.5804 73.7216 50.687 72.6145 52.0527 72.6145H57.9864C59.3522 72.6145 60.4588 73.7216 60.4588 75.0869C60.4588 76.4526 59.3522 77.5592 57.9864 77.5592Z"
              fill="#94FFF9"/>
        <path d="M38.2727 77.5595H32.3391C30.9733 77.5595 29.8667 76.4523 29.8667 75.0871C29.8667 73.7218 30.9733 72.6147 32.3391 72.6147H38.2727C39.6385 72.6147 40.7451 73.7218 40.7451 75.0871C40.7451 76.4528 39.6385 77.5595 38.2727 77.5595Z"
              fill="#94FFF9"/>
        <path d="M156.966 139.665C155.6 139.665 154.494 138.558 154.494 137.193V131.259C154.494 129.894 155.6 128.787 156.966 128.787C158.332 128.787 159.439 129.894 159.439 131.259V137.193C159.439 138.558 158.332 139.665 156.966 139.665Z"
              fill="#94FFF9"/>
        <path d="M156.966 119.951C155.6 119.951 154.494 118.844 154.494 117.478V111.545C154.494 110.179 155.6 109.072 156.966 109.072C158.332 109.072 159.439 110.179 159.439 111.545V117.478C159.439 118.844 158.332 119.951 156.966 119.951Z"
              fill="#94FFF9"/>
        <path d="M156.966 100.239C155.6 100.239 154.494 99.1316 154.494 97.7664V91.8327C154.494 90.4675 155.6 89.3603 156.966 89.3603C158.332 89.3603 159.439 90.4675 159.439 91.8327V97.7664C159.439 99.1316 158.332 100.239 156.966 100.239Z"
              fill="#94FFF9"/>
        <path d="M156.554 153.049H150.621C149.255 153.049 148.148 151.942 148.148 150.577C148.148 149.212 149.255 148.105 150.621 148.105H156.554C157.92 148.105 159.027 149.212 159.027 150.577C159.027 151.942 157.92 153.049 156.554 153.049Z"
              fill="#94FFF9"/>
        <path d="M136.841 153.049H130.907C129.541 153.049 128.435 151.942 128.435 150.577C128.435 149.212 129.541 148.105 130.907 148.105H136.841C138.206 148.105 139.313 149.212 139.313 150.577C139.313 151.942 138.206 153.049 136.841 153.049Z"
              fill="#94FFF9"/>
        <path d="M117.127 153.049H111.194C109.828 153.049 108.721 151.942 108.721 150.577C108.721 149.212 109.828 148.105 111.194 148.105H117.127C118.493 148.105 119.6 149.212 119.6 150.577C119.6 151.942 118.493 153.049 117.127 153.049Z"
              fill="#94FFF9"/>
        <path d="M97.4137 153.049H91.4801C90.1143 153.049 89.0077 151.942 89.0077 150.577C89.0077 149.212 90.1143 148.105 91.4801 148.105H97.4137C98.7795 148.105 99.8861 149.212 99.8861 150.577C99.8861 151.942 98.779 153.049 97.4137 153.049Z"
              fill="#94FFF9"/>
        <path d="M77.6997 153.049H71.766C70.4002 153.049 69.2936 151.942 69.2936 150.577C69.2936 149.212 70.4002 148.105 71.766 148.105H77.6997C79.0654 148.105 80.172 149.212 80.172 150.577C80.172 151.942 79.0654 153.049 77.6997 153.049Z"
              fill="#94FFF9"/>
        <path d="M57.9864 153.049H52.0527C50.687 153.049 49.5804 151.942 49.5804 150.577C49.5804 149.212 50.687 148.105 52.0527 148.105H57.9864C59.3522 148.105 60.4588 149.212 60.4588 150.577C60.4588 151.942 59.3522 153.049 57.9864 153.049Z"
              fill="#94FFF9"/>
        <path d="M38.2727 153.05H32.3391C30.9733 153.05 29.8667 151.943 29.8667 150.578C29.8667 149.213 30.9733 148.106 32.3391 148.106H38.2727C39.6385 148.106 40.7451 149.213 40.7451 150.578C40.7451 151.943 39.6385 153.05 38.2727 153.05Z"
              fill="#94FFF9"/>
        <path d="M162.513 199.354C182.485 199.354 198.675 183.164 198.675 163.192C198.675 143.22 182.485 127.029 162.513 127.029C142.541 127.029 126.351 143.22 126.351 163.192C126.351 183.164 142.541 199.354 162.513 199.354Z"
              fill="url(#paint2_linear)"/>
        <path d="M188.501 169.007C191.787 154.64 182.804 140.33 168.437 137.044C154.07 133.758 139.759 142.741 136.473 157.108C133.187 171.475 142.17 185.785 156.537 189.071C170.904 192.357 185.215 183.374 188.501 169.007Z"
              fill="white"/>
        <path d="M175.882 150.479C175.364 149.018 174.608 148.151 173.808 147.333C173.008 146.516 171.587 145.726 170.409 145.453C169.558 145.215 168.309 145.111 166.709 145.111C166.709 145.111 157.152 145.185 156.013 145.185C154.873 145.185 154.265 145.986 154.265 147.188C154.265 148.39 154.265 161.327 154.265 161.327H152.229C152.229 161.327 150.695 161.327 150.695 163.144C150.695 164.961 152.229 164.961 152.229 164.961H154.265V166.436H152.229C152.229 166.436 150.695 166.42 150.695 168.253C150.695 170.087 152.229 170.071 152.229 170.071H154.265V180.115C154.265 180.115 154.563 181.645 156.047 181.645C157.532 181.645 157.83 180.115 157.83 180.115V170.071H170.607C170.607 170.071 171.965 170.026 171.965 168.423C171.965 166.436 170.607 166.436 170.607 166.436H157.83V164.961H166.991C170.428 164.961 172.893 163.913 174.429 161.872C175.895 159.922 176.791 158.216 176.791 155.225C176.791 153.491 176.349 151.898 175.876 150.472L175.882 150.479ZM171.196 159.663C170.3 160.781 169.116 161.327 167.042 161.327H157.837V148.836H166.971C168.431 148.836 169.442 148.941 169.961 149.144C170.819 149.738 171.491 150.199 171.99 151.213C172.509 152.268 172.765 153.519 172.765 154.945C172.765 156.979 172.041 158.58 171.19 159.663H171.196Z"
              fill="#11B993"/>
    </g>
    <defs>
        <linearGradient id="paint0_linear" x1="108.972" y1="100.482" x2="108.972" y2="0.784912"
                        gradientUnits="userSpaceOnUse">
            <stop stop-color="#4D94FF" stop-opacity="0.4"/>
            <stop offset="1" stop-color="#4DDFFF" stop-opacity="0"/>
        </linearGradient>
        <linearGradient id="paint1_linear" x1="120.251" y1="40.7281" x2="-17.187" y2="203.392"
                        gradientUnits="userSpaceOnUse">
            <stop stop-color="#00AAFF"/>
            <stop offset="1" stop-color="#BEFFCC"/>
        </linearGradient>
        <linearGradient id="paint2_linear" x1="162.513" y1="127.029" x2="162.513" y2="199.354"
                        gradientUnits="userSpaceOnUse">
            <stop stop-color="#1AFAD7"/>
            <stop offset="1" stop-color="#00AAFF"/>
        </linearGradient>
        <clipPath id="clip0">
            <rect width="200" height="200" fill="white"/>
        </clipPath>
    </defs>
</svg>
