<svg viewBox="0 0 200 200" fill="none" xmlns="http://www.w3.org/2000/svg">
    <path fill-rule="evenodd" clip-rule="evenodd"
          d="M119.093 80.4241C122.488 79.9546 124.859 76.8214 124.39 73.4265L122.014 56.422L133.804 43.9857C134.759 43.0951 135.442 41.8986 135.683 40.5135C136.273 37.1319 134.011 33.912 130.629 33.3217L113.73 30.328L105.372 14.9531C104.812 13.9246 103.956 13.0426 102.846 12.45C99.8268 10.8399 96.0737 11.9821 94.4635 15.0012L86.3949 30.1476L69.3723 33.3108C68.1454 33.4952 66.9618 34.0483 65.9997 34.9741C63.531 37.3491 63.4548 41.2764 65.8298 43.7451L77.7488 56.1075L75.5297 73.0273C75.2625 74.3242 75.4055 75.716 76.0297 76.9984C77.5324 80.0847 81.2531 81.3682 84.339 79.8655L99.7612 72.3586L115.57 79.8897C116.628 80.3944 117.845 80.5968 119.093 80.4241Z"
          fill="white"/>
    <path fill-rule="evenodd" clip-rule="evenodd"
          d="M119.468 102.344H80.4062C76.1097 102.344 72.5938 105.86 72.5938 110.156V117.969V196.094H127.281V133.594V110.156C127.281 105.859 123.765 102.344 119.468 102.344Z"
          fill="url(#paint0_linear)"/>
    <path fill-rule="evenodd" clip-rule="evenodd"
          d="M72.5933 196.094V117.969H25.7187C21.4218 117.969 17.9062 121.485 17.9062 125.781V196.094H72.5933V196.094Z"
          fill="url(#paint1_linear)"/>
    <path fill-rule="evenodd" clip-rule="evenodd"
          d="M127.28 133.594V196.094H181.967V141.407C181.967 137.11 178.452 133.594 174.155 133.594H127.28Z"
          fill="url(#paint2_linear)"/>
    <path d="M174.155 129.688H131.187V110.156C131.187 103.694 125.93 98.4375 119.468 98.4375H80.4057C73.9441 98.4375 68.6871 103.694 68.6871 110.156V114.063H25.7187C19.257 114.063 14 119.32 14 125.781V196.094C14 198.251 15.7488 200 17.9062 200H181.967C184.125 200 185.874 198.251 185.874 196.094V141.406C185.874 134.945 180.617 129.688 174.155 129.688ZM123.374 192.187H76.4995V182.42C76.4995 180.263 74.7507 178.514 72.5933 178.514C70.4359 178.514 68.6871 180.263 68.6871 182.42V192.187H21.8124V125.781C21.8124 123.627 23.5648 121.875 25.7187 121.875H68.6871V182.594C68.6871 184.751 70.4359 186.5 72.5933 186.5C74.7507 186.5 76.4995 184.751 76.4995 182.594V110.156C76.4995 108.002 78.2518 106.25 80.4057 106.25H119.468C121.622 106.25 123.374 108.002 123.374 110.156V192.187ZM178.061 192.188H131.187V137.5H174.155C176.309 137.5 178.061 139.252 178.061 141.406V192.188Z"
          fill="url(#paint3_linear)"/>
    <path d="M164.399 157.031C164.399 150.57 159.158 145.312 152.716 145.312C149.299 145.312 146.065 146.807 143.84 149.411C142.44 151.052 142.634 153.518 144.274 154.919C145.915 156.32 148.381 156.125 149.782 154.485C150.519 153.621 151.589 153.125 152.716 153.125C154.85 153.125 156.586 154.878 156.586 157.032C156.586 158.093 156.171 159.086 155.418 159.828C154.584 160.648 154.163 161.798 154.268 162.963C154.374 164.127 154.995 165.184 155.961 165.841C157.57 166.935 158.53 168.753 158.53 170.704C158.53 173.934 155.922 176.563 152.716 176.563C151.43 176.563 150.212 176.148 149.193 175.365C147.484 174.05 145.031 174.37 143.715 176.079C142.4 177.789 142.72 180.241 144.429 181.557C146.826 183.401 149.692 184.376 152.716 184.376C160.23 184.376 166.343 178.243 166.343 170.704C166.343 167.512 165.236 164.471 163.276 162.061C164.011 160.511 164.399 158.802 164.399 157.031Z"
          fill="white"/>
    <path d="M53.0618 160.938H43.6489C44.5095 160.147 45.5876 159.3 46.8458 158.329C51.3134 154.882 56.8727 150.592 56.9677 142.512C57.0372 136.577 53.2415 131.452 47.7372 130.048C42.4751 128.707 37.3442 131.102 34.6661 136.15C33.6552 138.056 34.381 140.421 36.2868 141.432C38.1931 142.443 40.5571 141.717 41.5681 139.811C42.8985 137.302 44.795 137.361 45.8067 137.618C47.497 138.05 49.188 139.702 49.156 142.42C49.1091 146.429 46.4489 148.768 42.0739 152.144C38.07 155.233 33.5317 158.735 33.5317 164.844C33.5317 167.002 35.2806 168.75 37.438 168.75H53.0618C55.2192 168.75 56.9681 167.002 56.9681 164.844C56.9681 162.687 55.2192 160.938 53.0618 160.938Z"
          fill="white"/>
    <path d="M104.267 145.312H103.843V117.969C103.843 116.573 103.098 115.284 101.89 114.586C100.681 113.888 99.1924 113.888 97.9834 114.586L93.6525 117.087C91.7842 118.165 91.1439 120.554 92.2229 122.422C93.0213 123.805 94.5385 124.514 96.0303 124.353V145.312H95.6057C93.4482 145.312 91.6994 147.061 91.6994 149.219C91.6994 151.376 93.4482 153.125 95.6057 153.125H104.267C106.425 153.125 108.174 151.376 108.174 149.219C108.174 147.061 106.425 145.312 104.267 145.312Z"
          fill="white"/>
    <path d="M73.6305 57.4641L71.6723 72.3944C71.2625 74.5495 71.5535 76.7292 72.5172 78.7081C74.268 82.3033 77.88 84.3979 81.6335 84.3979C83.1183 84.3979 84.6261 84.0697 86.0479 83.3772L99.7787 76.6936L113.887 83.4147C115.664 84.2631 117.649 84.5666 119.627 84.2932C122.303 83.9233 124.674 82.5334 126.305 80.3795C127.935 78.2256 128.628 75.5663 128.258 72.8854L126.142 57.7438L136.566 46.7493C138.132 45.2493 139.157 43.3279 139.53 41.1845C139.995 38.5213 139.395 35.8365 137.841 33.6244C136.287 31.4123 133.964 29.9381 131.31 29.4749L116.263 26.8093L108.803 13.0871C108.803 13.0863 108.803 13.0859 108.802 13.0851C107.856 11.3469 106.432 9.93555 104.684 9.00275C102.303 7.73323 99.5701 7.46643 96.9885 8.25197C94.4072 9.03751 92.2862 10.7816 91.0155 13.164L83.8312 26.6503L68.716 29.4588C66.6661 29.7827 64.7919 30.7147 63.2907 32.1584C61.3446 34.0303 60.2442 36.5482 60.1919 39.2482C60.1395 41.9482 61.1419 44.5068 63.0169 46.456L73.6305 57.4641ZM68.7071 37.7892C69.1434 37.3693 69.6254 37.2225 69.9524 37.1732C69.9969 37.1666 70.041 37.1592 70.0852 37.151L87.1081 33.9877C88.2768 33.7705 89.2831 33.033 89.8421 31.9838L97.91 16.839C98.1974 16.2996 98.6783 15.9043 99.2635 15.7261C99.4838 15.6589 99.7092 15.6257 99.933 15.6257C100.304 15.6257 100.671 15.7168 101.007 15.8961C101.404 16.1078 101.727 16.4273 101.941 16.8199L110.298 32.1928C110.866 33.2373 111.878 33.9662 113.049 34.1736L129.958 37.1689C130.566 37.2748 131.095 37.6111 131.45 38.1158C131.805 38.6205 131.941 39.233 131.835 39.8412C131.725 40.4713 131.396 40.8892 131.139 41.1287C131.081 41.183 131.025 41.2392 130.969 41.297L119.179 53.7333C118.361 54.5957 117.98 55.784 118.145 56.9614L120.52 73.9604C120.604 74.569 120.447 75.1737 120.076 75.6636C119.705 76.153 119.166 76.4694 118.558 76.5534C118.099 76.6171 117.647 76.551 117.25 76.362L101.441 68.8308C100.367 68.3195 99.1201 68.3249 98.0514 68.8452L82.6288 76.3522C81.4839 76.9104 80.0988 76.4323 79.5413 75.287C79.257 74.703 79.2831 74.164 79.355 73.8143C79.3742 73.7214 79.3898 73.628 79.4023 73.5339L81.6214 56.6141C81.7761 55.4356 81.3855 54.2508 80.5605 53.395L68.6446 41.0361C68.2196 40.5939 67.9918 40.0127 68.0036 39.399C68.0153 38.7865 68.2649 38.2142 68.7071 37.7892Z"
          fill="url(#paint4_linear)"/>
    <path d="M38.8049 7.28975L54.2244 16.1921C54.8396 16.5476 55.5111 16.7163 56.174 16.7163C57.524 16.7163 58.8369 16.0155 59.5603 14.7624C60.6393 12.894 59.999 10.505 58.1307 9.42647L42.7111 0.524122C40.8432 -0.554784 38.4537 0.0854502 37.3752 1.95381C36.2963 3.82217 36.9365 6.21123 38.8049 7.28975Z"
          fill="url(#paint5_linear)"/>
    <path d="M27.5326 54.1202C27.7197 54.1202 27.9092 54.1065 28.1002 54.0792L45.7193 51.5155C47.8541 51.205 49.333 49.2222 49.0224 47.0874C48.7115 44.9526 46.7303 43.4741 44.5943 43.7843L26.9752 46.3479C24.8404 46.6585 23.3615 48.6413 23.6721 50.7761C23.9553 52.7202 25.6244 54.1202 27.5326 54.1202Z"
          fill="url(#paint6_linear)"/>
    <path d="M54.3721 77.8888L41.7822 90.4787C40.2568 92.0041 40.2568 94.4775 41.7822 96.0033C42.5451 96.7662 43.5447 97.1474 44.5443 97.1474C45.5439 97.1474 46.5439 96.7662 47.3064 96.0033L59.8963 83.4134C61.4217 81.888 61.4217 79.4146 59.8963 77.8888C58.3709 76.363 55.8975 76.3634 54.3721 77.8888Z"
          fill="url(#paint7_linear)"/>
    <path d="M143.701 16.7164C144.363 16.7164 145.035 16.5473 145.651 16.1922L161.07 7.28983C162.938 6.21132 163.579 3.82225 162.5 1.95389C161.421 0.0851447 159.032 -0.554699 157.164 0.524207L141.744 9.42655C139.876 10.5051 139.236 12.8941 140.315 14.7625C141.038 16.0156 142.351 16.7164 143.701 16.7164Z"
          fill="url(#paint8_linear)"/>
    <path d="M150.852 47.0871C150.542 49.2219 152.021 51.2047 154.155 51.5152L171.775 54.0789C171.965 54.1066 172.155 54.1199 172.342 54.1199C174.25 54.1199 175.92 52.7199 176.203 50.7754C176.513 48.6406 175.034 46.6578 172.9 46.3473L155.28 43.7836C153.147 43.4742 151.163 44.9523 150.852 47.0871Z"
          fill="url(#paint9_linear)"/>
    <path d="M139.978 77.8889C138.452 79.4143 138.452 81.8877 139.978 83.4135L152.567 96.0034C153.33 96.7663 154.33 97.1475 155.33 97.1475C156.329 97.1475 157.329 96.7663 158.092 96.0034C159.617 94.478 159.617 92.0045 158.092 90.4788L145.502 77.8889C143.977 76.3635 141.503 76.3635 139.978 77.8889Z"
          fill="url(#paint10_linear)"/>
    <defs>
        <linearGradient id="paint0_linear" x1="99.9373" y1="102.344" x2="99.9373" y2="196.094"
                        gradientUnits="userSpaceOnUse">
            <stop stop-color="#BEFBFF"/>
            <stop offset="1" stop-color="#00AAFF"/>
        </linearGradient>
        <linearGradient id="paint1_linear" x1="45.2498" y1="117.969" x2="45.2498" y2="196.094"
                        gradientUnits="userSpaceOnUse">
            <stop stop-color="#76F7FF"/>
            <stop offset="1" stop-color="#E9EBFF"/>
        </linearGradient>
        <linearGradient id="paint2_linear" x1="154.624" y1="133.594" x2="154.624" y2="196.094"
                        gradientUnits="userSpaceOnUse">
            <stop stop-color="#76F7FF"/>
            <stop offset="1" stop-color="#E9EBFF"/>
        </linearGradient>
        <linearGradient id="paint3_linear" x1="99.9368" y1="98.4375" x2="99.9368" y2="200"
                        gradientUnits="userSpaceOnUse">
            <stop stop-color="#38FADD"/>
            <stop offset="1" stop-color="#D3DFFF"/>
        </linearGradient>
        <linearGradient id="paint4_linear" x1="99.9368" y1="7.80957" x2="99.9368" y2="84.3979"
                        gradientUnits="userSpaceOnUse">
            <stop stop-color="#38FADD"/>
            <stop offset="1" stop-color="#D3DFFF"/>
        </linearGradient>
        <linearGradient id="paint5_linear" x1="48.4678" y1="0" x2="48.4678" y2="16.7163" gradientUnits="userSpaceOnUse">
            <stop stop-color="#38FADD"/>
            <stop offset="1" stop-color="#D3DFFF"/>
        </linearGradient>
        <linearGradient id="paint6_linear" x1="36.3472" y1="43.7432" x2="36.3472" y2="54.1202"
                        gradientUnits="userSpaceOnUse">
            <stop stop-color="#38FADD"/>
            <stop offset="1" stop-color="#D3DFFF"/>
        </linearGradient>
        <linearGradient id="paint7_linear" x1="50.8393" y1="76.7446" x2="50.8393" y2="97.1474"
                        gradientUnits="userSpaceOnUse">
            <stop stop-color="#38FADD"/>
            <stop offset="1" stop-color="#D3DFFF"/>
        </linearGradient>
        <linearGradient id="paint8_linear" x1="151.407" y1="0" x2="151.407" y2="16.7164" gradientUnits="userSpaceOnUse">
            <stop stop-color="#38FADD"/>
            <stop offset="1" stop-color="#D3DFFF"/>
        </linearGradient>
        <linearGradient id="paint9_linear" x1="163.527" y1="43.7427" x2="163.527" y2="54.1199"
                        gradientUnits="userSpaceOnUse">
            <stop stop-color="#38FADD"/>
            <stop offset="1" stop-color="#D3DFFF"/>
        </linearGradient>
        <linearGradient id="paint10_linear" x1="149.035" y1="76.7449" x2="149.035" y2="97.1475"
                        gradientUnits="userSpaceOnUse">
            <stop stop-color="#38FADD"/>
            <stop offset="1" stop-color="#D3DFFF"/>
        </linearGradient>
    </defs>
</svg>
