<svg viewBox="0 0 200 200" fill="none" xmlns="http://www.w3.org/2000/svg">
    <path d="M141.65 8.04829V75.2515H0V9.65795C0 3.60161 3.60161 0 8.04829 0H133.602C138.048 0 141.65 3.60161 141.65 8.04829Z"
          fill="url(#paint0_linear)"/>
    <path d="M141.65 75.2515V175.05C141.65 179.497 138.048 183.099 133.602 183.099H8.04829C3.60161 183.099 0 179.497 0 176.66V75.2515H141.65Z"
          fill="url(#paint1_linear)"/>
    <path d="M20.1206 53.521V21.7302C20.1206 18.6188 22.6429 16.0964 25.7544 16.0964H123.944C127.055 16.0964 129.577 18.6188 129.577 21.7302V53.521C129.577 56.6325 127.055 59.1548 123.944 59.1548H25.7544C22.6429 59.1548 20.1206 56.6325 20.1206 53.521Z"
          fill="white"/>
    <path d="M33.8027 59.1548H25.7544C22.6437 59.1548 20.1206 56.6316 20.1206 53.521V21.7302C20.1206 18.6196 22.6437 16.0964 25.7544 16.0964H33.8027C30.692 16.0964 28.1689 18.6196 28.1689 21.7302V53.521C28.1689 56.6316 30.692 59.1548 33.8027 59.1548Z"
          fill="url(#paint2_linear)"/>
    <path d="M129.175 96.9819V129.175H74.6479V91.3481H123.541C126.652 91.3481 129.175 93.8713 129.175 96.9819Z"
          fill="url(#paint3_linear)"/>
    <path d="M74.6478 91.3481V129.175H20.1206V97.7868C20.1206 93.8713 22.6437 91.3481 25.7544 91.3481H74.6478Z"
          fill="url(#paint4_linear)"/>
    <path d="M74.6478 129.175V167.002H25.7544C22.6437 167.002 20.1206 164.479 20.1206 162.173V129.175H74.6478Z"
          fill="url(#paint5_linear)"/>
    <path d="M129.175 129.175V161.368C129.175 164.479 126.652 167.002 123.541 167.002H74.6479V129.175H129.175Z"
          fill="url(#paint6_linear)"/>
    <path d="M123.541 88.3301H74.6478H25.7544C20.8221 88.3301 17.1025 92.3957 17.1025 97.7868V129.175V162.173C17.1025 166.353 21.1456 170.02 25.7544 170.02H74.6478H123.541C128.312 170.02 132.193 166.139 132.193 161.368V129.175V96.982C132.193 92.2114 128.312 88.3301 123.541 88.3301ZM126.157 96.982V126.157H77.6659V94.3663H123.541C124.983 94.3663 126.157 95.5397 126.157 96.982ZM23.1388 97.7868C23.1388 95.7409 24.1899 94.3663 25.7544 94.3663H71.6297V126.157H23.1388V97.7868ZM23.1388 162.173V132.193H71.6297V163.984H25.7544C24.2434 163.984 23.1388 162.713 23.1388 162.173ZM126.157 161.368C126.157 162.811 124.983 163.984 123.541 163.984H77.6659V132.193H126.157V161.368Z"
          fill="white"/>
    <path d="M60.3623 151.107H38.6319C36.9647 151.107 35.6138 149.756 35.6138 148.088C35.6138 146.421 36.9647 145.07 38.6319 145.07H60.3623C62.0295 145.07 63.3804 146.421 63.3804 148.088C63.3804 149.756 62.0295 151.107 60.3623 151.107Z"
          fill="#2DA0FF"/>
    <path d="M58.3503 107.243H52.5153V101.408C52.5153 99.7413 51.1644 98.3904 49.4972 98.3904C47.83 98.3904 46.4791 99.7413 46.4791 101.408V107.243H40.6441C38.9769 107.243 37.626 108.594 37.626 110.262C37.626 111.929 38.9769 113.28 40.6441 113.28H46.4791V119.115C46.4791 120.782 47.83 122.133 49.4972 122.133C51.1644 122.133 52.5153 120.782 52.5153 119.115V113.28H58.3503C60.0175 113.28 61.3684 111.929 61.3684 110.262C61.3684 108.594 60.0175 107.243 58.3503 107.243Z"
          fill="#2DA0FF"/>
    <path d="M104.268 110.261L108.394 106.136C109.573 104.956 109.573 103.046 108.394 101.867C107.215 100.689 105.305 100.689 104.126 101.867L100 105.993L95.8741 101.867C94.695 100.689 92.7844 100.689 91.6057 101.867C90.427 103.046 90.427 104.957 91.6057 106.136L95.7316 110.261L91.6057 114.387C90.427 115.566 90.427 117.477 91.6057 118.656C92.1952 119.245 92.9679 119.54 93.7401 119.54C94.5123 119.54 95.285 119.245 95.8745 118.656L100 114.53L104.126 118.656C104.716 119.245 105.489 119.54 106.261 119.54C107.033 119.54 107.806 119.245 108.395 118.656C109.574 117.477 109.574 115.566 108.395 114.387L104.268 110.261Z"
          fill="#2DA0FF"/>
    <path d="M141.65 75.2515V66.1972H14.0845C11.862 66.1972 10.0604 64.3956 10.0604 62.173V9.65795C10.0604 3.60161 13.662 0 18.1087 0H8.04829C3.60161 0 0 3.60161 0 9.65795V66.1972V75.2515V176.66C0 179.497 3.60161 183.099 8.04829 183.099H18.1087C13.662 183.099 10.0604 179.497 10.0604 176.66V79.2757C10.0604 77.0531 11.862 75.2515 14.0845 75.2515H141.65Z"
          fill="url(#paint7_linear)"/>
    <path d="M158.654 125C181.489 125 200 120.695 200 115.385C200 110.074 181.489 105.769 158.654 105.769C135.819 105.769 117.308 110.074 117.308 115.385C117.308 120.695 135.819 125 158.654 125Z"
          fill="url(#paint8_linear)"/>
    <path d="M200 171.73V190.745C200 196.781 181.445 200 158.551 200C135.658 200 117.103 196.781 117.103 190.745V171.73C117.103 177.767 135.658 180.986 158.551 180.986C181.445 180.986 200 177.767 200 171.73Z"
          fill="url(#paint9_linear)"/>
    <path d="M200 152.716V171.73C200 177.767 181.445 180.986 158.551 180.986C135.658 180.986 117.103 177.767 117.103 171.73V152.716C117.103 158.753 135.658 161.972 158.551 161.972C181.445 161.972 200 158.753 200 152.716Z"
          fill="url(#paint10_linear)"/>
    <path d="M200 133.702V152.716C200 158.752 181.445 161.972 158.551 161.972C135.658 161.972 117.103 158.752 117.103 152.716V133.702C117.103 139.738 135.658 142.958 158.551 142.958C181.445 142.958 200 139.738 200 133.702Z"
          fill="url(#paint11_linear)"/>
    <path d="M200 114.688V133.702C200 139.739 181.445 142.958 158.551 142.958C135.658 142.958 117.103 139.739 117.103 133.702V114.688C117.103 120.724 135.658 123.944 158.551 123.944C181.445 123.944 200 120.724 200 114.688Z"
          fill="url(#paint12_linear)"/>
    <path d="M93.2176 158.007C92.4454 158.007 91.6728 157.712 91.0832 157.123C89.9046 155.944 89.9046 154.033 91.0832 152.854L104.765 139.172C105.944 137.994 107.855 137.994 109.034 139.172C110.212 140.351 110.212 142.262 109.034 143.441L95.3516 157.123C94.7625 157.712 93.9899 158.007 93.2176 158.007Z"
          fill="#2DA0FF"/>
    <path d="M94.1651 143.461C95.8319 143.461 97.1832 142.11 97.1832 140.443C97.1832 138.776 95.8319 137.425 94.1651 137.425C92.4982 137.425 91.147 138.776 91.147 140.443C91.147 142.11 92.4982 143.461 94.1651 143.461Z"
          fill="#2DA0FF"/>
    <path d="M106.237 158.753C107.904 158.753 109.255 157.401 109.255 155.734C109.255 154.068 107.904 152.716 106.237 152.716C104.57 152.716 103.219 154.068 103.219 155.734C103.219 157.401 104.57 158.753 106.237 158.753Z"
          fill="#2DA0FF"/>
    <path d="M169.154 90.3845C169.154 91.4891 170.049 92.3845 171.154 92.3845C172.258 92.3845 173.154 91.4891 173.154 90.3845L169.154 90.3845ZM172.568 33.2011C171.787 32.42 170.521 32.42 169.74 33.2011L157.012 45.929C156.231 46.7101 156.231 47.9764 157.012 48.7574C157.793 49.5385 159.059 49.5385 159.84 48.7574L171.154 37.4437L182.468 48.7574C183.249 49.5385 184.515 49.5385 185.296 48.7574C186.077 47.9764 186.077 46.7101 185.296 45.929L172.568 33.2011ZM173.154 90.3845L173.154 34.6153L169.154 34.6153L169.154 90.3845L173.154 90.3845Z"
          fill="url(#paint13_linear)"/>
    <path d="M98.4128 14.4031C98.4128 13.8991 98.5928 13.4671 98.9528 13.1071C99.3368 12.7471 99.7688 12.5671 100.249 12.5671C100.777 12.5671 101.209 12.7471 101.545 13.1071C101.905 13.4431 102.085 13.8751 102.085 14.4031V19.2271H106.909C107.413 19.2271 107.845 19.4071 108.205 19.7671C108.589 20.1271 108.781 20.5711 108.781 21.0991C108.781 21.6031 108.589 22.0351 108.205 22.3951C107.845 22.7551 107.413 22.9351 106.909 22.9351H102.085V27.7591C102.085 28.2871 101.905 28.7311 101.545 29.0911C101.209 29.4271 100.777 29.5951 100.249 29.5951C99.7208 29.5951 99.2768 29.4271 98.9168 29.0911C98.5808 28.7311 98.4128 28.2871 98.4128 27.7591V22.9351H93.5888C93.0608 22.9351 92.6168 22.7551 92.2568 22.3951C91.9208 22.0351 91.7528 21.5911 91.7528 21.0631C91.7528 20.5351 91.9208 20.1031 92.2568 19.7671C92.6168 19.4071 93.0608 19.2271 93.5888 19.2271H98.4128V14.4031Z"
          fill="#00AAFF"/>
    <defs>
        <linearGradient id="paint0_linear" x1="70.8249" y1="0" x2="70.8249" y2="75.2515" gradientUnits="userSpaceOnUse">
            <stop stop-color="#26F8DA"/>
            <stop offset="1" stop-color="#E0D1FF"/>
        </linearGradient>
        <linearGradient id="paint1_linear" x1="70.8249" y1="75.2515" x2="70.8249" y2="183.099"
                        gradientUnits="userSpaceOnUse">
            <stop stop-color="#26F8DA"/>
            <stop offset="1" stop-color="#E0D1FF"/>
        </linearGradient>
        <linearGradient id="paint2_linear" x1="26.9616" y1="16.0964" x2="26.9616" y2="59.1548"
                        gradientUnits="userSpaceOnUse">
            <stop stop-color="#27BDF3"/>
            <stop offset="1" stop-color="#89DCFF"/>
        </linearGradient>
        <linearGradient id="paint3_linear" x1="101.912" y1="91.3481" x2="101.912" y2="129.175"
                        gradientUnits="userSpaceOnUse">
            <stop stop-color="#E9EBFF"/>
            <stop offset="1" stop-color="#BEFBFF"/>
        </linearGradient>
        <linearGradient id="paint4_linear" x1="47.3842" y1="91.3481" x2="47.3842" y2="129.175"
                        gradientUnits="userSpaceOnUse">
            <stop stop-color="#E9EBFF"/>
            <stop offset="1" stop-color="#BEFBFF"/>
        </linearGradient>
        <linearGradient id="paint5_linear" x1="47.3842" y1="129.175" x2="47.3842" y2="167.002"
                        gradientUnits="userSpaceOnUse">
            <stop stop-color="#E9EBFF"/>
            <stop offset="1" stop-color="#BEFBFF"/>
        </linearGradient>
        <linearGradient id="paint6_linear" x1="101.912" y1="129.175" x2="101.912" y2="167.002"
                        gradientUnits="userSpaceOnUse">
            <stop stop-color="#E9EBFF"/>
            <stop offset="1" stop-color="#BEFBFF"/>
        </linearGradient>
        <linearGradient id="paint7_linear" x1="100" y1="-22.1154" x2="-9.61539" y2="213.462"
                        gradientUnits="userSpaceOnUse">
            <stop stop-color="#2DA0FF"/>
            <stop offset="1" stop-color="#56E7FA"/>
        </linearGradient>
        <linearGradient id="paint8_linear" x1="150" y1="100" x2="165.385" y2="125" gradientUnits="userSpaceOnUse">
            <stop stop-color="#E9EBFF"/>
            <stop offset="1" stop-color="#4DF4FF"/>
        </linearGradient>
        <linearGradient id="paint9_linear" x1="124.038" y1="165.487" x2="171.051" y2="212.5"
                        gradientUnits="userSpaceOnUse">
            <stop stop-color="#E9EBFF"/>
            <stop offset="1" stop-color="#4DF4FF"/>
        </linearGradient>
        <linearGradient id="paint10_linear" x1="142.373" y1="136.538" x2="190.385" y2="184.55"
                        gradientUnits="userSpaceOnUse">
            <stop stop-color="#94FFF9"/>
            <stop offset="1" stop-color="#00AAFF"/>
        </linearGradient>
        <linearGradient id="paint11_linear" x1="140.234" y1="115.385" x2="188.311" y2="163.461"
                        gradientUnits="userSpaceOnUse">
            <stop stop-color="#E9EBFF"/>
            <stop offset="1" stop-color="#4DF4FF"/>
        </linearGradient>
        <linearGradient id="paint12_linear" x1="142.308" y1="101.923" x2="189.423" y2="149.039"
                        gradientUnits="userSpaceOnUse">
            <stop stop-color="#94FFF9"/>
            <stop offset="1" stop-color="#00AAFF"/>
        </linearGradient>
        <linearGradient id="paint13_linear" x1="170.654" y1="25.9615" x2="174.346" y2="103.718"
                        gradientUnits="userSpaceOnUse">
            <stop stop-color="#E6E6FA"/>
            <stop offset="1" stop-color="#4DF4FF"/>
        </linearGradient>
    </defs>
</svg>
