<svg viewBox="0 0 200 200" fill="none" xmlns="http://www.w3.org/2000/svg">
    <path d="M6.42627 88.3348C6.42627 121.942 33.4956 149.162 66.9168 149.162C100.338 149.162 127.407 121.942 127.407 88.3348C127.407 54.7276 100.338 27.5076 66.9168 27.5076C33.555 27.5076 6.42627 54.7276 6.42627 88.3348Z"
          fill="url(#paint0_linear)"/>
    <path d="M1 86.4229C1 120.03 28.0693 147.25 61.4905 147.25C94.9116 147.25 121.981 120.03 121.981 86.4229C121.981 52.8157 94.9116 25.5957 61.4905 25.5957C28.0693 25.5957 1 52.8157 1 86.4229Z"
          fill="url(#paint1_linear)"/>
    <path d="M8.00391 86.4828C8.00391 116.21 31.9864 140.266 61.4896 140.266C91.0522 140.266 114.975 116.15 114.975 86.4828C114.975 56.7556 91.0522 32.6993 61.4896 32.6993C31.9864 32.6396 8.00391 56.7556 8.00391 86.4828Z"
          fill="url(#paint2_linear)"/>
    <path d="M62.5592 38.1914H59.6504V50.13H62.5592V38.1914Z" fill="#00DBE9"/>
    <path d="M62.5572 124.627H59.6484V136.565H62.5572V124.627Z" fill="#00DBE9"/>
    <path d="M24.4472 85.1699H12.5747V87.7964H24.4472V85.1699Z" fill="#00DBE9"/>
    <path d="M110.462 85.1699H98.5898V87.7964H110.462V85.1699Z" fill="#00DBE9"/>
    <path d="M60.8979 17L68.6744 39.8027H53.4775L60.8979 17Z" fill="#00DBE9"/>
    <path d="M58.3695 88.2457H63.7715V34.9995H58.3695V88.2457Z" fill="#00DBE9"/>
    <path d="M8.06543 86.6021L30.7419 78.842V94.0638L8.06543 86.6021Z" fill="#00DBE9"/>
    <path d="M63.7941 89.1791V83.747H25.9801V89.1791H63.7941Z" fill="#00DBE9"/>
    <path d="M61.9514 86.0402L61.0889 86.9453L87.8334 112.718L88.6959 111.812L61.9514 86.0402Z" fill="#00DBE9"/>
    <path d="M53.8916 87.6765C53.8916 90.9596 56.5036 93.5861 59.7685 93.5861C63.0334 93.5861 65.6454 90.9596 65.6454 87.6765C65.6454 84.3933 63.0334 81.7668 59.7685 81.7668C56.5036 81.7668 53.8916 84.453 53.8916 87.6765Z"
          fill="#00DBE9"/>
    <mask id="path-12-outside-1" maskUnits="userSpaceOnUse" x="91" y="81" width="109" height="90" fill="black">
        <rect fill="white" x="91" y="81" width="109" height="90"/>
        <path d="M99.5158 126.238C98.7352 126.238 98.0788 125.974 97.5466 125.446C97.0498 124.918 96.8014 124.284 96.8014 123.545C96.8014 122.77 97.0498 122.137 97.5466 121.644L112.662 104.114C113.727 102.882 114.543 101.72 115.11 100.629C115.714 99.5379 116.015 98.4995 116.015 97.5138C116.015 95.2258 115.412 93.3954 114.206 92.0225C113.035 90.6497 111.42 89.9633 109.362 89.9633C108.014 89.9633 106.79 90.3153 105.69 91.0193C104.625 91.6881 103.774 92.6033 103.135 93.765C102.532 94.8914 102.23 96.141 102.23 97.5138C102.23 98.2179 101.964 98.8339 101.432 99.3619C100.935 99.8899 100.296 100.154 99.5158 100.154C98.7707 100.154 98.132 99.8899 97.5998 99.3619C97.0675 98.8339 96.8014 98.2179 96.8014 97.5138C96.8014 95.1202 97.3514 92.9906 98.4514 91.1249C99.5513 89.2241 101.042 87.7281 102.922 86.6368C104.838 85.5456 106.985 85 109.362 85C111.775 85 113.869 85.5104 115.643 86.5312C117.417 87.552 118.783 88.9953 119.741 90.8609C120.734 92.7265 121.231 94.9442 121.231 97.5138C121.231 98.6403 120.983 99.7843 120.486 100.946C120.025 102.108 119.422 103.216 118.676 104.272C117.967 105.328 117.239 106.279 116.494 107.124L104.306 120.852H119.209C119.989 120.852 120.646 121.134 121.178 121.697C121.71 122.225 121.976 122.841 121.976 123.545C121.976 124.284 121.71 124.918 121.178 125.446C120.646 125.974 119.989 126.238 119.209 126.238H99.5158Z"/>
        <path d="M154.011 126.238C153.302 126.238 152.698 125.974 152.202 125.446C151.705 124.918 151.456 124.284 151.456 123.545V116.892H133.733C132.917 116.892 132.278 116.645 131.817 116.153C131.356 115.66 131.089 115.097 131.018 114.463C130.983 113.794 131.16 113.196 131.551 112.668L151.935 86.1616C152.219 85.8096 152.539 85.528 152.893 85.3168C153.284 85.1056 153.71 85 154.171 85C154.916 85 155.519 85.264 155.98 85.792C156.442 86.32 156.672 86.9712 156.672 87.7457V112.034H159.866C160.611 112.034 161.25 112.21 161.782 112.562C162.314 112.914 162.58 113.548 162.58 114.463C162.58 115.132 162.314 115.713 161.782 116.205C161.25 116.663 160.611 116.892 159.866 116.892H156.672V123.545C156.672 124.284 156.424 124.918 155.927 125.446C155.43 125.974 154.792 126.238 154.011 126.238ZM151.456 112.034V94.557L138.044 112.034H151.456Z"/>
        <path d="M102.775 160.859C101.006 160.859 99.5445 160.457 98.3899 159.653C97.2354 158.848 96.3756 157.752 95.8106 156.363C95.2702 154.949 95 153.329 95 151.501V148.723C95 148.162 95.172 147.711 95.5159 147.37C95.8843 147.029 96.3388 146.858 96.8792 146.858C97.4442 146.858 97.8986 147.029 98.2426 147.37C98.5865 147.711 98.7584 148.162 98.7584 148.723V151.501C98.7584 153.255 99.1023 154.693 99.7901 155.814C100.503 156.935 101.743 157.496 103.512 157.496C104.912 157.496 106.054 157.264 106.939 156.801C107.847 156.338 108.302 155.741 108.302 155.01V148.723C108.302 148.162 108.474 147.711 108.818 147.37C109.186 147.029 109.641 146.858 110.181 146.858C110.746 146.858 111.201 147.029 111.544 147.37C111.888 147.711 112.06 148.162 112.06 148.723V164.989C112.06 165.526 111.888 165.976 111.544 166.342C111.201 166.683 110.746 166.854 110.181 166.854C109.641 166.854 109.186 166.683 108.818 166.342C108.474 165.976 108.302 165.526 108.302 164.989V159.104C107.639 159.665 106.828 160.103 105.87 160.42C104.936 160.713 103.905 160.859 102.775 160.859Z"/>
        <path d="M130.766 167C128.973 167 127.364 166.561 125.939 165.684C124.514 164.782 123.384 163.576 122.549 162.065C121.738 160.53 121.333 158.8 121.333 156.874C121.333 154.949 121.775 153.219 122.66 151.684C123.569 150.148 124.784 148.942 126.307 148.065C127.855 147.163 129.587 146.712 131.503 146.712C133.419 146.712 135.139 147.163 136.662 148.065C138.185 148.942 139.388 150.148 140.273 151.684C141.181 153.219 141.636 154.949 141.636 156.874V165.026C141.636 165.562 141.452 166.013 141.083 166.379C140.739 166.72 140.297 166.89 139.757 166.89C139.216 166.89 138.762 166.72 138.393 166.379C138.049 166.013 137.878 165.562 137.878 165.026V163.674C137.018 164.697 135.974 165.513 134.746 166.123C133.542 166.708 132.215 167 130.766 167ZM131.503 163.71C132.756 163.71 133.873 163.418 134.856 162.833C135.839 162.224 136.612 161.407 137.177 160.384C137.742 159.336 138.025 158.166 138.025 156.874C138.025 155.558 137.742 154.389 137.177 153.365C136.612 152.317 135.839 151.501 134.856 150.916C133.873 150.307 132.756 150.002 131.503 150.002C130.275 150.002 129.157 150.307 128.15 150.916C127.167 151.501 126.381 152.317 125.792 153.365C125.227 154.389 124.944 155.558 124.944 156.874C124.944 158.166 125.227 159.336 125.792 160.384C126.381 161.407 127.167 162.224 128.15 162.833C129.157 163.418 130.275 163.71 131.503 163.71Z"/>
        <path d="M160.052 167C158.087 167 156.331 166.561 154.783 165.684C153.26 164.782 152.057 163.576 151.172 162.065C150.312 160.53 149.883 158.8 149.883 156.874C149.883 154.9 150.312 153.146 151.172 151.611C152.032 150.075 153.211 148.881 154.71 148.028C156.208 147.151 157.927 146.712 159.868 146.712C162.767 146.712 165.174 147.809 167.09 150.002C167.434 150.392 167.557 150.794 167.459 151.208C167.36 151.623 167.09 151.988 166.648 152.305C166.304 152.549 165.923 152.634 165.506 152.561C165.088 152.463 164.707 152.244 164.363 151.903C163.16 150.636 161.661 150.002 159.868 150.002C157.977 150.002 156.441 150.636 155.262 151.903C154.083 153.146 153.494 154.803 153.494 156.874C153.494 158.19 153.764 159.36 154.304 160.384C154.869 161.407 155.643 162.224 156.626 162.833C157.608 163.418 158.75 163.71 160.052 163.71C161.723 163.71 163.074 163.284 164.106 162.431C164.499 162.114 164.904 161.943 165.322 161.919C165.739 161.87 166.108 161.98 166.427 162.248C166.845 162.589 167.078 162.979 167.127 163.418C167.176 163.832 167.029 164.21 166.685 164.551C164.916 166.184 162.705 167 160.052 167Z"/>
        <path d="M185.13 167C183.337 167 181.728 166.561 180.303 165.684C178.878 164.782 177.748 163.576 176.913 162.065C176.102 160.53 175.697 158.8 175.697 156.874C175.697 154.949 176.139 153.219 177.024 151.684C177.933 150.148 179.149 148.942 180.672 148.065C182.219 147.163 183.951 146.712 185.867 146.712C187.783 146.712 189.503 147.163 191.026 148.065C192.549 148.942 193.752 150.148 194.637 151.684C195.546 153.219 196 154.949 196 156.874V165.026C196 165.562 195.816 166.013 195.447 166.379C195.103 166.72 194.661 166.89 194.121 166.89C193.58 166.89 193.126 166.72 192.757 166.379C192.414 166.013 192.242 165.562 192.242 165.026V163.674C191.382 164.697 190.338 165.513 189.11 166.123C187.906 166.708 186.579 167 185.13 167ZM185.867 163.71C187.12 163.71 188.238 163.418 189.22 162.833C190.203 162.224 190.976 161.407 191.541 160.384C192.106 159.336 192.389 158.166 192.389 156.874C192.389 155.558 192.106 154.389 191.541 153.365C190.976 152.317 190.203 151.501 189.22 150.916C188.238 150.307 187.12 150.002 185.867 150.002C184.639 150.002 183.521 150.307 182.514 150.916C181.531 151.501 180.745 152.317 180.156 153.365C179.591 154.389 179.308 155.558 179.308 156.874C179.308 158.166 179.591 159.336 180.156 160.384C180.745 161.407 181.531 162.224 182.514 162.833C183.521 163.418 184.639 163.71 185.867 163.71Z"/>
    </mask>
    <path d="M99.5158 126.238C98.7352 126.238 98.0788 125.974 97.5466 125.446C97.0498 124.918 96.8014 124.284 96.8014 123.545C96.8014 122.77 97.0498 122.137 97.5466 121.644L112.662 104.114C113.727 102.882 114.543 101.72 115.11 100.629C115.714 99.5379 116.015 98.4995 116.015 97.5138C116.015 95.2258 115.412 93.3954 114.206 92.0225C113.035 90.6497 111.42 89.9633 109.362 89.9633C108.014 89.9633 106.79 90.3153 105.69 91.0193C104.625 91.6881 103.774 92.6033 103.135 93.765C102.532 94.8914 102.23 96.141 102.23 97.5138C102.23 98.2179 101.964 98.8339 101.432 99.3619C100.935 99.8899 100.296 100.154 99.5158 100.154C98.7707 100.154 98.132 99.8899 97.5998 99.3619C97.0675 98.8339 96.8014 98.2179 96.8014 97.5138C96.8014 95.1202 97.3514 92.9906 98.4514 91.1249C99.5513 89.2241 101.042 87.7281 102.922 86.6368C104.838 85.5456 106.985 85 109.362 85C111.775 85 113.869 85.5104 115.643 86.5312C117.417 87.552 118.783 88.9953 119.741 90.8609C120.734 92.7265 121.231 94.9442 121.231 97.5138C121.231 98.6403 120.983 99.7843 120.486 100.946C120.025 102.108 119.422 103.216 118.676 104.272C117.967 105.328 117.239 106.279 116.494 107.124L104.306 120.852H119.209C119.989 120.852 120.646 121.134 121.178 121.697C121.71 122.225 121.976 122.841 121.976 123.545C121.976 124.284 121.71 124.918 121.178 125.446C120.646 125.974 119.989 126.238 119.209 126.238H99.5158Z"
          fill="white"/>
    <path d="M154.011 126.238C153.302 126.238 152.698 125.974 152.202 125.446C151.705 124.918 151.456 124.284 151.456 123.545V116.892H133.733C132.917 116.892 132.278 116.645 131.817 116.153C131.356 115.66 131.089 115.097 131.018 114.463C130.983 113.794 131.16 113.196 131.551 112.668L151.935 86.1616C152.219 85.8096 152.539 85.528 152.893 85.3168C153.284 85.1056 153.71 85 154.171 85C154.916 85 155.519 85.264 155.98 85.792C156.442 86.32 156.672 86.9712 156.672 87.7457V112.034H159.866C160.611 112.034 161.25 112.21 161.782 112.562C162.314 112.914 162.58 113.548 162.58 114.463C162.58 115.132 162.314 115.713 161.782 116.205C161.25 116.663 160.611 116.892 159.866 116.892H156.672V123.545C156.672 124.284 156.424 124.918 155.927 125.446C155.43 125.974 154.792 126.238 154.011 126.238ZM151.456 112.034V94.557L138.044 112.034H151.456Z"
          fill="white"/>
    <path d="M102.775 160.859C101.006 160.859 99.5445 160.457 98.3899 159.653C97.2354 158.848 96.3756 157.752 95.8106 156.363C95.2702 154.949 95 153.329 95 151.501V148.723C95 148.162 95.172 147.711 95.5159 147.37C95.8843 147.029 96.3388 146.858 96.8792 146.858C97.4442 146.858 97.8986 147.029 98.2426 147.37C98.5865 147.711 98.7584 148.162 98.7584 148.723V151.501C98.7584 153.255 99.1023 154.693 99.7901 155.814C100.503 156.935 101.743 157.496 103.512 157.496C104.912 157.496 106.054 157.264 106.939 156.801C107.847 156.338 108.302 155.741 108.302 155.01V148.723C108.302 148.162 108.474 147.711 108.818 147.37C109.186 147.029 109.641 146.858 110.181 146.858C110.746 146.858 111.201 147.029 111.544 147.37C111.888 147.711 112.06 148.162 112.06 148.723V164.989C112.06 165.526 111.888 165.976 111.544 166.342C111.201 166.683 110.746 166.854 110.181 166.854C109.641 166.854 109.186 166.683 108.818 166.342C108.474 165.976 108.302 165.526 108.302 164.989V159.104C107.639 159.665 106.828 160.103 105.87 160.42C104.936 160.713 103.905 160.859 102.775 160.859Z"
          fill="white"/>
    <path d="M130.766 167C128.973 167 127.364 166.561 125.939 165.684C124.514 164.782 123.384 163.576 122.549 162.065C121.738 160.53 121.333 158.8 121.333 156.874C121.333 154.949 121.775 153.219 122.66 151.684C123.569 150.148 124.784 148.942 126.307 148.065C127.855 147.163 129.587 146.712 131.503 146.712C133.419 146.712 135.139 147.163 136.662 148.065C138.185 148.942 139.388 150.148 140.273 151.684C141.181 153.219 141.636 154.949 141.636 156.874V165.026C141.636 165.562 141.452 166.013 141.083 166.379C140.739 166.72 140.297 166.89 139.757 166.89C139.216 166.89 138.762 166.72 138.393 166.379C138.049 166.013 137.878 165.562 137.878 165.026V163.674C137.018 164.697 135.974 165.513 134.746 166.123C133.542 166.708 132.215 167 130.766 167ZM131.503 163.71C132.756 163.71 133.873 163.418 134.856 162.833C135.839 162.224 136.612 161.407 137.177 160.384C137.742 159.336 138.025 158.166 138.025 156.874C138.025 155.558 137.742 154.389 137.177 153.365C136.612 152.317 135.839 151.501 134.856 150.916C133.873 150.307 132.756 150.002 131.503 150.002C130.275 150.002 129.157 150.307 128.15 150.916C127.167 151.501 126.381 152.317 125.792 153.365C125.227 154.389 124.944 155.558 124.944 156.874C124.944 158.166 125.227 159.336 125.792 160.384C126.381 161.407 127.167 162.224 128.15 162.833C129.157 163.418 130.275 163.71 131.503 163.71Z"
          fill="white"/>
    <path d="M160.052 167C158.087 167 156.331 166.561 154.783 165.684C153.26 164.782 152.057 163.576 151.172 162.065C150.312 160.53 149.883 158.8 149.883 156.874C149.883 154.9 150.312 153.146 151.172 151.611C152.032 150.075 153.211 148.881 154.71 148.028C156.208 147.151 157.927 146.712 159.868 146.712C162.767 146.712 165.174 147.809 167.09 150.002C167.434 150.392 167.557 150.794 167.459 151.208C167.36 151.623 167.09 151.988 166.648 152.305C166.304 152.549 165.923 152.634 165.506 152.561C165.088 152.463 164.707 152.244 164.363 151.903C163.16 150.636 161.661 150.002 159.868 150.002C157.977 150.002 156.441 150.636 155.262 151.903C154.083 153.146 153.494 154.803 153.494 156.874C153.494 158.19 153.764 159.36 154.304 160.384C154.869 161.407 155.643 162.224 156.626 162.833C157.608 163.418 158.75 163.71 160.052 163.71C161.723 163.71 163.074 163.284 164.106 162.431C164.499 162.114 164.904 161.943 165.322 161.919C165.739 161.87 166.108 161.98 166.427 162.248C166.845 162.589 167.078 162.979 167.127 163.418C167.176 163.832 167.029 164.21 166.685 164.551C164.916 166.184 162.705 167 160.052 167Z"
          fill="white"/>
    <path d="M185.13 167C183.337 167 181.728 166.561 180.303 165.684C178.878 164.782 177.748 163.576 176.913 162.065C176.102 160.53 175.697 158.8 175.697 156.874C175.697 154.949 176.139 153.219 177.024 151.684C177.933 150.148 179.149 148.942 180.672 148.065C182.219 147.163 183.951 146.712 185.867 146.712C187.783 146.712 189.503 147.163 191.026 148.065C192.549 148.942 193.752 150.148 194.637 151.684C195.546 153.219 196 154.949 196 156.874V165.026C196 165.562 195.816 166.013 195.447 166.379C195.103 166.72 194.661 166.89 194.121 166.89C193.58 166.89 193.126 166.72 192.757 166.379C192.414 166.013 192.242 165.562 192.242 165.026V163.674C191.382 164.697 190.338 165.513 189.11 166.123C187.906 166.708 186.579 167 185.13 167ZM185.867 163.71C187.12 163.71 188.238 163.418 189.22 162.833C190.203 162.224 190.976 161.407 191.541 160.384C192.106 159.336 192.389 158.166 192.389 156.874C192.389 155.558 192.106 154.389 191.541 153.365C190.976 152.317 190.203 151.501 189.22 150.916C188.238 150.307 187.12 150.002 185.867 150.002C184.639 150.002 183.521 150.307 182.514 150.916C181.531 151.501 180.745 152.317 180.156 153.365C179.591 154.389 179.308 155.558 179.308 156.874C179.308 158.166 179.591 159.336 180.156 160.384C180.745 161.407 181.531 162.224 182.514 162.833C183.521 163.418 184.639 163.71 185.867 163.71Z"
          fill="white"/>
    <path d="M99.5158 126.238C98.7352 126.238 98.0788 125.974 97.5466 125.446C97.0498 124.918 96.8014 124.284 96.8014 123.545C96.8014 122.77 97.0498 122.137 97.5466 121.644L112.662 104.114C113.727 102.882 114.543 101.72 115.11 100.629C115.714 99.5379 116.015 98.4995 116.015 97.5138C116.015 95.2258 115.412 93.3954 114.206 92.0225C113.035 90.6497 111.42 89.9633 109.362 89.9633C108.014 89.9633 106.79 90.3153 105.69 91.0193C104.625 91.6881 103.774 92.6033 103.135 93.765C102.532 94.8914 102.23 96.141 102.23 97.5138C102.23 98.2179 101.964 98.8339 101.432 99.3619C100.935 99.8899 100.296 100.154 99.5158 100.154C98.7707 100.154 98.132 99.8899 97.5998 99.3619C97.0675 98.8339 96.8014 98.2179 96.8014 97.5138C96.8014 95.1202 97.3514 92.9906 98.4514 91.1249C99.5513 89.2241 101.042 87.7281 102.922 86.6368C104.838 85.5456 106.985 85 109.362 85C111.775 85 113.869 85.5104 115.643 86.5312C117.417 87.552 118.783 88.9953 119.741 90.8609C120.734 92.7265 121.231 94.9442 121.231 97.5138C121.231 98.6403 120.983 99.7843 120.486 100.946C120.025 102.108 119.422 103.216 118.676 104.272C117.967 105.328 117.239 106.279 116.494 107.124L104.306 120.852H119.209C119.989 120.852 120.646 121.134 121.178 121.697C121.71 122.225 121.976 122.841 121.976 123.545C121.976 124.284 121.71 124.918 121.178 125.446C120.646 125.974 119.989 126.238 119.209 126.238H99.5158Z"
          stroke="url(#paint3_linear)" stroke-width="8" stroke-linejoin="round" mask="url(#path-12-outside-1)"/>
    <path d="M154.011 126.238C153.302 126.238 152.698 125.974 152.202 125.446C151.705 124.918 151.456 124.284 151.456 123.545V116.892H133.733C132.917 116.892 132.278 116.645 131.817 116.153C131.356 115.66 131.089 115.097 131.018 114.463C130.983 113.794 131.16 113.196 131.551 112.668L151.935 86.1616C152.219 85.8096 152.539 85.528 152.893 85.3168C153.284 85.1056 153.71 85 154.171 85C154.916 85 155.519 85.264 155.98 85.792C156.442 86.32 156.672 86.9712 156.672 87.7457V112.034H159.866C160.611 112.034 161.25 112.21 161.782 112.562C162.314 112.914 162.58 113.548 162.58 114.463C162.58 115.132 162.314 115.713 161.782 116.205C161.25 116.663 160.611 116.892 159.866 116.892H156.672V123.545C156.672 124.284 156.424 124.918 155.927 125.446C155.43 125.974 154.792 126.238 154.011 126.238ZM151.456 112.034V94.557L138.044 112.034H151.456Z"
          stroke="url(#paint4_linear)" stroke-width="8" stroke-linejoin="round" mask="url(#path-12-outside-1)"/>
    <path d="M102.775 160.859C101.006 160.859 99.5445 160.457 98.3899 159.653C97.2354 158.848 96.3756 157.752 95.8106 156.363C95.2702 154.949 95 153.329 95 151.501V148.723C95 148.162 95.172 147.711 95.5159 147.37C95.8843 147.029 96.3388 146.858 96.8792 146.858C97.4442 146.858 97.8986 147.029 98.2426 147.37C98.5865 147.711 98.7584 148.162 98.7584 148.723V151.501C98.7584 153.255 99.1023 154.693 99.7901 155.814C100.503 156.935 101.743 157.496 103.512 157.496C104.912 157.496 106.054 157.264 106.939 156.801C107.847 156.338 108.302 155.741 108.302 155.01V148.723C108.302 148.162 108.474 147.711 108.818 147.37C109.186 147.029 109.641 146.858 110.181 146.858C110.746 146.858 111.201 147.029 111.544 147.37C111.888 147.711 112.06 148.162 112.06 148.723V164.989C112.06 165.526 111.888 165.976 111.544 166.342C111.201 166.683 110.746 166.854 110.181 166.854C109.641 166.854 109.186 166.683 108.818 166.342C108.474 165.976 108.302 165.526 108.302 164.989V159.104C107.639 159.665 106.828 160.103 105.87 160.42C104.936 160.713 103.905 160.859 102.775 160.859Z"
          stroke="url(#paint5_linear)" stroke-width="8" stroke-linejoin="round" mask="url(#path-12-outside-1)"/>
    <path d="M130.766 167C128.973 167 127.364 166.561 125.939 165.684C124.514 164.782 123.384 163.576 122.549 162.065C121.738 160.53 121.333 158.8 121.333 156.874C121.333 154.949 121.775 153.219 122.66 151.684C123.569 150.148 124.784 148.942 126.307 148.065C127.855 147.163 129.587 146.712 131.503 146.712C133.419 146.712 135.139 147.163 136.662 148.065C138.185 148.942 139.388 150.148 140.273 151.684C141.181 153.219 141.636 154.949 141.636 156.874V165.026C141.636 165.562 141.452 166.013 141.083 166.379C140.739 166.72 140.297 166.89 139.757 166.89C139.216 166.89 138.762 166.72 138.393 166.379C138.049 166.013 137.878 165.562 137.878 165.026V163.674C137.018 164.697 135.974 165.513 134.746 166.123C133.542 166.708 132.215 167 130.766 167ZM131.503 163.71C132.756 163.71 133.873 163.418 134.856 162.833C135.839 162.224 136.612 161.407 137.177 160.384C137.742 159.336 138.025 158.166 138.025 156.874C138.025 155.558 137.742 154.389 137.177 153.365C136.612 152.317 135.839 151.501 134.856 150.916C133.873 150.307 132.756 150.002 131.503 150.002C130.275 150.002 129.157 150.307 128.15 150.916C127.167 151.501 126.381 152.317 125.792 153.365C125.227 154.389 124.944 155.558 124.944 156.874C124.944 158.166 125.227 159.336 125.792 160.384C126.381 161.407 127.167 162.224 128.15 162.833C129.157 163.418 130.275 163.71 131.503 163.71Z"
          stroke="url(#paint6_linear)" stroke-width="8" stroke-linejoin="round" mask="url(#path-12-outside-1)"/>
    <path d="M160.052 167C158.087 167 156.331 166.561 154.783 165.684C153.26 164.782 152.057 163.576 151.172 162.065C150.312 160.53 149.883 158.8 149.883 156.874C149.883 154.9 150.312 153.146 151.172 151.611C152.032 150.075 153.211 148.881 154.71 148.028C156.208 147.151 157.927 146.712 159.868 146.712C162.767 146.712 165.174 147.809 167.09 150.002C167.434 150.392 167.557 150.794 167.459 151.208C167.36 151.623 167.09 151.988 166.648 152.305C166.304 152.549 165.923 152.634 165.506 152.561C165.088 152.463 164.707 152.244 164.363 151.903C163.16 150.636 161.661 150.002 159.868 150.002C157.977 150.002 156.441 150.636 155.262 151.903C154.083 153.146 153.494 154.803 153.494 156.874C153.494 158.19 153.764 159.36 154.304 160.384C154.869 161.407 155.643 162.224 156.626 162.833C157.608 163.418 158.75 163.71 160.052 163.71C161.723 163.71 163.074 163.284 164.106 162.431C164.499 162.114 164.904 161.943 165.322 161.919C165.739 161.87 166.108 161.98 166.427 162.248C166.845 162.589 167.078 162.979 167.127 163.418C167.176 163.832 167.029 164.21 166.685 164.551C164.916 166.184 162.705 167 160.052 167Z"
          stroke="url(#paint7_linear)" stroke-width="8" stroke-linejoin="round" mask="url(#path-12-outside-1)"/>
    <path d="M185.13 167C183.337 167 181.728 166.561 180.303 165.684C178.878 164.782 177.748 163.576 176.913 162.065C176.102 160.53 175.697 158.8 175.697 156.874C175.697 154.949 176.139 153.219 177.024 151.684C177.933 150.148 179.149 148.942 180.672 148.065C182.219 147.163 183.951 146.712 185.867 146.712C187.783 146.712 189.503 147.163 191.026 148.065C192.549 148.942 193.752 150.148 194.637 151.684C195.546 153.219 196 154.949 196 156.874V165.026C196 165.562 195.816 166.013 195.447 166.379C195.103 166.72 194.661 166.89 194.121 166.89C193.58 166.89 193.126 166.72 192.757 166.379C192.414 166.013 192.242 165.562 192.242 165.026V163.674C191.382 164.697 190.338 165.513 189.11 166.123C187.906 166.708 186.579 167 185.13 167ZM185.867 163.71C187.12 163.71 188.238 163.418 189.22 162.833C190.203 162.224 190.976 161.407 191.541 160.384C192.106 159.336 192.389 158.166 192.389 156.874C192.389 155.558 192.106 154.389 191.541 153.365C190.976 152.317 190.203 151.501 189.22 150.916C188.238 150.307 187.12 150.002 185.867 150.002C184.639 150.002 183.521 150.307 182.514 150.916C181.531 151.501 180.745 152.317 180.156 153.365C179.591 154.389 179.308 155.558 179.308 156.874C179.308 158.166 179.591 159.336 180.156 160.384C180.745 161.407 181.531 162.224 182.514 162.833C183.521 163.418 184.639 163.71 185.867 163.71Z"
          stroke="url(#paint8_linear)" stroke-width="8" stroke-linejoin="round" mask="url(#path-12-outside-1)"/>
    <defs>
        <linearGradient id="paint0_linear" x1="66.9168" y1="27.5076" x2="66.9168" y2="149.162"
                        gradientUnits="userSpaceOnUse">
            <stop stop-color="#4DF4FF"/>
            <stop offset="1" stop-color="#5AA9F2"/>
        </linearGradient>
        <linearGradient id="paint1_linear" x1="43.0678" y1="24.7905" x2="76.8666" y2="136.527"
                        gradientUnits="userSpaceOnUse">
            <stop stop-color="#89DCFF"/>
            <stop offset="1" stop-color="#03F6D5"/>
        </linearGradient>
        <linearGradient id="paint2_linear" x1="18.0377" y1="139.969" x2="92.1157" y2="45.1496"
                        gradientUnits="userSpaceOnUse">
            <stop offset="0.00603635" stop-color="#E9EBFF"/>
            <stop offset="1" stop-color="white"/>
        </linearGradient>
        <linearGradient id="paint3_linear" x1="148.613" y1="79.5291" x2="125.335" y2="208.455"
                        gradientUnits="userSpaceOnUse">
            <stop stop-color="#04FDD2"/>
            <stop offset="1" stop-color="#00AAFF"/>
        </linearGradient>
        <linearGradient id="paint4_linear" x1="148.613" y1="79.5291" x2="125.335" y2="208.455"
                        gradientUnits="userSpaceOnUse">
            <stop stop-color="#04FDD2"/>
            <stop offset="1" stop-color="#00AAFF"/>
        </linearGradient>
        <linearGradient id="paint5_linear" x1="148.613" y1="79.5291" x2="125.335" y2="208.455"
                        gradientUnits="userSpaceOnUse">
            <stop stop-color="#04FDD2"/>
            <stop offset="1" stop-color="#00AAFF"/>
        </linearGradient>
        <linearGradient id="paint6_linear" x1="148.613" y1="79.5291" x2="125.335" y2="208.455"
                        gradientUnits="userSpaceOnUse">
            <stop stop-color="#04FDD2"/>
            <stop offset="1" stop-color="#00AAFF"/>
        </linearGradient>
        <linearGradient id="paint7_linear" x1="148.613" y1="79.5291" x2="125.335" y2="208.455"
                        gradientUnits="userSpaceOnUse">
            <stop stop-color="#04FDD2"/>
            <stop offset="1" stop-color="#00AAFF"/>
        </linearGradient>
        <linearGradient id="paint8_linear" x1="148.613" y1="79.5291" x2="125.335" y2="208.455"
                        gradientUnits="userSpaceOnUse">
            <stop stop-color="#04FDD2"/>
            <stop offset="1" stop-color="#00AAFF"/>
        </linearGradient>
    </defs>
</svg>
