<svg viewBox="0 0 200 200" fill="none" xmlns="http://www.w3.org/2000/svg">
    <path opacity="0.1"
          d="M190.123 95.9736C185.028 95.9736 180.898 100.202 180.898 105.418C180.898 106.872 181.228 108.244 181.802 109.475L132.959 159.48C131.755 160.712 131.755 162.711 132.959 163.943C133.561 164.559 134.35 164.867 135.138 164.867C135.927 164.867 136.716 164.559 137.318 163.943L186.16 113.937C187.362 114.524 188.702 114.863 190.123 114.863C195.217 114.863 199.347 110.634 199.347 105.418C199.347 100.202 195.218 95.9736 190.123 95.9736Z"
          fill="#0000CC"/>
    <path d="M130.048 190.502H6.28838C2.85711 190.502 0.0756836 187.72 0.0756836 184.287V94.1779C0.0756836 90.7453 2.85711 87.9629 6.28838 87.9629H130.048C133.479 87.9629 136.261 90.7453 136.261 94.1779V184.286C136.261 187.719 133.479 190.502 130.048 190.502Z"
          fill="url(#paint0_linear)"/>
    <path d="M116.324 160.64C114.395 160.64 112.831 159.076 112.831 157.147C112.831 155.218 114.395 153.653 116.324 153.653C118.253 153.653 119.818 155.218 119.818 157.147C119.818 159.076 118.253 160.64 116.324 160.64Z"
          fill="#00AAFF"/>
    <path d="M116.325 171.208C114.395 171.208 112.831 169.643 112.831 167.714C112.831 165.785 114.395 164.221 116.325 164.221C118.254 164.221 119.818 165.785 119.818 167.714C119.818 169.643 118.254 171.208 116.325 171.208Z"
          fill="#00AAFF"/>
    <path d="M119.817 178.283C119.817 180.212 118.253 181.777 116.324 181.777C114.394 181.777 112.83 180.212 112.83 178.283C112.83 176.354 114.394 174.79 116.324 174.79C118.253 174.79 119.817 176.354 119.817 178.283Z"
          fill="#00AAFF"/>
    <path d="M148.156 91.2474C163.803 75.6004 163.803 50.2316 148.156 34.5846C132.509 18.9377 107.14 18.9377 91.4935 34.5847C75.8465 50.2316 75.8465 75.6004 91.4934 91.2474C107.14 106.894 132.509 106.894 148.156 91.2474Z"
          fill="url(#paint1_linear)"/>
    <path d="M130.834 89.0405C145.294 83.0468 152.158 66.4658 146.164 52.0058C140.17 37.5458 123.589 30.6826 109.129 36.6763C94.6694 42.67 87.8061 59.2509 93.7998 73.7109C99.7935 88.1709 116.374 95.0342 130.834 89.0405Z"
          fill="white"/>
    <path d="M132.484 50.1302C131.922 48.6307 131.105 47.7411 130.238 46.9017C129.372 46.0622 127.833 45.2515 126.558 44.9717C125.636 44.7277 124.284 44.6201 122.551 44.6201C122.551 44.6201 112.203 44.6965 110.97 44.6965C109.736 44.6965 109.077 45.519 109.077 46.7528C109.077 47.9865 109.077 61.2653 109.077 61.2653H106.873C106.873 61.2653 105.212 61.2653 105.212 63.1307C105.212 64.9961 106.873 64.9961 106.873 64.9961H109.077V66.5099H106.873C106.873 66.5099 105.212 66.4931 105.212 68.3754C105.212 70.2576 106.873 70.2408 106.873 70.2408H109.077V80.5507C109.077 80.5507 109.4 82.121 111.007 82.121C112.615 82.121 112.938 80.5507 112.938 80.5507V70.2408H126.772C126.772 70.2408 128.242 70.1945 128.242 68.5494C128.242 66.5099 126.772 66.5099 126.772 66.5099H112.938V64.9961H113.18H122.856C126.578 64.9961 129.247 63.9199 130.91 61.8249C132.498 59.8232 133.468 58.0726 133.468 55.0018C133.468 53.2225 132.99 51.5867 132.477 50.1231L132.484 50.1302ZM127.41 59.5577C126.44 60.7057 125.157 61.2653 122.912 61.2653H113.187H112.944V48.4442H122.835C124.416 48.4442 125.511 48.5518 126.072 48.7599C127.001 49.3697 127.729 49.8433 128.27 50.8836C128.831 51.9669 129.108 53.2512 129.108 54.7148C129.108 56.8027 128.325 58.4456 127.403 59.5577H127.41Z"
          fill="#00AAFF"/>
    <path d="M39.7694 145.217L16.5306 168.457C15.3101 169.677 15.3101 171.655 16.5306 172.875C17.1412 173.485 17.9405 173.791 18.7405 173.791C19.5404 173.791 20.3397 173.486 20.9503 172.875L43.981 149.845C42.5555 148.322 41.1475 146.783 39.7694 145.217Z"
          fill="url(#paint2_linear)"/>
    <path d="M51.5072 149.846L55.9256 145.428L68.2384 157.74L63.82 162.159L51.5072 149.846Z"
          fill="url(#paint3_linear)"/>
    <path d="M74.5279 157.695L104.202 128.021L108.62 132.439L78.9463 162.113L74.5279 157.695Z"
          fill="url(#paint4_linear)"/>
    <path d="M132.661 141.584L119.395 128.318C117.922 129.791 116.449 131.264 114.976 132.737L128.242 146.003C129.715 144.53 131.188 143.057 132.661 141.584Z"
          fill="url(#paint5_linear)"/>
    <path d="M187.696 99.8784C187.202 99.446 183.962 96.7968 182.846 95.8906L137.674 141.063C139.147 142.536 140.62 144.009 142.093 145.482L187.696 99.8784Z"
          fill="url(#paint6_linear)"/>
    <path d="M51.2478 150.289C56.0253 148.332 58.3114 142.872 56.3539 138.095C54.3964 133.317 48.9367 131.031 44.1592 132.989C39.3817 134.946 37.0956 140.406 39.0531 145.183C41.0106 149.961 46.4703 152.247 51.2478 150.289Z"
          fill="#01FED2"/>
    <path d="M71.4416 174.066C76.6065 174.066 80.7934 169.879 80.7934 164.715C80.7934 159.55 76.6065 155.363 71.4416 155.363C66.2768 155.363 62.0898 159.55 62.0898 164.715C62.0898 169.879 66.2768 174.066 71.4416 174.066Z"
          fill="#E0D1FF"/>
    <path d="M111.995 134.217C117.16 134.217 121.347 130.03 121.347 124.865C121.347 119.701 117.16 115.514 111.995 115.514C106.83 115.514 102.643 119.701 102.643 124.865C102.643 130.03 106.83 134.217 111.995 134.217Z"
          fill="#01FED2"/>
    <path d="M135.096 157.731C140.261 157.731 144.448 153.544 144.448 148.379C144.448 143.214 140.261 139.027 135.096 139.027C129.932 139.027 125.745 143.214 125.745 148.379C125.745 153.544 129.932 157.731 135.096 157.731Z"
          fill="#E0D1FF"/>
    <path d="M190.648 101.86C195.813 101.86 200 97.6731 200 92.5083C200 87.3434 195.813 83.1565 190.648 83.1565C185.483 83.1565 181.296 87.3434 181.296 92.5083C181.296 97.6731 185.483 101.86 190.648 101.86Z"
          fill="#01FED2"/>
    <path d="M83.2812 119.666H29.6741C27.948 119.666 26.5493 118.266 26.5493 116.541C26.5493 114.815 27.948 113.416 29.6741 113.416H83.2812C85.0073 113.416 86.4059 114.815 86.4059 116.541C86.4059 118.266 85.0073 119.666 83.2812 119.666Z"
          fill="#4DF4FF"/>
    <path d="M38.8087 107.023H30.9968C29.2707 107.023 27.8721 105.624 27.8721 103.899C27.8721 102.173 29.2707 100.774 30.9968 100.774H38.8087C40.5348 100.774 41.9335 102.173 41.9335 103.899C41.9335 105.625 40.5348 107.023 38.8087 107.023Z"
          fill="#4DF4FF"/>
    <path d="M70.5074 107.023H49.5715C47.8454 107.023 46.4468 105.624 46.4468 103.899C46.4468 102.173 47.8454 100.774 49.5715 100.774H70.5074C72.2335 100.774 73.6322 102.173 73.6322 103.899C73.6322 105.625 72.2329 107.023 70.5074 107.023Z"
          fill="#4DF4FF"/>
    <path d="M15.5135 107.141C13.5843 107.141 12.02 105.577 12.02 103.648C12.02 101.719 13.5843 100.154 15.5135 100.154C17.4427 100.154 19.007 101.719 19.007 103.648C19.007 105.578 17.4427 107.141 15.5135 107.141Z"
          fill="#4CF4FF"/>
    <defs>
        <linearGradient id="paint0_linear" x1="129.051" y1="198.514" x2="-18.3493" y2="84.7601"
                        gradientUnits="userSpaceOnUse">
            <stop stop-color="#4DF4FF"/>
            <stop offset="1" stop-color="#8AA2E1"/>
        </linearGradient>
        <linearGradient id="paint1_linear" x1="91.4935" y1="34.5847" x2="148.156" y2="91.2473"
                        gradientUnits="userSpaceOnUse">
            <stop stop-color="#01FED2"/>
            <stop offset="1" stop-color="#CFE1FF"/>
        </linearGradient>
        <linearGradient id="paint2_linear" x1="188.02" y1="82.3117" x2="7.08175" y2="174.382"
                        gradientUnits="userSpaceOnUse">
            <stop stop-color="#01FED2"/>
            <stop offset="1" stop-color="white"/>
        </linearGradient>
        <linearGradient id="paint3_linear" x1="188.02" y1="82.3117" x2="7.08175" y2="174.382"
                        gradientUnits="userSpaceOnUse">
            <stop stop-color="#01FED2"/>
            <stop offset="1" stop-color="white"/>
        </linearGradient>
        <linearGradient id="paint4_linear" x1="188.02" y1="82.3117" x2="7.08175" y2="174.382"
                        gradientUnits="userSpaceOnUse">
            <stop stop-color="#01FED2"/>
            <stop offset="1" stop-color="white"/>
        </linearGradient>
        <linearGradient id="paint5_linear" x1="188.02" y1="82.3117" x2="7.08175" y2="174.382"
                        gradientUnits="userSpaceOnUse">
            <stop stop-color="#01FED2"/>
            <stop offset="1" stop-color="white"/>
        </linearGradient>
        <linearGradient id="paint6_linear" x1="188.02" y1="82.3117" x2="7.08175" y2="174.382"
                        gradientUnits="userSpaceOnUse">
            <stop stop-color="#01FED2"/>
            <stop offset="1" stop-color="white"/>
        </linearGradient>
    </defs>
</svg>
