<svg viewBox="0 0 200 200" fill="none" xmlns="http://www.w3.org/2000/svg">
    <g clip-path="url(#clip0)">
        <path d="M185.598 108.629V91.8892C185.598 90.3565 184.582 89.01 183.108 88.5903L165.786 83.6572C164.09 76.7432 161.363 70.2345 157.769 64.3076L166.53 48.5691C167.276 47.2303 167.042 45.5594 165.959 44.4756L154.122 32.6392C153.038 31.5554 151.368 31.3222 150.029 32.0677L134.29 40.8286C128.363 37.2353 121.855 34.5079 114.941 32.8115L110.007 15.4902C109.587 14.0162 108.241 13 106.708 13H89.9692C88.4366 13 87.0901 14.0167 86.6703 15.4902L81.7368 32.8115C74.8228 34.5079 68.3141 37.2353 62.3872 40.8286L46.6487 32.0677C45.3099 31.3222 43.639 31.5558 42.5552 32.6392L30.7188 44.4756C29.635 45.5594 29.4018 47.2303 30.1473 48.5691L38.9082 64.3076C35.3149 70.2345 32.5875 76.7432 30.891 83.6572L13.5698 88.5903C12.0958 89.01 11.0796 90.3565 11.0796 91.8892V108.629C11.0796 110.161 12.0963 111.508 13.5698 111.927L30.891 116.861C32.5875 123.775 35.3149 130.283 38.9082 136.21L30.1473 151.949C29.4018 153.288 29.6354 154.958 30.7188 156.042L42.5552 167.879C43.639 168.962 45.3099 169.196 46.6487 168.45L62.3872 159.689C68.3141 163.283 74.8228 166.01 81.7368 167.706L86.6703 185.028C87.0901 186.502 88.4366 187.518 89.9692 187.518H106.708C108.241 187.518 109.587 186.501 110.007 185.028L114.941 167.706C121.855 166.01 128.363 163.283 134.29 159.689L150.029 168.45C151.368 169.196 153.038 168.962 154.122 167.879L165.959 156.042C167.042 154.958 167.276 153.288 166.53 151.949L157.769 136.21C161.363 130.283 164.09 123.775 165.786 116.861L183.108 111.927C184.582 111.508 185.598 110.161 185.598 108.629Z"
              fill="url(#paint0_linear)"/>
        <path d="M63.708 40.0503V67.9106C63.708 70.3852 61.6988 72.3944 59.2242 72.3944H34.7066C35.9327 69.5976 37.3423 66.8948 38.9085 64.3084L30.1467 48.5704C29.4039 47.2324 29.6366 45.5588 30.7195 44.4759L42.5555 32.6399C43.6384 31.557 45.312 31.3243 46.6499 32.0672L62.388 40.8289C62.822 40.5649 63.265 40.3053 63.708 40.0503Z"
              fill="#8399FE"/>
        <path d="M117.697 119.643C128.403 108.938 128.403 91.581 117.697 80.8758C106.992 70.1706 89.6356 70.1706 78.9304 80.8758C68.2252 91.581 68.2252 108.938 78.9304 119.643C89.6356 130.348 106.992 130.348 117.697 119.643Z"
              fill="white"/>
        <path d="M59.2227 65.8001H4.48558C2.00831 65.8001 0 63.7918 0 61.3145V17.7842C0 15.3069 2.00831 13.2986 4.48558 13.2986H59.2227C61.6999 13.2986 63.7083 15.3069 63.7083 17.7842V61.3145C63.7083 63.7918 61.7004 65.8001 59.2227 65.8001Z"
              fill="url(#paint1_linear)"/>
        <path d="M59.2225 13.2986H43.936V65.8001H59.2225C61.6998 65.8001 63.7081 63.7918 63.7081 61.3145V17.7842C63.7081 15.3069 61.6998 13.2986 59.2225 13.2986Z"
              fill="#DCFDEE"/>
        <path d="M63.7087 27.9514V17.7842C63.7087 15.3069 61.7004 13.2986 59.2231 13.2986H4.48558C2.00831 13.2986 0 15.3069 0 17.7842V27.9514H63.7087Z"
              fill="#00AAFF"/>
        <path d="M34.9231 55.3272H12.6764C11.4378 55.3272 10.4341 54.3231 10.4341 53.0849C10.4341 51.8467 11.4378 50.8425 12.6764 50.8425H34.9235C36.1622 50.8425 37.1659 51.8467 37.1659 53.0849C37.1654 54.3235 36.1617 55.3272 34.9231 55.3272Z"
              fill="#B7C5FF"/>
        <path d="M22.8124 46.0174H12.6764C11.4378 46.0174 10.4341 45.0132 10.4341 43.7751C10.4341 42.5369 11.4378 41.5327 12.6764 41.5327H22.8124C24.051 41.5327 25.0547 42.5369 25.0547 43.7751C25.0547 45.0132 24.051 46.0174 22.8124 46.0174Z"
              fill="#B7C5FF"/>
        <path d="M63.1324 71.6902C62.62 72.3411 62.7323 73.2842 63.3833 73.7966C64.0342 74.309 64.9773 74.1966 65.4897 73.5457L63.1324 71.6902ZM139.487 118.848C139.791 119.618 140.662 119.996 141.433 119.692L153.99 114.735C154.76 114.43 155.138 113.559 154.834 112.789C154.53 112.018 153.659 111.64 152.888 111.944L141.727 116.351L137.32 105.189C137.016 104.419 136.144 104.041 135.374 104.345C134.603 104.649 134.225 105.52 134.529 106.291L139.487 118.848ZM59.3216 83.0565C58.9952 82.2951 58.1133 81.9426 57.3519 82.269L44.9443 87.5888C44.1829 87.9153 43.8303 88.7972 44.1568 89.5586C44.4832 90.3199 45.3651 90.6725 46.1265 90.3461L57.1555 85.6173L61.8842 96.6464C62.2107 97.4078 63.0925 97.7603 63.8539 97.4339C64.6153 97.1074 64.9679 96.2256 64.6415 95.4642L59.3216 83.0565ZM135.347 130.105C135.878 129.469 135.793 128.523 135.158 127.992C134.522 127.461 133.576 127.545 133.045 128.181L135.347 130.105ZM65.4897 73.5457C78.5287 56.9806 102.234 52.1259 121.198 63.0746L122.698 60.4766C102.44 48.7809 77.0922 53.9551 63.1324 71.6902L65.4897 73.5457ZM121.198 63.0746C140.533 74.2378 148.104 97.8829 139.506 117.7L142.258 118.894C151.464 97.6764 143.351 72.4009 122.698 60.4766L121.198 63.0746ZM78.1216 137.685C59.1579 126.736 51.5095 103.779 59.3358 84.2045L56.5502 83.0908C48.1711 104.048 56.3641 128.587 76.6216 140.283L78.1216 137.685ZM133.045 128.181C119.856 143.964 96.7106 148.417 78.1216 137.685L76.6216 140.283C96.4795 151.748 121.228 147.002 135.347 130.105L133.045 128.181Z"
              fill="white"/>
        <path d="M195.514 177.124H127.353C124.876 177.124 122.867 175.116 122.867 172.639V129.108C122.867 126.631 124.876 124.623 127.353 124.623H195.514C197.992 124.623 200 126.631 200 129.108V172.639C200 175.116 197.992 177.124 195.514 177.124Z"
              fill="url(#paint2_linear)"/>
        <path d="M200 139.276V129.108C200 126.631 197.992 124.623 195.514 124.623H127.353C124.876 124.623 122.867 126.631 122.867 129.108V139.276H200Z"
              fill="#00AAFF"/>
        <path d="M138.983 164.916C138.915 164.916 138.846 164.913 138.778 164.906C137.888 164.825 137.133 164.222 136.855 163.373L133.785 153.971C133.402 152.797 134.043 151.533 135.218 151.15C136.392 150.766 137.656 151.408 138.039 152.582L139.498 157.049L140.316 155.547C140.707 154.828 141.461 154.379 142.281 154.379C143.101 154.379 143.855 154.827 144.246 155.547L145.064 157.049L146.523 152.582C146.906 151.408 148.169 150.766 149.344 151.15C150.519 151.533 151.16 152.797 150.776 153.971L147.707 163.373C147.429 164.222 146.673 164.825 145.784 164.906C144.896 164.989 144.042 164.533 143.615 163.748L142.281 161.297L140.948 163.748C140.554 164.472 139.797 164.916 138.983 164.916Z"
              fill="#4DF4FF"/>
        <path d="M158.136 164.916C158.068 164.916 158 164.913 157.931 164.906C157.042 164.825 156.286 164.222 156.008 163.373L152.939 153.971C152.555 152.797 153.196 151.533 154.371 151.15C155.546 150.766 156.809 151.408 157.193 152.582L158.651 157.049L159.469 155.547C159.86 154.828 160.614 154.379 161.434 154.379C162.254 154.379 163.008 154.827 163.4 155.547L164.217 157.049L165.676 152.582C166.059 151.408 167.322 150.766 168.497 151.15C169.672 151.533 170.314 152.797 169.93 153.971L166.86 163.373C166.583 164.222 165.827 164.825 164.938 164.906C164.048 164.989 163.195 164.533 162.768 163.748L161.435 161.297L160.101 163.748C159.706 164.472 158.95 164.916 158.136 164.916Z"
              fill="#4DF4FF"/>
        <path d="M183.885 164.916C183.072 164.916 182.314 164.472 181.921 163.748L180.587 161.297L179.254 163.748C178.827 164.532 177.976 164.989 177.084 164.906C176.195 164.825 175.439 164.222 175.162 163.373L172.092 153.971C171.709 152.797 172.35 151.533 173.524 151.15C174.699 150.766 175.962 151.408 176.346 152.582L177.805 157.049L178.622 155.547C179.014 154.828 179.768 154.379 180.588 154.379C181.407 154.379 182.161 154.827 182.553 155.547L183.37 157.049L184.829 152.582C185.212 151.408 186.476 150.766 187.651 151.15C188.825 151.533 189.467 152.797 189.083 153.971L186.013 163.373C185.736 164.222 184.98 164.825 184.091 164.906C184.022 164.913 183.953 164.916 183.885 164.916Z"
              fill="#4DF4FF"/>
    </g>
    <defs>
        <linearGradient id="paint0_linear" x1="138.41" y1="13.3501" x2="98.3389" y2="187.518"
                        gradientUnits="userSpaceOnUse">
            <stop stop-color="#83E6CE"/>
            <stop offset="1" stop-color="#94F7FD"/>
        </linearGradient>
        <linearGradient id="paint1_linear" x1="31.8541" y1="13.2986" x2="31.8541" y2="65.8001"
                        gradientUnits="userSpaceOnUse">
            <stop stop-color="white"/>
            <stop offset="1" stop-color="#E9EBFF"/>
        </linearGradient>
        <linearGradient id="paint2_linear" x1="168.461" y1="106.846" x2="126.923" y2="177.615"
                        gradientUnits="userSpaceOnUse">
            <stop stop-color="white"/>
            <stop offset="1" stop-color="#E9EBFF"/>
        </linearGradient>
        <clipPath id="clip0">
            <rect width="200" height="200" fill="white"/>
        </clipPath>
    </defs>
</svg>
