<svg viewBox="0 0 200 200" fill="none" xmlns="http://www.w3.org/2000/svg">
    <g clip-path="url(#clip0)">
        <path d="M27.999 186.914C16.322 186.914 11.677 187 0 187C0 161.076 -0.000976562 149.292 -0.000976562 123.914C11.676 123.914 15.999 123.914 27.999 123.914C27.999 149.043 27.7506 161.288 27.999 186.914Z"
              fill="url(#paint0_linear)"/>
        <path opacity="0.55"
              d="M29.8142 186.924C18.1372 186.924 11.677 186.924 0 186.924L0.249023 152.093L20.8701 123.481C32.5472 123.481 17.8888 123.481 29.5658 123.73C29.5658 148.609 29.5658 161.298 29.8142 186.924Z"
              fill="url(#paint1_linear)"/>
        <path d="M68.5709 109.299C58.8814 109.299 53.9125 109.299 43.9746 109.299C45.7137 78.1992 47.4529 47.0996 49.192 16C54.9063 16 57.6392 16 63.105 16C65.0926 47.0996 66.8317 78.1992 68.5709 109.299Z"
              fill="url(#paint2_linear)"/>
        <path d="M64.8444 44.8606C64.3475 38.1431 64.3475 34.6599 63.8506 27.9424C57.6395 27.9424 54.6581 27.9424 48.4469 27.9424C47.95 34.6599 47.95 38.1431 47.4531 44.8606C54.6581 44.8606 58.1364 44.8606 64.8444 44.8606Z"
              fill="white"/>
        <path d="M66.0863 66.257C65.8379 62.5251 65.8379 60.5347 65.5894 56.8027C58.136 56.8027 54.4093 56.8027 46.9559 56.8027C46.7074 60.5347 46.7074 62.5251 46.459 66.257C54.4093 66.257 58.3845 66.257 66.0863 66.257Z"
              fill="white"/>
        <path opacity="0.55"
              d="M50.9322 16C49.4415 47.0996 48.1993 78.1992 46.957 109.299C51.4291 109.299 53.6651 109.299 58.1371 109.299C57.3918 78.1992 56.8949 47.0996 56.1496 16C54.162 16 53.1682 16 50.9322 16Z"
              fill="url(#paint3_linear)"/>
        <path d="M106.833 118.504C98.3862 118.504 94.1626 118.504 85.9639 118.504C87.4546 91.8827 88.9452 65.2614 90.4359 38.6401C95.1564 38.6401 97.6409 38.6401 102.361 38.6401C103.852 65.2614 105.343 91.8827 106.833 118.504Z"
              fill="url(#paint4_linear)"/>
        <path d="M103.354 60.5345C103.105 56.0561 103.105 54.0658 102.857 49.5874C97.6396 49.5874 94.9067 49.5874 89.6893 49.5874C89.4408 54.0658 89.4408 56.0561 89.1924 60.5345C94.9067 60.5345 97.6396 60.5345 103.354 60.5345Z"
              fill="white"/>
        <path d="M104.347 75.7101C104.098 73.471 104.098 72.227 104.098 69.9878C97.8873 69.9878 94.9059 69.9878 88.6947 69.9878C88.4463 72.227 88.4463 73.471 88.4463 75.7101C94.6575 75.7101 97.8873 75.7101 104.347 75.7101Z"
              fill="white"/>
        <path opacity="0.55"
              d="M92.4218 38.6401C91.428 65.2614 90.4342 91.8827 89.4404 118.504C93.9125 118.504 96.1485 118.504 100.372 118.504C99.3783 91.8827 98.3845 65.2614 97.3908 38.6401C95.4032 38.6401 94.4094 38.6401 92.4218 38.6401Z"
              fill="url(#paint5_linear)"/>
        <path d="M138.633 118.504C130.186 118.504 125.962 118.504 117.764 118.504C119.254 91.8827 120.745 65.2614 122.236 38.6401C126.956 38.6401 129.441 38.6401 134.161 38.6401C135.652 65.2614 137.143 91.8827 138.633 118.504Z"
              fill="url(#paint6_linear)"/>
        <path d="M135.404 60.5345C135.156 56.0561 134.907 54.0658 134.659 49.5874C129.441 49.5874 126.708 49.5874 121.491 49.5874C121.243 54.0658 121.243 56.0561 120.994 60.5345C126.708 60.5345 129.69 60.5345 135.404 60.5345Z"
              fill="white"/>
        <path d="M136.397 75.7101C136.149 73.471 136.149 72.227 136.149 69.9878C129.938 69.9878 126.708 69.9878 120.496 69.9878C120.248 72.227 120.248 73.471 120.248 75.7101C126.708 75.7101 129.938 75.7101 136.397 75.7101Z"
              fill="white"/>
        <path opacity="0.55"
              d="M123.976 38.6401C122.982 65.2614 121.988 91.8827 120.994 118.504C125.466 118.504 127.702 118.504 131.926 118.504C130.932 91.8827 129.938 65.2614 128.944 38.6401C126.957 38.6401 125.963 38.6401 123.976 38.6401Z"
              fill="url(#paint7_linear)"/>
        <path d="M183.849 186.924C129.688 186.924 75.5265 186.924 21.3651 186.924C20.8682 157.069 20.8682 127.213 20.8682 97.3574C75.5265 97.3574 130.185 97.6062 184.843 97.6062C184.595 127.462 184.595 157.069 183.849 186.924Z"
              fill="url(#paint8_linear)"/>
        <path opacity="0.55"
              d="M113.788 146.121C102.36 155.575 67.5771 186.924 67.5771 186.924C106.335 186.924 145.093 186.924 184.099 186.924C184.347 170.752 184.596 162.542 184.596 146.121C160.993 146.121 137.391 146.121 113.788 146.121Z"
              fill="url(#paint9_linear)"/>
        <path opacity="0.75"
              d="M184.843 109.547C130.185 109.547 75.5265 109.547 20.8682 109.298C20.8682 106.313 20.8682 105.069 20.8682 102.083C75.5265 102.083 130.185 102.083 184.843 102.083C184.843 105.069 184.843 106.561 184.843 109.547Z"
              fill="url(#paint10_linear)"/>
        <path d="M184.843 104.821C130.185 104.821 75.5265 104.821 20.8682 104.573C20.8682 101.587 20.8682 100.343 20.8682 97.3574C75.5265 97.3574 130.185 97.6062 184.843 97.6062C184.843 100.592 184.843 102.085 184.843 104.821Z"
              fill="url(#paint11_linear)"/>
        <path d="M199.999 187C170.931 187 141.366 186.924 112.049 186.924C112.049 170.752 112.297 162.542 112.297 146.121C141.614 146.121 170.931 146.121 199.999 146.121C199.999 162.542 199.999 171 199.999 187Z"
              fill="url(#paint12_linear)"/>
        <path opacity="0.75"
              d="M200 156.073C170.683 156.073 141.615 156.073 112.298 156.073C112.298 152.092 112.298 150.102 112.298 146.121C141.615 146.121 170.931 146.121 200 146.121C200 150.102 200 152.092 200 156.073Z"
              fill="url(#paint13_linear)"/>
        <path d="M200 153.087C170.683 153.087 141.366 153.087 112.298 153.087C112.298 150.35 112.298 149.106 112.298 146.369C141.615 146.369 170.931 146.369 200 146.369C200 148.857 200 150.35 200 153.087Z"
              fill="url(#paint14_linear)"/>
        <path d="M49.441 186.924C45.2174 186.924 43.2299 186.924 39.0063 186.924C39.0063 172.493 38.7578 165.527 38.7578 151.346C38.7578 150.35 39.5032 149.355 40.7454 149.355C43.4783 149.355 44.7205 149.355 47.4535 149.355C48.4473 149.355 49.441 150.35 49.441 151.346C49.441 165.527 49.441 172.742 49.441 186.924Z"
              fill="#31B4D0"/>
        <path d="M65.59 186.923C61.3664 186.923 59.3789 186.923 55.1553 186.923C55.1553 172.741 55.1553 165.526 55.1553 151.345C55.1553 150.35 56.1491 149.354 57.1428 149.354C59.8758 149.354 61.118 149.354 63.8509 149.354C64.8447 149.354 65.8385 150.35 65.8385 151.345C65.3416 165.526 65.3416 172.741 65.59 186.923Z"
              fill="#31B4D0"/>
        <path d="M63.6019 149.354C60.869 149.354 59.6267 149.354 56.8938 149.354C55.9 149.354 55.1547 150.101 54.9062 151.096C55.1547 151.096 55.4031 150.847 55.6516 150.847C58.3845 150.847 59.6267 150.847 62.3597 150.847C63.3535 150.847 64.3472 151.842 64.3472 152.838C64.3472 166.521 64.3472 173.239 64.3472 186.674C64.8441 186.674 65.0926 186.674 65.5895 186.674C65.5895 172.493 65.5895 165.277 65.5895 151.096C65.341 150.35 64.5957 149.603 63.6019 149.354Z"
              fill="#00DBE9"/>
        <path d="M47.4535 149.355C44.7205 149.355 43.4783 149.355 40.7454 149.355C39.7516 149.355 39.0063 150.102 38.7578 151.097C39.0063 151.097 39.2547 150.848 39.5032 150.848C42.2361 150.848 43.4783 150.848 46.2112 150.848C47.205 150.848 48.1988 151.843 48.1988 152.838C48.1988 166.522 48.1988 173.24 48.4472 186.924C48.9441 186.924 49.1926 186.924 49.6895 186.924C49.6895 172.742 49.6895 165.527 49.441 151.346C49.1926 150.35 48.4472 149.355 47.4535 149.355Z"
              fill="#00DBE9"/>
        <path d="M184.843 134.429C118.897 134.429 86.8147 134.429 20.8682 134.429C20.8682 125.565 20.8682 120.9 20.8682 112.037C86.8147 112.037 118.897 112.037 184.843 112.037C184.843 120.9 184.843 125.565 184.843 134.429Z"
              fill="#1EBCEC"/>
        <path d="M29.5635 134.429C28.9424 134.429 28.9424 134.429 28.3213 134.429C28.3213 125.565 28.3213 120.9 28.3213 112.037C28.9424 112.037 28.9424 112.037 29.5635 112.037C29.5635 120.9 29.5635 125.565 29.5635 134.429Z"
              fill="white"/>
        <path d="M54.4073 134.429C53.7862 134.429 53.7862 134.429 53.165 134.429C53.165 125.565 53.165 120.9 53.165 112.037C53.7862 112.037 53.7862 112.037 54.4073 112.037C54.4073 120.9 54.4073 125.565 54.4073 134.429Z"
              fill="white"/>
        <path d="M79.253 134.429C78.6319 134.429 78.6319 134.429 78.0107 134.429C78.0107 125.565 78.0107 120.9 78.0107 112.037C78.6319 112.037 78.6319 112.037 79.253 112.037C79.253 120.9 79.253 125.565 79.253 134.429Z"
              fill="white"/>
        <path d="M104.099 134.429C103.478 134.429 103.478 134.429 102.856 134.429C102.856 125.565 102.856 120.9 102.856 112.037C103.478 112.037 103.478 112.037 104.099 112.037C104.099 120.9 104.099 125.565 104.099 134.429Z"
              fill="white"/>
        <path d="M128.942 134.429C128.321 134.429 128.321 134.429 127.7 134.429C127.7 125.565 127.7 120.9 127.7 112.037C128.321 112.037 128.321 112.037 128.942 112.037C128.942 120.9 128.942 125.565 128.942 134.429Z"
              fill="white"/>
        <path d="M153.787 134.429C153.166 134.429 153.166 134.429 152.545 134.429C152.545 125.565 152.545 120.9 152.545 112.037C153.166 112.037 153.166 112.037 153.787 112.037C153.787 120.9 153.787 125.565 153.787 134.429Z"
              fill="white"/>
        <path d="M178.631 134.429C178.01 134.429 178.01 134.429 177.389 134.429C177.389 125.565 177.389 120.9 177.389 112.037C178.01 112.037 178.01 112.037 178.631 112.037C178.631 120.9 178.631 125.565 178.631 134.429Z"
              fill="white"/>
        <path d="M134.658 166.521C129.441 166.521 126.956 166.521 121.987 166.521C121.987 163.536 121.987 162.043 121.987 159.057C127.205 159.057 129.689 159.057 134.658 159.057C134.907 162.043 134.907 163.536 134.658 166.521Z"
              fill="#31B4D0"/>
        <path d="M153.291 166.521C148.074 166.521 145.589 166.521 140.62 166.521C140.62 163.535 140.62 162.043 140.62 159.057C145.838 159.057 148.322 159.057 153.291 159.057C153.291 162.043 153.291 163.535 153.291 166.521Z"
              fill="#31B4D0"/>
        <path d="M171.677 166.521C166.459 166.521 163.975 166.521 159.006 166.521C159.006 163.535 159.006 162.043 159.006 159.057C164.223 159.057 166.708 159.057 171.677 159.057C171.677 162.043 171.677 163.535 171.677 166.521Z"
              fill="#31B4D0"/>
        <path d="M190.06 166.521C184.843 166.521 182.359 166.521 177.39 166.521C177.39 163.535 177.39 162.043 177.39 159.057C182.607 159.057 185.091 159.057 190.06 159.057C190.06 162.043 190.06 163.535 190.06 166.521Z"
              fill="#31B4D0"/>
        <path d="M140.124 186.923C136.149 186.923 134.162 186.923 130.187 186.923C130.187 182.942 130.187 180.952 130.187 176.971C130.187 176.224 130.932 175.478 131.677 175.478C134.41 175.478 135.901 175.478 138.634 175.478C139.379 175.478 140.124 176.224 140.124 176.971C140.373 180.952 140.373 182.942 140.124 186.923Z"
              fill="#31B4D0"/>
        <path d="M138.882 175.478C136.149 175.478 134.658 175.478 131.925 175.478C131.18 175.478 130.683 175.976 130.435 176.473C130.435 176.473 130.435 176.473 130.683 176.473C133.416 176.473 134.907 176.473 137.64 176.473C138.385 176.473 139.13 177.22 139.13 177.966C139.13 181.449 139.13 183.439 139.13 186.923C139.627 186.923 139.876 186.923 140.372 186.923C140.372 182.942 140.372 180.952 140.372 176.971C140.372 176.224 139.627 175.478 138.882 175.478Z"
              fill="#00DBE9"/>
        <rect x="20.8682" y="109.548" width="163.975" height="2.48798" fill="white"/>
        <path d="M37.0166 123.233L51.9234 112.037H53.1656V113.281L37.0166 123.233Z" fill="white"/>
        <path d="M63.1035 123.233L78.0103 112.037H79.2525V113.281L63.1035 123.233Z" fill="white"/>
        <path d="M87.9492 123.233L102.856 112.037H104.098V113.281L87.9492 123.233Z" fill="white"/>
        <path d="M112.793 123.233L127.7 112.037H128.942V113.281L112.793 123.233Z" fill="white"/>
        <path d="M137.638 123.233L152.545 112.037H153.787V113.281L137.638 123.233Z" fill="white"/>
        <path d="M162.483 123.233L177.39 112.037H178.633V113.281L162.483 123.233Z" fill="white"/>
        <path d="M38.2598 130.695L53.1666 119.499H54.4088V120.743L38.2598 130.695Z" fill="white"/>
        <path d="M63.1035 130.695L78.0103 119.499H79.2525V120.743L63.1035 130.695Z" fill="white"/>
        <path d="M87.9492 130.695L102.856 119.499H104.098V120.743L87.9492 130.695Z" fill="white"/>
        <path d="M112.793 130.695L127.7 119.499H128.942V120.743L112.793 130.695Z" fill="white"/>
        <path d="M137.638 130.695L152.545 119.499H153.787V120.743L137.638 130.695Z" fill="white"/>
        <path d="M162.483 130.695L177.39 119.499H178.633V120.743L162.483 130.695Z" fill="white"/>
    </g>
    <defs>
        <linearGradient id="paint0_linear" x1="20.9086" y1="133.013" x2="5.33979" y2="191.158"
                        gradientUnits="userSpaceOnUse">
            <stop stop-color="#31B4D0"/>
            <stop offset="0.9893" stop-color="#F1BAFF"/>
        </linearGradient>
        <linearGradient id="paint1_linear" x1="24.5777" y1="133.995" x2="9.00868" y2="192.14"
                        gradientUnits="userSpaceOnUse">
            <stop stop-color="#4FCAFF"/>
            <stop offset="1" stop-color="#BEFBFF"/>
        </linearGradient>
        <linearGradient id="paint2_linear" x1="44.0273" y1="62.6604" x2="68.546" y2="62.6604"
                        gradientUnits="userSpaceOnUse">
            <stop offset="0.0909091" stop-color="#E9EBFF"/>
            <stop offset="1" stop-color="#31C7D0"/>
        </linearGradient>
        <linearGradient id="paint3_linear" x1="52.5471" y1="16" x2="52.5471" y2="109.299"
                        gradientUnits="userSpaceOnUse">
            <stop stop-color="#89DCFF"/>
            <stop offset="1" stop-color="#E9EBFF"/>
        </linearGradient>
        <linearGradient id="paint4_linear" x1="85.8307" y1="78.5892" x2="106.739" y2="78.5892"
                        gradientUnits="userSpaceOnUse">
            <stop offset="0.0909091" stop-color="#E9EBFF"/>
            <stop offset="1" stop-color="#31C7D0"/>
        </linearGradient>
        <linearGradient id="paint5_linear" x1="94.9063" y1="38.6401" x2="94.9063" y2="118.504"
                        gradientUnits="userSpaceOnUse">
            <stop stop-color="#89DCFF"/>
            <stop offset="1" stop-color="#E9EBFF"/>
        </linearGradient>
        <linearGradient id="paint6_linear" x1="117.719" y1="78.6004" x2="138.672" y2="78.6004"
                        gradientUnits="userSpaceOnUse">
            <stop offset="0.114583" stop-color="#E9EBFF"/>
            <stop offset="0.895833" stop-color="#31C7D0"/>
        </linearGradient>
        <linearGradient id="paint7_linear" x1="126.46" y1="38.6401" x2="126.46" y2="118.504"
                        gradientUnits="userSpaceOnUse">
            <stop stop-color="#89DCFF"/>
            <stop offset="1" stop-color="#E9EBFF"/>
        </linearGradient>
        <linearGradient id="paint8_linear" x1="156.827" y1="88.7234" x2="50.2616" y2="193.068"
                        gradientUnits="userSpaceOnUse">
            <stop stop-color="#C1D6FF"/>
            <stop offset="1" stop-color="#73F7FF"/>
        </linearGradient>
        <linearGradient id="paint9_linear" x1="126.086" y1="146.121" x2="126.086" y2="186.924"
                        gradientUnits="userSpaceOnUse">
            <stop stop-color="#B77CC6"/>
            <stop offset="1" stop-color="#CCCCCC" stop-opacity="0.33"/>
        </linearGradient>
        <linearGradient id="paint10_linear" x1="102.856" y1="102.083" x2="102.856" y2="109.547"
                        gradientUnits="userSpaceOnUse">
            <stop stop-color="#B77CC6"/>
            <stop offset="1" stop-color="#CCCCCC" stop-opacity="0.33"/>
        </linearGradient>
        <linearGradient id="paint11_linear" x1="96.6445" y1="78.4493" x2="178.751" y2="162.925"
                        gradientUnits="userSpaceOnUse">
            <stop stop-color="#C1D6FF"/>
            <stop offset="1" stop-color="#00DBE9"/>
        </linearGradient>
        <linearGradient id="paint12_linear" x1="190.864" y1="146.389" x2="119.075" y2="187.664"
                        gradientUnits="userSpaceOnUse">
            <stop stop-color="#BEFBFF"/>
            <stop offset="0.984" stop-color="#00DBE9"/>
        </linearGradient>
        <linearGradient id="paint13_linear" x1="156.149" y1="146.121" x2="156.149" y2="156.073"
                        gradientUnits="userSpaceOnUse">
            <stop stop-color="#B77CC6"/>
            <stop offset="1" stop-color="#B77CC6" stop-opacity="0.37"/>
        </linearGradient>
        <linearGradient id="paint14_linear" x1="104.099" y1="156.819" x2="197.273" y2="141.932"
                        gradientUnits="userSpaceOnUse">
            <stop stop-color="#00DBE9"/>
            <stop offset="1" stop-color="#BEFBFF"/>
        </linearGradient>
        <clipPath id="clip0">
            <rect width="200" height="200" fill="white"/>
        </clipPath>
    </defs>
</svg>
