<svg viewBox="0 0 200 202" fill="none" xmlns="http://www.w3.org/2000/svg">
    <rect x="49.5996" y="56.978" width="150.4" height="104.739" fill="white"/>
    <path d="M200 38.4248V57.5049H49.5996V38.4248H57.0822C57.4813 42.0426 59.9256 44.7683 62.9186 44.7683C63.5172 44.7683 64.0161 44.3223 64.0161 43.8267C64.0161 43.3311 63.5172 42.8851 62.9186 42.8851C61.1727 42.8851 59.6263 40.9523 59.2771 38.4248H75.9882C76.3873 42.0426 78.8316 44.7683 81.8246 44.7683C82.4232 44.7683 82.9221 44.3223 82.9221 43.8267C82.9221 43.3311 82.4232 42.8851 81.8246 42.8851C80.0787 42.8851 78.5323 40.9523 78.1831 38.4248H95.4429C95.842 42.0426 98.2863 44.7683 101.329 44.7683C101.928 44.7683 102.427 44.3223 102.427 43.8267C102.427 43.3311 101.928 42.8851 101.329 42.8851C99.5833 42.8851 98.0369 40.9523 97.6877 38.4248H114.449C114.848 42.0426 117.292 44.7683 120.335 44.7683C120.934 44.7683 121.432 44.3223 121.432 43.8267C121.432 43.3311 120.934 42.8851 120.335 42.8851C118.589 42.8851 117.043 40.9523 116.693 38.4248H135.899C136.298 42.0426 138.742 44.7683 141.735 44.7683C142.334 44.7683 142.833 44.3223 142.833 43.8267C142.833 43.3311 142.334 42.8851 141.735 42.8851C139.989 42.8851 138.443 40.9523 138.144 38.4248H154.805C155.204 42.0426 157.648 44.7683 160.641 44.7683C161.24 44.7683 161.739 44.3223 161.739 43.8267C161.739 43.3311 161.24 42.8851 160.641 42.8851C158.895 42.8851 157.349 40.9523 157.05 38.4248H174.309C174.708 42.0426 177.153 44.7683 180.146 44.7683C180.744 44.7683 181.243 44.3223 181.243 43.8267C181.243 43.3311 180.744 42.8851 180.146 42.8851C178.4 42.8851 176.853 40.9523 176.504 38.4248H200V38.4248Z"
          fill="url(#paint0_linear)"/>
    <path d="M68.5055 34.8568C68.6551 35.3523 68.3059 35.8975 67.7073 35.9966C67.1087 36.0957 66.5101 35.7984 66.3604 35.3028C65.7618 33.2709 64.415 31.8832 62.9683 31.8832C60.973 31.8832 59.2769 34.4107 59.2769 37.3842C59.2769 37.7312 59.2769 38.0781 59.3268 38.425C59.676 40.9029 61.1725 42.8853 62.9683 42.8853C63.5669 42.8853 64.0658 43.3313 64.0658 43.8269C64.0658 44.3225 63.5669 44.7685 62.9683 44.7685C59.9254 44.7685 57.4811 42.0428 57.1319 38.425C57.082 38.0781 57.082 37.7312 57.082 37.3842C57.082 33.2213 59.676 30 63.0182 30C65.4625 30 67.6574 31.9328 68.5055 34.8568Z"
          fill="white"/>
    <path d="M106.966 34.8568C107.116 35.3523 106.767 35.8975 106.168 35.9966C105.57 36.0957 104.971 35.7984 104.821 35.3028C104.223 33.2709 102.876 31.8832 101.429 31.8832C99.434 31.8832 97.7379 34.4107 97.7379 37.3842C97.7379 37.7312 97.7379 38.0781 97.7878 38.425C98.137 40.9029 99.6335 42.8853 101.429 42.8853C102.028 42.8853 102.527 43.3313 102.527 43.8269C102.527 44.3225 102.028 44.7685 101.429 44.7685C98.3864 44.7685 95.9421 42.0428 95.5431 38.425C95.4932 38.0781 95.4932 37.7312 95.4932 37.3842C95.4932 33.2213 98.0871 30 101.429 30C103.924 30 106.118 31.9328 106.966 34.8568Z"
          fill="white"/>
    <path d="M125.873 34.8568C126.022 35.3523 125.673 35.8975 125.075 35.9966C124.476 36.0957 123.877 35.7984 123.728 35.3028C123.129 33.2709 121.782 31.8832 120.336 31.8832C118.34 31.8832 116.644 34.4107 116.644 37.3842C116.644 37.7312 116.644 38.0781 116.694 38.425C117.043 40.9029 118.54 42.8853 120.336 42.8853C120.934 42.8853 121.433 43.3313 121.433 43.8269C121.433 44.3225 120.934 44.7685 120.336 44.7685C117.293 44.7685 114.848 42.0428 114.449 38.425C114.399 38.0781 114.399 37.7312 114.399 37.3842C114.399 33.2213 116.993 30 120.336 30C122.83 30 125.025 31.9328 125.873 34.8568Z"
          fill="white"/>
    <path d="M147.322 34.8568C147.472 35.3523 147.073 35.8975 146.524 35.9966C145.925 36.0957 145.327 35.7984 145.177 35.3028C144.578 33.2709 143.231 31.8832 141.785 31.8832C139.789 31.8832 138.093 34.4107 138.093 37.3842C138.093 37.7312 138.093 38.0781 138.143 38.425C138.492 40.9029 139.989 42.8853 141.735 42.8853C142.334 42.8853 142.832 43.3313 142.832 43.8269C142.832 44.3225 142.334 44.7685 141.735 44.7685C138.692 44.7685 136.248 42.0428 135.899 38.425C135.849 38.0781 135.849 37.7312 135.849 37.3842C135.849 33.2213 138.443 30 141.785 30C144.279 30 146.474 31.9328 147.322 34.8568Z"
          fill="white"/>
    <path d="M166.278 34.8568C166.428 35.3523 166.078 35.8975 165.48 35.9966C164.881 36.0957 164.283 35.7984 164.133 35.3028C163.534 33.2709 162.188 31.8832 160.741 31.8832C158.746 31.8832 157.049 34.4107 157.049 37.3842C157.049 37.7312 157.049 38.0781 157.099 38.425C157.449 40.9029 158.945 42.8853 160.691 42.8853C161.29 42.8853 161.788 43.3313 161.788 43.8269C161.788 44.3225 161.29 44.7685 160.691 44.7685C157.648 44.7685 155.204 42.0428 154.855 38.425C154.805 38.0781 154.805 37.7312 154.805 37.3842C154.805 33.2213 157.399 30 160.741 30C163.235 30 165.43 31.9328 166.278 34.8568Z"
          fill="white"/>
    <path d="M87.4614 34.8568C87.611 35.3523 87.2618 35.8975 86.6632 35.9966C86.0646 36.0957 85.466 35.7984 85.3164 35.3028C84.7178 33.2709 83.3709 31.8832 81.9243 31.8832C79.9289 31.8832 78.2328 34.4107 78.2328 37.3842C78.2328 37.7312 78.2328 38.0781 78.2827 38.425C78.6319 40.9029 80.1284 42.8853 81.9243 42.8853C82.5229 42.8853 83.0217 43.3313 83.0217 43.8269C83.0217 44.3225 82.5229 44.7685 81.9243 44.7685C78.8813 44.7685 76.437 42.0428 76.0878 38.425C76.0379 38.0781 76.0379 37.7312 76.0379 37.3842C75.9382 33.2709 78.5321 30 81.8744 30C84.4185 30 86.6133 31.9328 87.4614 34.8568Z"
          fill="white"/>
    <path d="M184.984 35.9966C184.386 36.0957 183.787 35.7984 183.637 35.3028C183.039 33.2709 181.692 31.8832 180.245 31.8832C178.25 31.8832 176.554 34.4107 176.554 37.3842C176.554 37.7312 176.554 38.0781 176.604 38.425C176.953 40.9029 178.45 42.8853 180.245 42.8853C180.844 42.8853 181.343 43.3313 181.343 43.8269C181.343 44.3225 180.844 44.7685 180.245 44.7685C177.202 44.7685 174.758 42.0428 174.409 38.425C174.359 38.0781 174.359 37.7312 174.359 37.3842C174.309 33.2709 176.903 30 180.195 30C182.74 30 184.934 31.9328 185.782 34.8568C185.932 35.3523 185.533 35.8975 184.984 35.9966Z"
          fill="white"/>
    <path d="M4.54102 121.266C4.54102 149.168 27.1994 171.767 55.1746 171.767C83.1497 171.767 105.808 149.168 105.808 121.266C105.808 93.3649 83.1497 70.7661 55.1746 70.7661C27.2491 70.7661 4.54102 93.3649 4.54102 121.266Z"
          fill="url(#paint1_linear)"/>
    <path d="M0 119.68C0 147.582 22.6584 170.18 50.6335 170.18C78.6087 170.18 101.267 147.582 101.267 119.68C101.267 91.7785 78.6087 69.1797 50.6335 69.1797C22.6584 69.1797 0 91.7785 0 119.68Z"
          fill="url(#paint2_linear)"/>
    <path d="M5.86328 119.729C5.86328 144.409 25.9378 164.382 50.6335 164.382C75.3788 164.382 95.4036 144.36 95.4036 119.729C95.4036 95.0489 75.3788 75.0768 50.6335 75.0768C25.9378 75.0272 5.86328 95.0489 5.86328 119.729Z"
          fill="url(#paint3_linear)"/>
    <path d="M51.5276 79.6362H49.0928V89.548H51.5276V79.6362Z" fill="#00DBE9"/>
    <path d="M51.5276 151.397H49.0928V161.309H51.5276V151.397Z" fill="#00DBE9"/>
    <path d="M19.6273 118.639H9.68945V120.819H19.6273V118.639Z" fill="#00DBE9"/>
    <path d="M91.6273 118.639H81.6895V120.819H91.6273V118.639Z" fill="#00DBE9"/>
    <path d="M50.137 62.043L56.6463 80.9744H43.9258L50.137 62.043Z" fill="#00DBE9"/>
    <path d="M48.0202 121.193L52.542 121.193L52.542 76.9865L48.0202 76.9865L48.0202 121.193Z" fill="#00DBE9"/>
    <path d="M5.91309 119.828L24.8944 113.386V126.023L5.91309 119.828Z" fill="#00DBE9"/>
    <path d="M52.5605 121.968L52.5605 117.458L20.9084 117.458L20.9084 121.968L52.5605 121.968Z" fill="#00DBE9"/>
    <path d="M51.0179 119.362L50.2959 120.113L72.6824 141.51L73.4044 140.759L51.0179 119.362Z" fill="#00DBE9"/>
    <path d="M44.2734 120.72C44.2734 123.446 46.4598 125.627 49.1927 125.627C51.9256 125.627 54.1119 123.446 54.1119 120.72C54.1119 117.995 51.9256 115.814 49.1927 115.814C46.4598 115.814 44.2734 118.044 44.2734 120.72Z"
          fill="#00DBE9"/>
    <path d="M123.509 77.7389L113.684 79.6085L112.484 74.5234L125.834 70.8591H129.509V108.474H123.509V77.7389Z"
          fill="url(#paint4_linear)"/>
    <path d="M153.215 89.7786C153.215 91.5733 153.49 93.3182 154.04 95.0132C154.59 96.6584 155.415 98.1042 156.515 99.3505C157.615 100.597 158.94 101.594 160.49 102.342C162.04 103.09 163.84 103.463 165.89 103.463C167.89 103.463 169.665 103.09 171.215 102.342C172.765 101.594 174.065 100.597 175.115 99.3505C176.215 98.1042 177.04 96.6584 177.59 95.0132C178.14 93.3182 178.415 91.5733 178.415 89.7786C178.415 87.934 178.14 86.1891 177.59 84.544C177.04 82.8489 176.215 81.3783 175.115 80.1319C174.065 78.8856 172.765 77.9134 171.215 77.2155C169.665 76.4677 167.89 76.0938 165.89 76.0938C163.84 76.0938 162.04 76.4677 160.49 77.2155C158.94 77.9134 157.615 78.8856 156.515 80.1319C155.415 81.3783 154.59 82.8489 154.04 84.544C153.49 86.1891 153.215 87.934 153.215 89.7786ZM146.84 89.7786C146.84 87.0366 147.315 84.4692 148.265 82.0762C149.215 79.6832 150.54 77.6143 152.24 75.8694C153.94 74.0747 155.94 72.6788 158.24 71.6817C160.59 70.6348 163.14 70.1113 165.89 70.1113C168.59 70.1113 171.09 70.6348 173.39 71.6817C175.74 72.6788 177.74 74.0747 179.39 75.8694C181.09 77.6143 182.415 79.6832 183.365 82.0762C184.315 84.4692 184.79 87.0366 184.79 89.7786C184.79 92.4707 184.315 95.0132 183.365 97.4062C182.415 99.7992 181.09 101.893 179.39 103.688C177.74 105.483 175.74 106.903 173.39 107.95C171.09 108.947 168.59 109.446 165.89 109.446C163.14 109.446 160.59 108.947 158.24 107.95C155.94 106.903 153.94 105.483 152.24 103.688C150.54 101.893 149.215 99.7992 148.265 97.4062C147.315 95.0132 146.84 92.4707 146.84 89.7786Z"
          fill="url(#paint5_linear)"/>
    <path d="M133.136 145.539H129.306V125.758H122.547C122.156 130.766 121.626 134.703 120.956 137.568C120.301 140.42 119.436 142.513 118.362 143.849C117.301 145.17 115.941 145.831 114.281 145.831C113.374 145.831 112.711 145.733 112.293 145.539V142.722C112.586 142.833 112.977 142.889 113.465 142.889C114.999 142.889 116.22 141.275 117.127 138.048C118.048 134.821 118.766 129.681 119.282 122.629H133.136V145.539Z"
          fill="url(#paint6_linear)"/>
    <path d="M152.333 145.956C148.888 145.956 146.181 144.92 144.214 142.847C142.261 140.76 141.284 137.895 141.284 134.251C141.284 130.578 142.198 127.657 144.026 125.487C145.853 123.303 148.323 122.211 151.434 122.211C154.321 122.211 156.623 123.143 158.339 125.007C160.055 126.857 160.913 129.368 160.913 132.54V134.814H145.177C145.246 137.415 145.909 139.39 147.165 140.74C148.42 142.089 150.199 142.764 152.501 142.764C153.729 142.764 154.893 142.659 155.996 142.451C157.098 142.228 158.388 141.804 159.867 141.178V144.474C158.597 145.017 157.405 145.4 156.289 145.622C155.172 145.845 153.854 145.956 152.333 145.956ZM151.392 125.279C149.592 125.279 148.169 125.856 147.123 127.01C146.076 128.165 145.456 129.772 145.26 131.83H156.958C156.93 129.688 156.435 128.061 155.472 126.948C154.51 125.835 153.15 125.279 151.392 125.279Z"
          fill="url(#paint7_linear)"/>
    <path d="M184.757 125.8H177.244V145.539H173.519V125.8H166.111V122.629H184.757V125.8Z" fill="url(#paint8_linear)"/>
    <defs>
        <linearGradient id="paint0_linear" x1="203.766" y1="47.979" x2="45.3001" y2="47.979"
                        gradientUnits="userSpaceOnUse">
            <stop stop-color="#16C4EA"/>
            <stop offset="1" stop-color="#C1D6FF"/>
        </linearGradient>
        <linearGradient id="paint1_linear" x1="55.1746" y1="70.7661" x2="55.1746" y2="171.767"
                        gradientUnits="userSpaceOnUse">
            <stop stop-color="#4DF4FF"/>
            <stop offset="1" stop-color="#5AA9F2"/>
        </linearGradient>
        <linearGradient id="paint2_linear" x1="35.2129" y1="68.5112" x2="63.0827" y2="161.404"
                        gradientUnits="userSpaceOnUse">
            <stop stop-color="#89DCFF"/>
            <stop offset="1" stop-color="#BEFBFF"/>
        </linearGradient>
        <linearGradient id="paint3_linear" x1="5.87143" y1="119.703" x2="95.4343" y2="119.703"
                        gradientUnits="userSpaceOnUse">
            <stop stop-color="#F9E6D9"/>
            <stop offset="0.121" stop-color="#FCF1EA"/>
            <stop offset="0.2698" stop-color="#FEF9F6"/>
            <stop offset="0.4751" stop-color="#FFFEFD"/>
            <stop offset="1" stop-color="white"/>
        </linearGradient>
        <linearGradient id="paint4_linear" x1="106.996" y1="106.9" x2="130.12" y2="176.433"
                        gradientUnits="userSpaceOnUse">
            <stop stop-color="#67F6FF"/>
            <stop offset="1" stop-color="#31D0D0"/>
        </linearGradient>
        <linearGradient id="paint5_linear" x1="106.996" y1="106.9" x2="130.12" y2="176.433"
                        gradientUnits="userSpaceOnUse">
            <stop stop-color="#67F6FF"/>
            <stop offset="1" stop-color="#31D0D0"/>
        </linearGradient>
        <linearGradient id="paint6_linear" x1="106.996" y1="106.9" x2="130.12" y2="176.433"
                        gradientUnits="userSpaceOnUse">
            <stop stop-color="#67F6FF"/>
            <stop offset="1" stop-color="#31D0D0"/>
        </linearGradient>
        <linearGradient id="paint7_linear" x1="106.996" y1="106.9" x2="130.12" y2="176.433"
                        gradientUnits="userSpaceOnUse">
            <stop stop-color="#67F6FF"/>
            <stop offset="1" stop-color="#31D0D0"/>
        </linearGradient>
        <linearGradient id="paint8_linear" x1="106.996" y1="106.9" x2="130.12" y2="176.433"
                        gradientUnits="userSpaceOnUse">
            <stop stop-color="#67F6FF"/>
            <stop offset="1" stop-color="#31D0D0"/>
        </linearGradient>
    </defs>
</svg>
