<svg viewBox="0 0 200 200" fill="none" xmlns="http://www.w3.org/2000/svg">
    <path opacity="0.3"
          d="M95.3204 95.8178C95.2821 97.5315 79.472 98.5685 60.0075 98.134C40.543 97.6996 24.7949 95.9582 24.8331 94.2445C24.8485 93.5556 27.4132 92.976 31.7398 92.5574C27.1843 91.4913 29.5126 89.758 32.2635 89.6126C33.697 89.5369 37.7668 89.2516 40.0509 89.5042C46.4462 90.2114 46.421 91.3397 45.0349 91.8898C49.6171 91.8005 54.7406 91.8076 60.146 91.9283C79.6105 92.3627 95.3586 94.1041 95.3204 95.8178Z"
          fill="#395FE4"/>
    <path d="M131.049 193.391L30.9985 163.524C26.346 162.135 23.695 157.23 25.0833 152.579L67.9098 9.1126C69.2981 4.4616 74.2045 1.81207 78.8569 3.20089L178.908 33.0673C183.56 34.4561 186.211 39.3616 184.823 44.0126L141.996 187.479C140.608 192.13 135.713 194.783 131.049 193.391Z"
          fill="url(#paint0_linear)"/>
    <path d="M175.288 39.0162L79.062 10.2915L37.3456 150.037L133.572 178.762L175.288 39.0162Z" fill="#BEFBFF"/>
    <path d="M175.299 39.0196C159.065 93.526 141.207 159.766 130.735 172.491C102.976 167.071 71.146 158.484 37.7486 148.687L91.6118 14.4949L175.299 39.0196Z"
          fill="url(#paint1_linear)"/>
    <path d="M127.738 166.8C83.6987 160.98 55.4976 152.945 33.2166 144.453C45.5471 113.911 62.3226 62.0618 79.0597 10.3001L129.681 25.5346L174.62 42.2482C159.143 96.5359 144.294 146.526 127.738 166.8Z"
          fill="white"/>
    <path d="M147.587 46.0871L97.3247 29.7864L94.8412 37.4437L145.103 53.7444L147.587 46.0871Z" fill="#31C7D0"/>
    <path d="M151.721 67.8632L106.382 53.1589L105.246 56.6611L150.585 71.3653L151.721 67.8632Z" fill="#31C7D0"/>
    <path d="M134.718 70.7919L103.899 60.7966L102.763 64.2988L133.583 74.294L134.718 70.7919Z" fill="#D3DFFF"/>
    <path d="M92.0297 48.7324L81.2964 45.2524L77.8141 55.9856L88.5474 59.4655L92.0297 48.7324Z" fill="white"/>
    <path d="M82.2169 48.6179C82.1631 49.998 81.1914 55.5274 84.3165 54.829C85.0309 54.6715 85.8386 53.9117 86.4484 53.5253C87.5579 52.8308 88.6675 52.1364 89.7884 51.4454C92.0075 50.0565 94.2413 48.6597 96.4604 47.2708C97.0373 46.9116 95.5162 45.1358 94.7999 45.5892C92.8234 46.8281 90.8468 48.0669 88.8623 49.291C87.874 49.9105 86.8857 50.5299 85.8975 51.1493C85.2141 51.5755 83.4602 53.1032 82.6525 53.0352C83.0203 53.2932 83.3995 53.5546 83.7707 53.8013C83.9946 54.1275 83.9582 52.2633 83.9604 52.2146C83.9933 51.3595 84.0228 50.5158 84.0444 49.6574C84.0753 48.9747 82.2553 47.5791 82.2169 48.6179Z"
          fill="white"/>
    <path d="M137.398 84.7711L100.056 72.6606L98.9203 76.1628L136.262 88.2732L137.398 84.7711Z" fill="#31C7D0"/>
    <path d="M142.915 95.006L97.5762 80.3018L96.4403 83.8039L141.78 98.5081L142.915 95.006Z" fill="#D3DFFF"/>
    <path d="M85.7054 68.2272L74.9722 64.7473L71.4899 75.4805L82.2231 78.9604L85.7054 68.2272Z" fill="white"/>
    <path d="M75.7885 68.4335C75.7347 69.8136 74.7629 75.343 77.888 74.6445C78.6024 74.487 79.4102 73.7272 80.0199 73.3408C81.1295 72.6464 82.239 71.9519 83.3599 71.2609C85.5791 69.872 87.8129 68.4751 90.032 67.0862C90.6089 66.7271 89.0879 64.9512 88.3716 65.4047C86.395 66.6436 84.4184 67.8824 82.4339 69.1066C81.4456 69.726 80.4573 70.3454 79.469 70.9649C78.7856 71.3911 77.0317 72.9188 76.224 72.8508C76.5919 73.1088 76.9711 73.3702 77.3423 73.6168C77.5662 73.9431 77.5297 72.0789 77.5319 72.0302C77.5649 71.1751 77.5944 70.3314 77.616 69.473C77.6582 68.7937 75.8269 67.3948 75.7885 68.4335Z"
          fill="white"/>
    <path d="M139.068 106.874L93.7285 92.1702L92.5927 95.6723L137.932 110.377L139.068 106.874Z" fill="#31C7D0"/>
    <path d="M111.53 106.391L91.2539 99.8152L90.118 103.317L110.394 109.893L111.53 106.391Z" fill="#D3DFFF"/>
    <path d="M79.3885 87.7338L68.6553 84.2539L65.1729 94.9871L75.9061 98.467L79.3885 87.7338Z" fill="white"/>
    <path d="M69.5765 88.1172C69.5227 89.4973 68.5509 95.0268 71.6761 94.3283C72.3904 94.1708 73.1982 93.411 73.8079 93.0246C74.9175 92.3301 76.027 91.6357 77.1479 90.9446C79.367 89.5557 81.6009 88.1589 83.8199 86.77C84.3968 86.4108 82.8758 84.635 82.1595 85.0884C80.1829 86.3273 78.2064 87.5662 76.2219 88.7903C75.2336 89.4097 74.2453 90.0291 73.257 90.6486C72.5736 91.0748 70.8198 92.6025 70.0121 92.5345C70.3799 92.7925 70.7591 93.0539 71.1303 93.3006C71.3542 93.6268 71.3178 91.7626 71.32 91.7139C71.3529 90.8588 71.3824 90.0151 71.404 89.1567C71.4349 88.474 69.6035 87.0751 69.5765 88.1172Z"
          fill="white"/>
    <path d="M132.746 126.366L87.4062 111.662L86.2704 115.164L131.61 129.868L132.746 126.366Z" fill="#31C7D0"/>
    <path d="M120.744 130.926L84.9229 119.308L83.787 122.81L119.608 134.428L120.744 130.926Z" fill="#D3DFFF"/>
    <path d="M73.0556 107.232L62.3223 103.752L58.8399 114.485L69.5732 117.965L73.0556 107.232Z" fill="white"/>
    <path d="M63.2828 107.493C63.229 108.873 62.2573 114.402 65.3824 113.704C66.0968 113.546 66.9045 112.787 67.5142 112.4C68.6238 111.706 69.7333 111.011 70.8542 110.32C73.0733 108.931 75.3072 107.535 77.5263 106.146C78.1031 105.787 76.5821 104.011 75.8658 104.464C73.8892 105.703 71.9127 106.942 69.9282 108.166C68.9399 108.785 67.9516 109.405 66.9633 110.024C66.2799 110.45 64.5261 111.978 63.7184 111.91C64.0862 112.168 64.4654 112.43 64.8366 112.676C65.0605 113.003 65.0241 111.138 65.0263 111.09C65.0592 110.235 65.0887 109.391 65.1103 108.532C65.1412 107.85 63.3212 106.454 63.2828 107.493Z"
          fill="white"/>
    <path d="M99.1025 136.86L81.1245 131.03L79.9886 134.532L97.9667 140.362L99.1025 136.86Z" fill="#31C7D0"/>
    <path d="M123.983 153.371L78.6424 138.662L77.5098 142.167C95.0526 147.86 117.3 155.391 122.105 156.059C123.031 155.483 123.697 154.62 123.983 153.371Z"
          fill="#D3DFFF"/>
    <path d="M66.9286 126.64L56.1953 123.16L52.713 133.894L63.4463 137.374L66.9286 126.64Z" fill="white"/>
    <path d="M57.0543 126.697C57.0005 128.077 56.0288 133.606 59.1539 132.908C59.8683 132.75 60.676 131.99 61.2858 131.604C62.3953 130.909 63.5049 130.215 64.6258 129.524C66.8448 128.135 69.0787 126.738 71.2978 125.349C71.8746 124.99 70.3536 123.214 69.6373 123.668C67.6608 124.907 65.6842 126.146 63.6997 127.37C62.7114 127.989 61.7231 128.608 60.7349 129.228C60.0514 129.654 58.2976 131.182 57.4899 131.114C57.8577 131.372 58.2369 131.633 58.6081 131.88C58.832 132.206 58.7956 130.342 58.7978 130.293C58.8307 129.438 58.8602 128.594 58.8818 127.736C58.9127 127.053 57.0927 125.658 57.0543 126.697Z"
          fill="white"/>
    <path d="M150.271 25.5746L147.05 36.3626L103.703 23.4229L106.923 12.6349C107.438 10.9106 108.606 9.5665 110.064 8.77881C110.241 8.68333 110.429 8.59124 110.625 8.51388C111.971 7.93951 113.514 7.81961 115.024 8.27013C116.158 8.60886 117.314 8.66975 118.429 8.49597C118.91 8.41711 119.378 8.29745 119.849 8.12902C121.36 7.57939 122.702 6.55938 123.628 5.1555C124.579 3.70962 125.959 2.68844 127.519 2.14101C129.008 1.62202 130.655 1.57003 132.233 2.04087L134.933 2.84706C136.522 3.32129 137.856 4.27551 138.821 5.51483C139.818 6.81307 140.409 8.435 140.422 10.1688C140.435 11.8652 140.987 13.4509 141.953 14.7276C142.247 15.1117 142.569 15.4798 142.94 15.8127C143.777 16.5691 144.777 17.1518 145.911 17.4905C147.421 17.9411 148.646 18.8875 149.456 20.1055C150.479 21.6463 150.846 23.6462 150.271 25.5746Z"
          fill="white"/>
    <path d="M152.15 32.1135L149.756 40.1337L99.3735 25.0939L101.768 17.0737L105.285 18.1238L103.704 23.4214L147.051 36.361L148.633 31.0635L152.15 32.1135Z"
          fill="url(#paint2_linear)"/>
    <path d="M130.551 12.5549C132.676 13.1891 134.886 12.0678 135.488 10.0504C136.091 8.0331 134.857 5.88359 132.732 5.24939C130.608 4.6152 128.397 5.73646 127.795 7.75381C127.193 9.77116 128.427 11.9207 130.551 12.5549Z"
          fill="#BEFBFF"/>
    <path d="M42.8581 7.81791C42.8581 7.81791 45.2916 1.1562 45.889 1.68045C46.4864 2.20471 46.1099 8.51681 46.1099 8.51681L43.9089 10.4666L42.8581 7.81791Z"
          fill="#B77CC6"/>
    <path d="M26.6753 136.392L26.2124 138.688C25.3892 142.729 21.4446 145.344 17.3873 144.528L16.7917 144.412C12.7491 143.589 10.1323 139.645 10.9476 135.589L11.4105 133.293L26.6753 136.392Z"
          fill="white"/>
    <path d="M49.2223 25.3891L33.9731 22.2898L11.4183 133.294L26.6675 136.394L49.2223 25.3891Z"
          fill="url(#paint3_linear)"/>
    <path d="M26.6747 136.393L11.4213 133.297L12.3358 128.826L12.9676 125.716L14.9046 116.163L30.1581 119.259L28.2097 128.808L27.5779 131.918L26.6747 136.393Z"
          fill="#31C7D0"/>
    <path d="M28.2117 128.825L12.9624 125.726L12.3308 128.836L27.5801 131.934L28.2117 128.825Z"
          fill="url(#paint4_linear)"/>
    <path d="M33.98 22.2907L43.0443 6.99561C43.0443 6.99561 44.2731 8.05429 46.3276 7.50623L49.2414 25.4009L33.98 22.2907Z"
          fill="white"/>
    <defs>
        <linearGradient id="paint0_linear" x1="83.9259" y1="-11.8588" x2="140.424" y2="201.247"
                        gradientUnits="userSpaceOnUse">
            <stop stop-color="#4DF4FF"/>
            <stop offset="0.0001" stop-color="#4DF4FF"/>
            <stop offset="1" stop-color="#E9DEFF"/>
        </linearGradient>
        <linearGradient id="paint1_linear" x1="127.31" y1="24.6943" x2="85.9973" y2="163.09"
                        gradientUnits="userSpaceOnUse">
            <stop stop-color="#89DCFF"/>
            <stop offset="1" stop-color="#D3DFFF"/>
        </linearGradient>
        <linearGradient id="paint2_linear" x1="126.959" y1="24.5936" x2="124.565" y2="32.6138"
                        gradientUnits="userSpaceOnUse">
            <stop stop-color="#89DCFF"/>
            <stop offset="1" stop-color="#F0F5FF"/>
        </linearGradient>
        <linearGradient id="paint3_linear" x1="41.5977" y1="23.8395" x2="19.0366" y2="134.843"
                        gradientUnits="userSpaceOnUse">
            <stop stop-color="#4DF4FF"/>
            <stop offset="1" stop-color="#E9EBFF"/>
        </linearGradient>
        <linearGradient id="paint4_linear" x1="20.5871" y1="127.276" x2="19.9552" y2="130.385"
                        gradientUnits="userSpaceOnUse">
            <stop stop-color="#4DF4FF"/>
            <stop offset="1" stop-color="#E9EBFF"/>
        </linearGradient>
    </defs>
</svg>
