<svg viewBox="0 0 200 200" fill="none" xmlns="http://www.w3.org/2000/svg">
    <path d="M164.039 71.1592C163.648 70.2877 173.524 61.8133 173.944 62.805C173.944 62.805 176.376 62.5946 177.576 60.9718C178.777 59.3491 176.766 56.9149 179.588 56.5243C183.91 54.4207 185.651 61.4827 182.619 62.805C180.398 64.007 179.197 61.4827 179.197 64.1873C179.197 66.8919 177.186 66.4712 178.597 67.8836C180.008 69.296 181.238 68.2743 180.818 70.9188C180.428 73.5633 185.261 69.296 185.861 74.555C187.452 82.5486 183.49 90.392 188.082 96.1919C189.493 97.0032 194.956 101.872 194.146 104.486C190.154 109.474 197.658 109.384 197.988 113.381C197.027 120.083 200.059 117.198 199.999 120.654C199.609 122.667 197.178 123.088 196.577 120.654C195.977 118.219 196.787 118.219 194.356 118.43C189.403 120.173 190.424 112.9 187.092 110.947C184.48 105.628 185.471 104.306 182.859 98.2053C182.259 94.7795 183.28 93.1567 180.638 93.5474C177.997 93.938 176.946 90.7826 177.396 92.1349C177.997 93.9681 177.606 93.337 178.417 94.7795C179.227 96.1919 176.796 94.3888 177.216 97.424C177.606 100.459 177.426 99.6478 177.817 102.473C181.088 109.625 167.971 113.051 168.121 119.662C169.472 123.689 166.23 129.158 167.911 131.412C173.044 133.816 168.271 138.234 171.333 138.083C175.775 138.173 172.984 134.988 174.575 133.215C178.357 130.631 179.768 134.507 182.859 138.083C187.872 143.282 185.021 150.555 186.281 156.895C188.563 163.927 182.019 168.014 177.997 169.036C174.425 161.313 181.118 166.241 179.407 161.553C176.766 158.518 179.527 153.469 176.376 153.86C173.944 153.86 175.985 155.062 172.323 154.672C156.895 154.221 164.789 150.765 157.765 145.957C154.944 145.145 156.354 143.943 153.323 145.145C150.291 146.347 150.681 147.97 148.46 146.347C146.239 144.725 145.038 147.76 145.038 149.383C145.038 151.005 143.027 151.817 145.038 152.418C147.049 153.019 150.291 154.852 149.871 157.887C148.67 166.602 145.698 164.228 136.963 168.014C134.472 169.096 128.048 166.572 125.437 166.812C123.606 167.233 125.827 167.834 123.606 167.233C118.173 166.542 122.555 162.515 115.531 163.597C112.68 163.897 112.68 175.677 107.637 170.869C104.635 167.654 96.7705 169.397 92.8683 169.457C90.0467 169.847 88.4258 173.093 85.9944 168.255C82.7826 162.725 78.7003 157.406 73.4773 156.505C70.8358 157.106 71.0459 159.75 68.2243 157.316C65.4027 154.882 66.8135 151.456 62.5511 153.89C50.064 164.017 57.3281 150.224 46.3719 157.526C41.239 161.042 41.329 154.131 38.8977 152.478C37.8771 151.666 36.6764 152.087 35.0555 148.842C33.4346 145.596 31.8136 146.618 28.7819 147.219C25.7502 147.82 26.1404 145.596 24.5495 147.609C22.9286 149.623 20.9175 150.254 21.1276 151.246C24.9397 154.551 21.5178 159.42 17.8857 160.742C17.2854 160.952 16.2648 159.329 15.6645 161.343C15.0641 163.356 14.6439 162.755 14.4638 164.769C14.9441 174.265 8.13021 165.37 6.38922 160.922C4.55818 158.488 3.95784 160.922 3.14738 157.076C3.62765 151.666 -1.9255 149.232 0.715997 148.571C2.33692 147.79 4.16796 141.118 7.5899 144.124C9.60104 144.935 9.81116 145.746 11.0118 145.145C12.2125 144.544 11.0118 144.124 12.6328 143.132C14.2537 142.11 16.0547 141.118 13.6533 140.698C7.19968 140.427 10.7417 134.267 12.8429 130.781C14.4638 128.347 15.8746 128.046 14.0436 125.973C8.91065 120.984 20.4372 121.345 17.8857 116.416C15.3943 113.381 17.6756 107.04 22.3283 107.912C24.5795 108.002 27.161 111.308 28.6018 109.324C29.8025 107.912 31.2433 108.122 30.2227 106.499C29.2022 104.877 27.7914 104.486 29.8325 103.675C31.8437 102.863 30.643 106.319 31.8437 102.863C33.0443 99.4374 36.2862 97.1836 38.2973 94.7795C40.3085 92.3453 37.0966 91.3536 41.1189 90.9329C45.4114 90.8427 46.7321 90.8127 49.0134 92.3453C50.034 93.1567 48.8033 93.1567 50.034 94.9898C52.3153 97.6043 51.9251 99.9182 49.4337 101.451C48.0229 102.262 49.8239 102.863 48.0228 102.262C46.2218 101.661 48.8333 101.661 45.3814 100.249C40.6987 97.6944 44.6309 97.424 39.528 100.459C39.7682 102.683 37.5169 103.284 37.0966 105.117C37.3068 106.139 35.4757 108.363 37.3068 108.363C39.1378 108.363 38.9277 105.538 40.1284 105.928C42.98 106.229 40.6387 109.294 42.3496 109.565C47.5126 106.139 45.1112 108.964 50.4242 109.174C52.4354 108.363 50.034 105.928 52.8556 105.718C55.6772 105.508 55.8873 106.109 56.4877 107.341C57.088 108.543 56.0974 110.166 58.3187 110.376C60.54 110.586 64.7724 111.398 66.6034 111.999C68.4344 112.6 67.4139 114.613 69.2449 114.132C71.0759 113.622 67.8341 109.775 71.256 111.187C74.678 112.6 74.4979 113.832 75.6986 113.021C76.8992 112.209 74.4979 115.455 76.8992 111.007C79.3306 106.56 79.5407 104.726 80.5313 103.524C81.5519 102.322 79.1205 101.301 81.5519 102.322C83.9833 103.344 84.5836 102.923 83.7731 105.357C82.9627 107.792 84.7937 104.546 82.9627 107.792C79.7509 111.999 82.0322 113.381 79.3306 116.687C78.1299 118.099 78.1299 116.086 76.509 118.52C74.8881 120.954 74.2878 120.533 75.3083 121.946C76.3289 123.358 77.7397 123.959 79.1505 122.967C81.0716 121.585 83.7131 116.747 83.593 114.553C83.8032 113.261 82.7826 113.051 84.4035 111.458C87.045 109.775 88.9961 106.229 91.0673 104.576C92.8983 103.765 89.8666 103.975 92.8983 103.765C95.93 103.554 95.93 104.576 96.7405 103.164C97.551 101.751 96.9506 103.765 97.551 101.751C96.7705 97.3939 101.633 97.5141 104.215 95.2903C106.226 93.8779 103.194 92.0448 106.646 91.0531C110.068 90.0314 110.488 89.6407 112.319 91.0531C116.732 92.3153 115.261 94.1183 114.961 97.7245C114.571 99.9483 113.34 99.5576 114.15 100.97C114.961 102.382 114.541 103.194 116.162 101.992C117.782 100.79 116.972 101.391 120.604 100.579C124.236 99.768 123.246 101.781 125.257 100.97C127.268 100.159 126.667 100.369 127.088 98.3255C127.478 96.3121 124.866 97.3038 127.478 96.3121C133.631 93.1867 131.02 101.18 135.162 102.382C137.804 102.983 138.404 103.194 139.815 101.361C141.136 98.5058 146.119 101.24 145.488 97.1235C145.098 95.11 143.477 95.5007 143.477 94.2986C143.477 93.0966 141.856 94.6893 143.687 91.8645C145.518 89.0397 142.877 90.0314 145.518 89.0397C148.16 88.0179 145.128 88.0179 148.16 88.0179C151.341 88.0179 151.852 88.649 153.413 86.6055C154.613 85.4035 152.392 84.9828 154.433 83.961C156.444 82.9393 155.454 82.1279 157.465 82.1279C159.476 82.1279 157.855 82.7289 159.476 82.1279C161.097 81.5269 159.686 80.5051 161.307 79.9041C162.928 79.3031 163.138 78.071 164.549 77.8907C165.96 77.7104 161.907 76.8689 164.159 76.4783C166.38 76.0876 167.401 76.6886 168.001 75.0659C168.601 73.4431 170.432 73.8638 168.601 73.4431C166.68 72.9322 162.448 73.6234 164.039 71.1592Z"
          fill="white"/>
    <mask id="mask0" mask-type="alpha" maskUnits="userSpaceOnUse" x="0" y="26" width="200" height="148">
        <path d="M173.944 64.1575C173.524 63.1658 163.648 71.6402 164.039 72.5117C162.628 74.3448 125.642 64.7588 123 64.1578C118.858 62.9557 113.809 25.464 106 26.0058C102.968 26.2162 68 43.0056 38 59.0056C38 67.0056 46 84.7398 49 91.0056C50.2973 97.7399 40.3085 93.6978 38.2973 96.1319C36.2862 98.536 33.0443 100.79 31.8437 104.216C30.643 107.672 31.8437 104.216 29.8325 105.027C27.7914 105.838 29.2022 106.229 30.2227 107.852C31.2433 109.475 29.8025 109.264 28.6018 110.677C27.161 112.66 24.5795 109.354 22.3283 109.264C17.6756 108.393 15.3943 114.734 17.8857 117.769C20.4372 122.697 8.91065 122.337 14.0436 127.325C15.8746 129.399 14.4638 129.699 12.8429 132.133C10.7417 135.619 7.19968 141.78 13.6533 142.05C16.0547 142.471 14.2537 143.463 12.6328 144.484C11.0118 145.476 12.2125 145.897 11.0118 146.498C9.81116 147.099 9.60104 146.287 7.5899 145.476C4.16796 142.471 2.33692 149.142 0.715997 149.924C-1.9255 150.585 3.62765 153.019 3.14738 158.428C3.95784 162.275 4.55818 159.84 6.38922 162.275C8.13021 166.722 14.9441 175.617 14.4638 166.121C14.6439 164.108 15.0641 164.709 15.6645 162.695C16.2648 160.682 17.2854 162.305 17.8857 162.094C21.5178 160.772 24.9397 155.904 21.1276 152.598C20.9175 151.606 22.9286 150.975 24.5495 148.962C26.1404 146.949 25.7502 149.172 28.7819 148.571C31.8136 147.97 33.4346 146.949 35.0555 150.194C36.6764 153.44 37.8771 153.019 38.8977 153.83C41.329 155.483 41.239 162.395 46.3719 158.879C57.3281 151.576 50.064 165.37 62.5511 155.243C66.8135 152.809 65.4027 156.234 68.2243 158.669C71.0459 161.103 70.8358 158.458 73.4773 157.857C78.7003 158.759 82.7826 164.078 85.9944 169.607C88.4258 174.445 90.0467 171.2 92.8683 170.809C96.7705 170.749 104.635 169.006 107.637 172.222C112.68 177.03 112.68 165.25 115.531 164.949C122.555 163.867 118.173 167.894 123.606 168.585C125.827 169.186 123.606 168.585 125.437 168.165C128.048 167.924 134.472 170.449 136.963 169.367C145.698 165.58 148.67 167.954 149.871 159.239C150.291 156.204 147.049 154.371 145.038 153.77C143.027 153.169 145.038 152.358 145.038 150.735C145.038 149.112 146.239 146.077 148.46 147.7C150.681 149.323 150.291 147.7 153.323 146.498C156.354 145.296 154.944 146.498 157.765 147.309C164.789 152.117 156.895 155.573 172.323 156.024C175.985 156.415 173.944 155.213 176.376 155.213C179.527 154.822 176.766 159.871 179.407 162.906C181.118 167.594 174.425 162.665 177.997 170.388C182.019 169.367 188.563 165.28 186.281 158.248C185.021 151.907 187.872 144.635 182.859 139.436C179.768 135.86 178.357 131.983 174.575 134.567C172.984 136.34 175.775 139.526 171.333 139.436C168.271 139.586 173.044 135.168 167.911 132.764C166.23 130.511 169.472 125.041 168.121 121.014C167.971 114.403 181.088 110.977 177.817 103.825C177.426 101 177.606 101.812 177.216 98.7764C176.796 95.7412 179.227 97.5443 178.417 96.1319C177.606 94.6895 177.997 95.3205 177.396 93.4874C176.946 92.1351 177.997 95.2905 180.638 94.8998C183.28 94.5092 182.259 96.1319 182.859 99.5577C185.471 105.658 184.48 106.98 187.092 112.299C190.424 114.253 189.403 121.525 194.356 119.782C196.787 119.572 195.977 119.572 196.577 122.006C197.178 124.44 199.609 124.019 199.999 122.006C200.059 118.55 197.027 121.435 197.988 114.734C197.658 110.737 190.154 110.827 194.146 105.838C194.956 103.224 189.493 98.3557 188.082 97.5443C183.49 91.7444 187.452 83.9011 185.861 75.9075C185.261 70.6485 180.428 74.9158 180.818 72.2713C181.238 69.6268 180.008 70.6485 178.597 69.2361C177.186 67.8237 179.197 68.2444 179.197 65.5398C179.197 62.8352 180.398 65.3595 182.619 64.1575C185.651 62.8352 183.91 55.7732 179.588 57.8768C176.766 58.2674 178.777 60.7016 177.576 62.3243C176.376 63.9471 173.944 64.1575 173.944 64.1575Z"
              fill="#C4C4C4"/>
    </mask>
    <g mask="url(#mask0)">
        <path d="M83.6599 51.8378L86.0783 59.1384C84.5901 58.8776 83.1391 58.8031 81.7625 58.9149C72.9819 59.4364 66.2477 66.0665 58.6578 70.1638C56.351 71.4302 53.9326 72.4359 51.3655 72.9946C49.1331 73.4789 46.7892 73.5533 44.2592 73.1436L41.8408 65.843C45.1521 66.4017 48.1286 66.0665 50.9562 65.1726C53.6722 64.3158 56.2394 62.9749 58.695 61.4478C65.9501 57.0152 72.6843 51.0928 81.5764 51.6515C82.2833 51.6515 82.9902 51.726 83.6599 51.8378Z"
              fill="white"/>
        <path d="M86.0789 59.1338L88.4973 66.4344C85.744 65.9874 83.2141 66.1364 80.7957 66.6951C71.7919 68.8555 64.7229 76.8638 55.9423 79.6947C54.0076 80.3279 51.9613 80.7004 49.8034 80.6631C48.7989 80.6631 47.7571 80.5886 46.6781 80.4024L44.2598 73.1018C46.7897 73.5488 49.1337 73.437 51.366 72.9528C53.9332 72.4313 56.3516 71.3884 58.6583 70.122C66.2483 66.0247 72.9825 59.3945 81.763 58.8731C83.1769 58.8358 84.5907 58.8731 86.0789 59.1338Z"
              fill="#38B7FF"/>
        <path d="M88.535 66.4336L90.9533 73.7342C85.7073 72.8403 81.2054 74.2557 76.964 76.4533C67.9974 81.1838 60.2959 89.6019 49.1342 87.7022L46.7158 80.4016C47.7948 80.5879 48.7993 80.6624 49.8411 80.6624C51.999 80.6624 54.0453 80.2899 55.98 79.6939C64.7606 76.9003 71.8296 68.8547 80.8334 66.6943C83.2518 66.1356 85.7817 65.9866 88.535 66.4336Z"
              fill="#CC7CCE"/>
        <path d="M83.6599 51.835L90.9522 73.6995C85.7062 72.8056 81.2043 74.221 76.9629 76.4186C78.8976 73.5133 80.0882 70.0865 80.8323 66.6596C81.3904 63.9778 81.688 61.2959 81.7624 58.8748C81.874 55.895 81.7624 53.3249 81.6136 51.5742C82.2833 51.6487 82.9902 51.7232 83.6599 51.835Z"
              fill="url(#paint0_linear)"/>
        <path opacity="0.31"
              d="M50.9923 65.1694C51.29 67.1808 51.5504 69.9744 51.4016 72.9915C51.2528 75.5244 50.8435 78.2062 49.839 80.7018C49.3553 81.931 48.76 83.0857 47.9787 84.1659L41.877 65.8399C45.1883 66.3986 48.1647 66.0261 50.9923 65.1694Z"
              fill="white"/>
        <path d="M40.0826 60.0506L38.9551 60.4336L55.4518 109.112L56.5793 108.729L40.0826 60.0506Z" fill="#31B4D0"/>
        <path d="M40.5763 59.6573C40.7623 60.2905 40.3903 60.9237 39.7578 61.11C39.1253 61.2962 38.4928 60.9237 38.3068 60.2905C38.1207 59.6573 38.4928 59.0241 39.1253 58.8378C39.7578 58.6888 40.3903 59.0241 40.5763 59.6573Z"
              fill="#31B4D0"/>
        <path d="M118.485 72.4341H92.999V117.728H118.485V72.4341Z" fill="url(#paint1_linear)"/>
        <path d="M118.485 72.4338L105.761 43.9019L92.999 72.4338H118.485Z" fill="#00DBE9"/>
        <path d="M112.347 72.4338L105.761 43.9019L99.1758 72.4338H112.347Z" fill="url(#paint2_linear)"/>
        <path d="M119.08 72.4341H92.4033V73.477H119.08V72.4341Z" fill="white"/>
        <path d="M105.91 26.4336H105.612V33.25H105.91V26.4336Z" fill="#89DCFF"/>
        <path d="M106.43 27.1035H105.054V27.327H106.43V27.1035Z" fill="#89DCFF"/>
        <path d="M106.095 28.8168C106.095 29.1893 105.947 29.45 105.761 29.45C105.575 29.45 105.426 29.152 105.426 28.8168C105.426 28.4443 105.575 28.1836 105.761 28.1836C105.947 28.1836 106.095 28.4816 106.095 28.8168Z"
              fill="#89DCFF"/>
        <path d="M106.095 31.3876C106.095 31.7601 105.947 32.0208 105.761 32.0208C105.575 32.0208 105.426 31.7228 105.426 31.3876C105.426 31.0151 105.575 30.7544 105.761 30.7544C105.947 30.7544 106.095 31.0524 106.095 31.3876Z"
              fill="#89DCFF"/>
        <path d="M110.82 39.7308C110.82 42.5244 108.551 44.2005 105.76 44.2005C105.314 44.2005 104.83 44.1633 104.421 44.0516C102.263 43.6046 100.7 42.0402 100.7 39.7308C100.7 39.6563 100.7 39.619 100.7 39.5445C100.7 39.5073 100.7 39.4701 100.7 39.4328C100.849 38.0546 102.188 36.9372 103.491 35.5963C105.128 33.8829 105.723 32.7654 105.76 32.6909C105.797 32.7654 106.43 33.8829 108.03 35.5963C108.253 35.857 108.476 36.0805 108.737 36.304C109.778 37.3469 110.671 38.2781 110.82 39.4328C110.82 39.4701 110.82 39.5073 110.82 39.5445C110.82 39.619 110.82 39.6563 110.82 39.7308Z"
              fill="#89B1FF"/>
        <path d="M109.556 39.7308C109.556 42.5244 107.844 44.2005 105.724 44.2005C103.603 44.2005 101.892 42.5244 101.892 39.7308C101.892 39.6563 101.892 39.619 101.892 39.5445C101.892 39.5073 101.892 39.4701 101.892 39.4328C102.003 38.0546 103.045 36.9372 103.975 35.5963C105.203 33.8829 105.649 32.7654 105.687 32.6909C105.724 32.7654 106.17 33.8829 107.398 35.5963C108.365 36.9372 109.37 38.0546 109.482 39.4328C109.482 39.4701 109.482 39.5073 109.482 39.5445C109.556 39.619 109.556 39.6563 109.556 39.7308Z"
              fill="white"/>
        <path d="M108.253 39.7308C108.253 42.5244 107.137 44.2005 105.723 44.2005C104.347 44.2005 103.193 42.5244 103.193 39.7308C103.193 39.6563 103.193 39.619 103.193 39.5445C103.193 39.5073 103.193 39.4701 103.193 39.4328C103.268 38.0546 103.937 36.9372 104.57 35.5963C105.389 33.8829 105.686 32.7654 105.686 32.6909C105.686 32.7654 106.021 33.8829 106.802 35.5963C107.435 36.9372 108.105 38.0546 108.179 39.4328C108.179 39.4701 108.179 39.5073 108.179 39.5445C108.253 39.619 108.253 39.6563 108.253 39.7308Z"
              fill="#89B1FF"/>
        <path d="M106.615 39.7308C106.615 42.5244 106.243 44.2005 105.759 44.2005C105.275 44.2005 104.903 42.5244 104.903 39.7308C104.903 39.6563 104.903 39.619 104.903 39.5445C104.903 39.5073 104.903 39.4701 104.903 39.4328C104.941 38.0546 105.164 36.9372 105.387 35.5963C105.647 33.8829 105.759 32.7654 105.759 32.6909C105.759 32.7654 105.871 33.8829 106.131 35.5963C106.354 36.9372 106.578 38.0546 106.615 39.4328C106.615 39.4701 106.615 39.5073 106.615 39.5445C106.615 39.619 106.615 39.6563 106.615 39.7308Z"
              fill="white"/>
        <path d="M110.82 39.7305C110.82 42.5241 108.551 44.2003 105.76 44.2003C105.314 44.2003 104.83 44.163 104.421 44.0513C107.025 42.3006 108.216 38.6503 108.737 36.3037C109.779 37.3467 110.671 38.2779 110.82 39.4325C110.82 39.4698 110.82 39.507 110.82 39.5443C110.82 39.6188 110.82 39.656 110.82 39.7305Z"
              fill="url(#paint3_linear)"/>
        <path d="M109.852 42.4858H101.667V52.729H109.852V42.4858Z" fill="url(#paint4_linear)"/>
        <path d="M109.852 42.4858H101.667V43.119H109.852V42.4858Z" fill="white"/>
        <path d="M109.852 52.0952H101.667V52.7284H109.852V52.0952Z" fill="white"/>
        <path d="M64.8331 70.8345H64.0518V89.1977H64.8331V70.8345Z" fill="#89DCFF"/>
        <path d="M66.3222 72.6611H62.5645V73.2943H66.3222V72.6611Z" fill="#89DCFF"/>
        <path d="M65.3542 77.3151C65.3542 78.2835 64.945 79.0658 64.4613 79.0658C63.9776 79.0658 63.5684 78.2835 63.5684 77.3151C63.5684 76.3467 63.9776 75.5645 64.4613 75.5645C64.945 75.5645 65.3542 76.3467 65.3542 77.3151Z"
              fill="#89DCFF"/>
        <path d="M65.3542 84.2433C65.3542 85.2118 64.945 85.994 64.4613 85.994C63.9776 85.994 63.5684 85.2118 63.5684 84.2433C63.5684 83.2749 63.9776 82.4927 64.4613 82.4927C64.945 82.4927 65.3542 83.2749 65.3542 84.2433Z"
              fill="#89DCFF"/>
        <path d="M77.9683 106.74C77.9683 114.301 71.8294 118.808 64.2766 118.808C56.7239 118.808 50.585 114.301 50.585 106.74C50.585 106.591 50.585 106.405 50.585 106.256C50.585 106.181 50.585 106.069 50.6222 105.995C51.0686 102.307 54.6776 99.2902 58.1377 95.6399C62.528 90.9839 64.165 88.0041 64.2766 87.8179C64.3882 88.0041 66.0625 90.9839 70.4156 95.6399C73.8385 99.2902 77.4846 102.27 77.8939 105.995C77.8939 106.069 77.9311 106.181 77.9311 106.256C77.9683 106.405 77.9683 106.591 77.9683 106.74Z"
              fill="url(#paint5_linear)"/>
        <path d="M74.5816 106.74C74.5816 114.301 69.9681 118.808 64.2757 118.808C58.5832 118.808 53.9697 114.301 53.9697 106.74C53.9697 106.591 53.9697 106.405 53.9697 106.256C53.9697 106.181 53.9697 106.069 54.0069 105.995C54.3418 102.307 57.0578 99.2902 59.6622 95.6399C62.9735 90.9839 64.2013 88.0041 64.2757 87.8179C64.3501 88.0041 65.6151 90.9839 68.8892 95.6399C71.4564 99.2902 74.2096 102.27 74.5444 105.995C74.5444 106.069 74.5444 106.181 74.5816 106.256C74.5816 106.405 74.5816 106.591 74.5816 106.74Z"
              fill="white"/>
        <path d="M71.0487 106.74C71.0487 114.301 67.9978 118.808 64.2773 118.808C60.5195 118.808 57.5059 114.301 57.5059 106.74C57.5059 106.591 57.5059 106.405 57.5059 106.256C57.5059 106.181 57.5059 106.069 57.5059 105.995C57.7291 102.307 59.515 99.2902 61.2264 95.6399C63.3843 90.9839 64.2029 88.0041 64.2773 87.8179C64.3145 88.0041 65.1702 90.9839 67.3281 95.6399C69.0396 99.2902 70.8255 102.27 71.0487 105.995C71.0487 106.069 71.0487 106.181 71.0487 106.256C71.0487 106.405 71.0487 106.591 71.0487 106.74Z"
              fill="url(#paint6_linear)"/>
        <path d="M66.6205 106.74C66.6205 114.301 65.5788 118.808 64.2766 118.808C62.9744 118.808 61.9326 114.301 61.9326 106.74C61.9326 106.591 61.9326 106.405 61.9326 106.256C61.9326 106.181 61.9326 106.069 61.9326 105.995C62.007 102.307 62.6395 99.2902 63.2348 95.6399C63.9789 90.9839 64.2766 88.0041 64.2766 87.8179C64.2766 88.0041 64.5742 90.9839 65.3183 95.6399C65.9136 99.2902 66.5461 102.27 66.6205 105.995C66.6205 106.069 66.6205 106.181 66.6205 106.256C66.6205 106.405 66.6205 106.591 66.6205 106.74Z"
              fill="white"/>
        <path opacity="0.31"
              d="M55.049 100.445C58.0254 97.7263 59.3648 96.3481 61.0019 95.2307C62.8249 94.0015 59.6625 99.1417 57.0953 102.271C55.4954 104.245 54.5281 108.752 53.3747 108.118C51.254 106.964 52.0725 103.164 55.049 100.445Z"
              fill="url(#paint7_linear)"/>
        <path d="M77.9688 106.739C77.9688 114.301 71.8299 118.808 64.2772 118.808C60.2589 118.808 56.65 117.541 54.1572 115.232C54.3805 115.232 54.6037 115.232 54.8269 115.232C66.063 115.083 70.9742 104.169 72.8717 98.1724C75.4016 100.78 77.5968 103.201 77.9316 106.032C77.9316 106.106 77.9688 106.218 77.9688 106.292C77.9688 106.404 77.9688 106.553 77.9688 106.739Z"
              fill="url(#paint8_linear)"/>
        <path d="M75.4387 113.855H53.0781V136.241H75.4387V113.855Z" fill="url(#paint9_linear)"/>
        <path d="M75.4391 113.855V136.241H57.4688C66.5097 129.983 69.4862 116.351 69.9698 113.855H75.4391Z"
              fill="url(#paint10_linear)"/>
        <path d="M59.5883 131.733H54.1562V124.991C54.1562 123.502 55.3468 122.31 56.8351 122.31H56.9095C58.3977 122.31 59.5883 123.502 59.5883 124.991V131.733Z"
              fill="url(#paint11_linear)"/>
        <path d="M66.9906 131.734H61.5586V124.992C61.5586 123.502 62.7492 122.31 64.2374 122.31H64.3118C65.8 122.31 66.9906 123.502 66.9906 124.992V131.734V131.734Z"
              fill="url(#paint12_linear)"/>
        <path d="M74.3588 131.734H68.9268V124.992C68.9268 123.502 70.1173 122.31 71.6056 122.31H71.68C73.1682 122.31 74.3588 123.502 74.3588 124.992V131.734V131.734Z"
              fill="url(#paint13_linear)"/>
        <path d="M75.4387 113.855H53.0781V115.568H75.4387V113.855Z" fill="white"/>
        <path d="M76.4428 136.947H52.1104V173.078H76.4428V136.947Z" fill="#89B1FF"/>
        <path d="M79.1964 136.166H49.3203V142.647H79.1964V136.166Z" fill="white"/>
        <path d="M76.4428 153.337L71.5689 170.844L64.2766 144.696L56.9843 170.844L52.1104 153.375V157.211L56.4262 172.744L56.3518 173.042H57.6912L64.2766 149.464L70.862 173.042H72.2014L72.127 172.744L76.48 157.137V153.337H76.4428Z"
              fill="white"/>
        <path d="M147.8 70.8345H147.019V89.1977H147.8V70.8345Z" fill="#89DCFF"/>
        <path d="M149.289 72.6611H145.531V73.2943H149.289V72.6611Z" fill="#89DCFF"/>
        <path d="M148.321 77.3151C148.321 78.2836 147.912 79.0658 147.428 79.0658C146.944 79.0658 146.535 78.2836 146.535 77.3151C146.535 76.3467 146.944 75.5645 147.428 75.5645C147.912 75.5645 148.321 76.3467 148.321 77.3151Z"
              fill="#89DCFF"/>
        <path d="M148.321 84.2433C148.321 85.2118 147.912 85.994 147.428 85.994C146.944 85.994 146.535 85.2118 146.535 84.2433C146.535 83.2749 146.944 82.4927 147.428 82.4927C147.912 82.5299 148.321 83.2749 148.321 84.2433Z"
              fill="#89DCFF"/>
        <path d="M160.936 106.74C160.936 114.301 154.797 118.808 147.244 118.808C143.226 118.808 139.617 117.542 137.124 115.232C134.892 113.184 133.553 110.278 133.553 106.74C133.553 106.591 133.553 106.405 133.553 106.256C133.553 106.181 133.553 106.069 133.59 105.995C134.036 102.307 137.645 99.2902 141.105 95.6399C145.496 90.9839 147.133 88.0041 147.244 87.8179C147.356 88.0041 149.03 90.9839 153.383 95.6399C154.202 96.4967 155.02 97.3161 155.802 98.1356C158.332 100.743 160.527 103.164 160.862 105.995C160.862 106.069 160.899 106.181 160.899 106.256C160.936 106.405 160.936 106.554 160.936 106.74Z"
              fill="url(#paint14_linear)"/>
        <path d="M157.549 106.74C157.549 114.301 152.936 118.808 147.243 118.808C141.551 118.808 136.938 114.301 136.938 106.74C136.938 106.591 136.938 106.405 136.938 106.256C136.938 106.181 136.938 106.069 136.975 105.995C137.31 102.307 140.026 99.2902 142.63 95.6399C145.941 90.9839 147.169 88.0041 147.243 87.8179C147.318 88.0041 148.583 90.9839 151.857 95.6399C154.424 99.2902 157.177 102.27 157.512 105.995C157.512 106.069 157.512 106.181 157.549 106.256C157.549 106.405 157.549 106.591 157.549 106.74Z"
              fill="white"/>
        <path d="M154.017 106.74C154.017 114.301 150.966 118.808 147.245 118.808C143.525 118.808 140.437 114.301 140.437 106.74C140.437 106.591 140.437 106.405 140.437 106.256C140.437 106.181 140.437 106.069 140.437 105.995C140.66 102.307 142.446 99.2902 144.157 95.6399C146.315 90.9839 147.134 88.0041 147.208 87.8179C147.245 88.0041 148.101 90.9839 150.259 95.6399C151.97 99.2902 153.756 102.27 153.979 105.995C153.979 106.069 153.979 106.181 153.979 106.256C154.017 106.405 154.017 106.591 154.017 106.74Z"
              fill="url(#paint15_linear)"/>
        <path d="M149.588 106.74C149.588 114.301 148.547 118.808 147.244 118.808C145.942 118.808 144.9 114.301 144.9 106.74C144.9 106.591 144.9 106.405 144.9 106.256C144.9 106.181 144.9 106.069 144.9 105.995C144.975 102.307 145.607 99.2902 146.203 95.6399C146.947 90.9839 147.244 88.0041 147.244 87.8179C147.244 88.0041 147.542 90.9839 148.286 95.6399C148.881 99.2902 149.514 102.27 149.588 105.995C149.588 106.069 149.588 106.181 149.588 106.256C149.588 106.405 149.588 106.591 149.588 106.74Z"
              fill="white"/>
        <path opacity="0.31"
              d="M137.831 100.445C140.808 97.7263 142.147 96.3481 143.784 95.2307C145.607 94.0015 142.445 99.1417 139.878 102.271C138.278 104.245 137.31 108.752 136.157 108.118C134.036 106.964 134.855 103.164 137.831 100.445Z"
              fill="url(#paint16_linear)"/>
        <path d="M160.937 106.739C160.937 114.301 154.798 118.808 147.245 118.808C143.227 118.808 139.618 117.541 137.125 115.232C137.348 115.232 137.571 115.232 137.795 115.232C149.031 115.083 153.942 104.169 155.839 98.1724C158.369 100.78 160.565 103.201 160.899 106.032C160.899 106.106 160.937 106.218 160.937 106.292C160.937 106.404 160.937 106.553 160.937 106.739Z"
              fill="url(#paint17_linear)"/>
        <path d="M158.406 113.855H136.046V136.241H158.406V113.855Z" fill="url(#paint18_linear)"/>
        <path d="M142.556 131.733H137.124V124.991C137.124 123.501 138.315 122.309 139.803 122.309H139.877C141.365 122.309 142.556 123.501 142.556 124.991V131.733V131.733Z"
              fill="url(#paint19_linear)"/>
        <path d="M149.96 131.733H144.528V124.991C144.528 123.501 145.719 122.31 147.207 122.31H147.282C148.77 122.31 149.96 123.501 149.96 124.991V131.733V131.733Z"
              fill="url(#paint20_linear)"/>
        <path d="M157.328 131.733H151.896V124.991C151.896 123.501 153.086 122.31 154.574 122.31H154.649C156.137 122.31 157.328 123.501 157.328 124.991V131.733V131.733Z"
              fill="url(#paint21_linear)"/>
        <path d="M158.406 113.855V136.241H140.436C149.476 129.983 152.453 116.351 152.937 113.855H158.406Z"
              fill="url(#paint22_linear)"/>
        <path d="M158.406 113.855H136.046V115.568H158.406V113.855Z" fill="white"/>
        <path d="M159.411 136.947H135.078V173.077H159.411V136.947Z" fill="#89B1FF"/>
        <path d="M159.41 141.94V173.042H141.067C151.411 164.14 154.015 140.674 154.015 140.674C154.015 140.674 156.731 141.27 159.41 141.94Z"
              fill="url(#paint23_linear)"/>
        <path d="M162.166 136.166H132.29V142.647H162.166V136.166Z" fill="white"/>
        <path d="M159.411 153.337L154.537 170.844L147.244 144.696L139.952 170.844L135.078 153.375V157.211L139.431 172.744L139.357 173.042H140.696L147.282 149.464L153.867 173.042H155.206L155.132 172.744L159.485 157.137V153.337H159.411Z"
              fill="white"/>
        <path d="M76.442 141.939V173.041H58.0996C68.4428 164.139 71.0472 140.673 71.0472 140.673C71.0472 140.673 73.7632 141.306 76.442 141.939Z"
              fill="url(#paint24_linear)"/>
        <path d="M106.022 59.9956H105.464V73.1069H106.022V59.9956Z" fill="#89DCFF"/>
        <path d="M107.064 61.2998H104.385V61.7468H107.064V61.2998Z" fill="#89DCFF"/>
        <path d="M106.393 64.614C106.393 65.2844 106.095 65.8431 105.76 65.8431C105.426 65.8431 105.128 65.2844 105.128 64.614C105.128 63.9435 105.426 63.3848 105.76 63.3848C106.095 63.3848 106.393 63.9435 106.393 64.614Z"
              fill="#89DCFF"/>
        <path d="M106.393 69.5681C106.393 70.2385 106.095 70.7972 105.76 70.7972C105.426 70.7972 105.128 70.2385 105.128 69.5681C105.128 68.8976 105.426 68.3389 105.76 68.3389C106.095 68.3389 106.393 68.8976 106.393 69.5681Z"
              fill="#89DCFF"/>
        <path d="M115.546 85.6596C115.546 91.0605 111.155 94.3011 105.761 94.3011C103.156 94.3011 100.775 93.5561 98.9892 92.1407C97.129 90.6508 95.9756 88.4532 95.9756 85.6596C95.9756 85.5478 95.9756 85.4361 95.9756 85.3243C95.9756 85.2498 95.9756 85.2126 96.0128 85.1381C96.3104 82.4935 98.9148 80.3703 101.37 77.763C104.496 74.4479 105.686 72.2875 105.761 72.1758C105.835 72.2875 107.026 74.4479 110.151 77.763C110.263 77.8747 110.374 77.9865 110.486 78.0982C112.83 80.5566 115.211 82.6052 115.509 85.1381C115.509 85.2126 115.509 85.2498 115.546 85.3243C115.509 85.4361 115.546 85.5478 115.546 85.6596Z"
              fill="#89B1FF"/>
        <path d="M113.128 85.6596C113.128 91.0605 109.817 94.3011 105.761 94.3011C101.706 94.3011 98.3945 91.0605 98.3945 85.6596C98.3945 85.5478 98.3945 85.4361 98.3945 85.3243C98.3945 85.2498 98.3945 85.1753 98.3945 85.1381C98.6178 82.4935 100.59 80.3703 102.45 77.763C104.794 74.4479 105.687 72.2875 105.761 72.1758C105.798 72.3248 106.729 74.4479 109.073 77.763C110.933 80.3703 112.868 82.4935 113.091 85.1381C113.091 85.2126 113.091 85.2871 113.091 85.3243C113.128 85.4361 113.128 85.5478 113.128 85.6596Z"
              fill="white"/>
        <path d="M110.597 85.6596C110.597 91.0605 108.439 94.3011 105.761 94.3011C103.082 94.3011 100.924 91.0605 100.924 85.6596C100.924 85.5478 100.924 85.4361 100.924 85.3243C100.924 85.2498 100.924 85.1753 100.924 85.1381C101.073 82.4935 102.375 80.3703 103.565 77.763C105.128 74.4479 105.686 72.2875 105.723 72.1758C105.761 72.3248 106.356 74.4479 107.881 77.763C109.109 80.3703 110.374 82.4935 110.523 85.1381C110.523 85.2126 110.523 85.2871 110.523 85.3243C110.597 85.4361 110.597 85.5478 110.597 85.6596Z"
              fill="#89B1FF"/>
        <path d="M107.435 85.6596C107.435 91.0605 106.691 94.3011 105.761 94.3011C104.831 94.3011 104.087 91.0605 104.087 85.6596C104.087 85.5478 104.087 85.4361 104.087 85.3243C104.087 85.2498 104.087 85.1753 104.087 85.1381C104.124 82.4935 104.571 80.3703 105.017 77.763C105.538 74.4479 105.761 72.2875 105.761 72.1758C105.761 72.3248 105.984 74.4479 106.505 77.763C106.915 80.3703 107.361 82.4935 107.435 85.1381C107.435 85.2126 107.435 85.2871 107.435 85.3243C107.435 85.4361 107.435 85.5478 107.435 85.6596Z"
              fill="white"/>
        <path d="M115.546 85.6595C115.546 91.0604 111.155 94.301 105.761 94.301C103.156 94.301 100.775 93.556 98.9893 92.1406C107.807 91.1349 110.002 83.2756 110.486 78.0981C112.83 80.5565 115.211 82.6051 115.509 85.138C115.509 85.2125 115.509 85.2498 115.546 85.3242C115.509 85.436 115.546 85.5477 115.546 85.6595Z"
              fill="url(#paint25_linear)"/>
        <path d="M113.648 91.0215H97.8359V106.852H113.648V91.0215Z" fill="white"/>
        <path d="M102.487 102.458H98.7295V97.8016C98.7295 96.7587 99.548 95.9392 100.59 95.9392H100.627C101.669 95.9392 102.487 96.7587 102.487 97.8016V102.458Z"
              fill="#00DBE9"/>
        <path d="M107.585 102.456H103.827V97.7999C103.827 96.757 104.646 95.9375 105.687 95.9375H105.725C106.766 95.9375 107.585 96.757 107.585 97.7999V102.456Z"
              fill="#00DBE9"/>
        <path d="M112.681 102.456H108.923V97.7999C108.923 96.757 109.741 95.9375 110.783 95.9375H110.82C111.862 95.9375 112.681 96.757 112.681 97.7999V102.456Z"
              fill="#00DBE9"/>
        <path d="M113.648 91.0215H97.8359V92.2507H113.648V91.0215Z" fill="white"/>
        <path d="M121.016 117.728H90.4697L97.8364 106.852H113.649L118.82 114.488L121.016 117.728Z" fill="#89B1FF"/>
        <path d="M121.053 117.729H90.4697V139.371H121.053V117.729Z" fill="url(#paint26_linear)"/>
        <path d="M132.624 91.2817H132.252V99.8115H132.624V91.2817Z" fill="#89DCFF"/>
        <path d="M133.294 92.1392H131.545V92.4372H133.294V92.1392Z" fill="#89DCFF"/>
        <path d="M132.847 94.2999C132.847 94.7469 132.661 95.1194 132.438 95.1194C132.214 95.1194 132.028 94.7469 132.028 94.2999C132.028 93.853 132.214 93.4805 132.438 93.4805C132.661 93.4805 132.847 93.853 132.847 94.2999Z"
              fill="#89DCFF"/>
        <path d="M132.438 98.3206C132.664 98.3206 132.847 97.9537 132.847 97.5011C132.847 97.0485 132.664 96.6816 132.438 96.6816C132.212 96.6816 132.028 97.0485 132.028 97.5011C132.028 97.9537 132.212 98.3206 132.438 98.3206Z"
              fill="#89DCFF"/>
        <path d="M139.729 109.273C139.729 109.608 139.692 109.944 139.655 110.242C139.618 110.689 139.506 111.098 139.357 111.508C139.283 111.731 139.171 111.992 139.059 112.216C138.985 112.402 138.873 112.551 138.762 112.7C138.464 113.184 138.055 113.594 137.646 114.004C137.46 114.153 137.274 114.302 137.088 114.413C136.418 114.898 135.599 115.233 134.744 115.456C134.334 115.568 133.925 115.642 133.479 115.68C133.144 115.717 132.809 115.717 132.437 115.717C132.102 115.717 131.73 115.717 131.395 115.68C130.986 115.642 130.539 115.568 130.167 115.456C129.758 115.345 129.312 115.196 128.94 115.047C128.53 114.86 128.158 114.674 127.823 114.451C127.637 114.302 127.414 114.19 127.228 114.041C126.782 113.668 126.41 113.221 126.112 112.737C126 112.588 125.926 112.402 125.814 112.253C125.703 112.029 125.591 111.806 125.517 111.582C125.368 111.173 125.256 110.763 125.219 110.316C125.182 110.018 125.145 109.683 125.145 109.348C125.145 109.273 125.145 109.161 125.145 109.087C125.145 109.05 125.145 108.975 125.145 108.938C125.145 108.826 125.182 108.752 125.182 108.64C125.256 108.305 125.368 108.007 125.517 107.671C125.777 107.113 126.149 106.591 126.596 106.07C126.707 105.921 126.819 105.809 126.968 105.66C127.116 105.474 127.265 105.325 127.451 105.176C127.935 104.654 128.456 104.17 128.977 103.611C129.014 103.574 129.088 103.5 129.126 103.425C129.423 103.09 129.684 102.829 129.944 102.531C130.056 102.382 130.204 102.27 130.279 102.122C130.763 101.563 131.172 101.041 131.469 100.632C131.581 100.483 131.693 100.334 131.767 100.185C132.176 99.6259 132.362 99.2907 132.362 99.2534C132.4 99.2907 132.548 99.6259 132.958 100.185C133.032 100.334 133.144 100.483 133.255 100.632C133.553 101.041 133.962 101.563 134.446 102.122C134.558 102.27 134.669 102.382 134.781 102.531C135.041 102.829 135.302 103.127 135.599 103.425C135.637 103.5 135.711 103.537 135.748 103.611C136.232 104.133 136.715 104.617 137.162 105.064C137.199 105.101 137.236 105.139 137.274 105.176C137.422 105.325 137.608 105.511 137.72 105.66C137.832 105.809 137.98 105.921 138.092 106.07C138.539 106.591 138.911 107.113 139.171 107.671C139.32 108.007 139.431 108.305 139.506 108.64C139.543 108.752 139.543 108.826 139.543 108.938C139.543 108.975 139.543 109.05 139.543 109.087C139.729 109.124 139.729 109.199 139.729 109.273Z"
              fill="#89B1FF"/>
        <path d="M139.654 110.242C139.022 110.093 138.389 109.87 137.794 109.683C138.315 109.274 138.799 108.864 139.245 108.454C139.394 108.491 139.543 108.566 139.692 108.603C139.617 108.268 139.506 107.97 139.357 107.635C139.282 107.709 139.208 107.784 139.134 107.858C138.464 107.597 137.831 107.337 137.236 107.039C137.608 106.703 137.943 106.368 138.278 106.033C138.166 105.884 138.055 105.772 137.906 105.623C137.534 105.996 137.124 106.368 136.715 106.741C136.12 106.443 135.525 106.107 134.967 105.772C135.45 105.363 135.934 104.916 136.38 104.506C136.715 104.729 137.087 104.953 137.459 105.139C136.976 104.618 136.455 104.133 135.934 103.575C135.525 103.314 135.115 103.016 134.743 102.718L134.967 102.494C134.855 102.345 134.743 102.234 134.594 102.085C134.52 102.196 134.408 102.271 134.297 102.383C133.776 101.973 133.329 101.563 132.883 101.154C133.069 100.967 133.255 100.781 133.404 100.632C133.292 100.483 133.181 100.334 133.069 100.185C132.883 100.371 132.66 100.595 132.474 100.781C132.288 100.595 132.064 100.371 131.878 100.185C131.804 100.334 131.692 100.446 131.544 100.632C131.73 100.818 131.878 101.005 132.064 101.154C131.618 101.563 131.134 101.973 130.651 102.383L130.353 102.085C130.241 102.196 130.13 102.345 129.981 102.494L130.204 102.718C129.832 103.016 129.423 103.277 129.014 103.575C128.493 104.133 127.972 104.655 127.488 105.139C127.86 104.953 128.195 104.729 128.567 104.506C129.014 104.953 129.497 105.363 129.981 105.772C129.423 106.107 128.828 106.443 128.232 106.741C127.823 106.368 127.414 105.996 127.042 105.623C126.93 105.772 126.781 105.884 126.67 106.033C127.005 106.368 127.339 106.703 127.711 107.039C127.116 107.337 126.446 107.597 125.814 107.858C125.74 107.784 125.665 107.709 125.591 107.635C125.442 107.97 125.33 108.268 125.256 108.603C125.405 108.566 125.554 108.491 125.702 108.454C126.149 108.864 126.632 109.274 127.153 109.683C126.558 109.907 125.926 110.093 125.293 110.242C125.33 110.689 125.442 111.099 125.591 111.508C125.851 111.695 126.112 111.918 126.372 112.104C126.223 112.142 126.037 112.179 125.888 112.216C125.963 112.402 126.074 112.551 126.186 112.7C126.446 112.663 126.707 112.589 126.967 112.514C127.563 112.924 128.158 113.296 128.79 113.632C128.307 113.743 127.823 113.855 127.339 113.967C127.525 114.116 127.711 114.265 127.897 114.414C128.456 114.302 128.976 114.19 129.497 114.041C130.204 114.414 130.948 114.749 131.73 115.047C131.246 115.196 130.762 115.345 130.279 115.457C130.688 115.569 131.097 115.643 131.506 115.68C131.841 115.569 132.176 115.457 132.548 115.345C132.883 115.457 133.218 115.569 133.59 115.68C134.036 115.643 134.446 115.569 134.855 115.457C134.334 115.345 133.85 115.196 133.404 115.047C134.185 114.749 134.929 114.414 135.636 114.041C136.157 114.19 136.678 114.302 137.236 114.414C137.422 114.265 137.645 114.153 137.794 113.967C137.31 113.855 136.79 113.781 136.343 113.632C136.976 113.259 137.608 112.887 138.166 112.514C138.427 112.589 138.687 112.626 138.948 112.7C139.059 112.551 139.134 112.365 139.245 112.216C139.096 112.179 138.91 112.142 138.762 112.104C139.022 111.918 139.282 111.695 139.543 111.508C139.468 111.099 139.58 110.689 139.654 110.242ZM136.715 107.411C137.31 107.709 137.98 107.97 138.65 108.231C138.203 108.64 137.683 109.05 137.199 109.46C136.529 109.199 135.859 108.901 135.227 108.603C135.748 108.231 136.232 107.821 136.715 107.411ZM134.185 108.678C133.627 109.05 133.032 109.423 132.437 109.758C131.841 109.423 131.246 109.05 130.688 108.678C131.283 108.342 131.878 108.007 132.437 107.635C132.995 108.007 133.553 108.342 134.185 108.678ZM130.837 105.81C131.395 105.437 131.916 105.065 132.399 104.655C132.92 105.065 133.441 105.437 133.999 105.81C133.478 106.219 132.957 106.592 132.399 106.964C131.878 106.629 131.358 106.219 130.837 105.81ZM131.878 110.056C131.246 110.391 130.576 110.689 129.869 110.987C129.274 110.615 128.716 110.242 128.158 109.832C128.828 109.572 129.497 109.274 130.13 108.938C130.688 109.348 131.246 109.721 131.878 110.056ZM132.437 110.391C133.069 110.726 133.739 111.061 134.408 111.359C133.776 111.732 133.143 112.067 132.437 112.365C131.767 112.067 131.097 111.732 130.465 111.359C131.134 111.061 131.804 110.726 132.437 110.391ZM132.995 110.056C133.59 109.721 134.185 109.348 134.743 108.938C135.376 109.274 136.008 109.534 136.715 109.832C136.157 110.242 135.599 110.615 135.004 110.987C134.297 110.726 133.627 110.391 132.995 110.056ZM136.232 107.113C135.748 107.523 135.227 107.933 134.669 108.305C134.036 107.97 133.478 107.635 132.92 107.262C133.478 106.89 133.999 106.48 134.483 106.07C135.041 106.48 135.599 106.815 136.232 107.113ZM134.297 103.053C134.781 103.426 135.301 103.798 135.859 104.171C135.413 104.618 134.929 105.027 134.446 105.437C133.888 105.065 133.367 104.692 132.846 104.32C133.367 103.91 133.85 103.5 134.297 103.053ZM132.437 101.489C132.883 101.898 133.367 102.345 133.888 102.755C133.441 103.202 132.957 103.612 132.437 104.022C131.916 103.612 131.469 103.202 131.023 102.755C131.506 102.308 131.99 101.898 132.437 101.489ZM129.014 104.208C129.572 103.835 130.093 103.463 130.576 103.09C131.023 103.537 131.506 103.947 131.99 104.357C131.469 104.729 130.948 105.139 130.39 105.474C129.907 105.065 129.423 104.618 129.014 104.208ZM130.39 106.145C130.874 106.554 131.395 106.927 131.953 107.337C131.395 107.709 130.8 108.044 130.204 108.38C129.646 107.97 129.162 107.597 128.642 107.188C129.237 106.815 129.832 106.48 130.39 106.145ZM126.186 108.231C126.856 107.97 127.488 107.709 128.121 107.411C128.604 107.821 129.125 108.231 129.646 108.64C129.014 108.938 128.344 109.236 127.674 109.497C127.153 109.05 126.67 108.64 126.186 108.231ZM125.405 110.726C126.149 110.54 126.893 110.317 127.6 110.056C128.121 110.466 128.679 110.838 129.274 111.21C128.567 111.471 127.786 111.732 127.005 111.918C126.409 111.546 125.888 111.173 125.405 110.726ZM127.563 112.328C128.344 112.104 129.088 111.844 129.795 111.583C130.427 111.955 131.06 112.291 131.73 112.626C130.986 112.924 130.241 113.222 129.423 113.445C128.79 113.11 128.158 112.738 127.563 112.328ZM132.437 114.786C131.655 114.488 130.874 114.19 130.13 113.818C130.911 113.557 131.692 113.259 132.437 112.961C133.181 113.296 133.925 113.557 134.743 113.818C133.999 114.153 133.218 114.488 132.437 114.786ZM135.376 113.445C134.557 113.222 133.813 112.924 133.069 112.626C133.739 112.291 134.408 111.955 135.004 111.583C135.711 111.844 136.455 112.104 137.273 112.328C136.678 112.738 136.045 113.11 135.376 113.445ZM137.869 111.955C137.087 111.769 136.306 111.508 135.599 111.248C136.194 110.875 136.752 110.503 137.273 110.093C137.98 110.354 138.687 110.577 139.468 110.764C138.948 111.173 138.427 111.546 137.869 111.955Z"
              fill="white"/>
        <path d="M139.73 109.272C139.73 109.607 139.693 109.942 139.656 110.24C139.618 110.687 139.507 111.097 139.358 111.506C139.284 111.73 139.172 111.991 139.06 112.214C138.986 112.4 138.874 112.549 138.763 112.698C138.465 113.183 138.056 113.592 137.647 114.002C137.461 114.151 137.274 114.3 137.088 114.412C136.419 114.896 135.6 115.231 134.745 115.455C134.335 115.566 133.926 115.641 133.48 115.678C133.145 115.715 132.81 115.715 132.438 115.715C132.103 115.715 131.731 115.715 131.396 115.678C130.987 115.641 130.54 115.566 130.168 115.455C129.759 115.343 129.312 115.194 128.94 115.045C131.247 114.449 133.517 113.369 134.856 111.618C137.051 108.713 137.2 106.627 137.312 105.062C137.349 105.1 137.386 105.137 137.423 105.174C137.572 105.323 137.758 105.509 137.87 105.658C137.981 105.807 138.13 105.919 138.242 106.068C138.688 106.59 139.06 107.111 139.321 107.67C139.47 108.005 139.581 108.303 139.656 108.638C139.693 108.75 139.693 108.825 139.693 108.936C139.693 108.974 139.693 109.048 139.693 109.085C139.73 109.123 139.73 109.197 139.73 109.272Z"
              fill="url(#paint27_linear)"/>
        <path d="M138.316 113.295H126.521V125.103H138.316V113.295Z" fill="url(#paint28_linear)"/>
        <path d="M138.316 113.295H126.521V114.189H138.316V113.295Z" fill="white"/>
        <path d="M143.822 139.37H121.052L121.945 137.06L122.019 136.762L122.503 135.533L122.614 135.272L123.135 133.931L123.21 133.671L123.768 132.255L123.879 131.995L124.475 130.393L124.586 130.132L125.256 128.419L125.368 128.121L126.521 125.066H138.315L138.799 126.37L138.91 126.631L139.506 128.195L139.617 128.456L140.25 130.132L140.361 130.43L141.068 132.218L141.18 132.553L141.961 134.565L142.147 135.012L143.003 137.284L143.189 137.731L143.822 139.37Z"
              fill="#89B1FF"/>
        <path d="M138.91 126.63C138.352 126.816 137.98 127.114 137.571 127.412C136.938 127.897 136.269 128.418 134.967 128.418C133.664 128.418 132.995 127.897 132.362 127.412C131.73 126.928 131.134 126.444 129.907 126.444C128.679 126.444 128.083 126.891 127.451 127.412C126.893 127.859 126.298 128.306 125.256 128.418L125.367 128.12C126.223 128.008 126.744 127.599 127.265 127.189C127.897 126.705 128.567 126.183 129.869 126.183C131.172 126.183 131.841 126.705 132.474 127.189C133.106 127.673 133.702 128.157 134.929 128.157C136.157 128.157 136.752 127.71 137.385 127.189C137.794 126.891 138.203 126.556 138.799 126.369L138.91 126.63Z"
              fill="white"/>
        <path d="M139.617 128.455C138.65 128.53 138.129 128.939 137.571 129.386C136.938 129.871 136.269 130.392 134.966 130.392C133.664 130.392 132.995 129.871 132.362 129.386C131.73 128.902 131.134 128.418 129.907 128.418C128.679 128.418 128.083 128.865 127.451 129.386C126.818 129.871 126.149 130.392 124.847 130.392C124.735 130.392 124.623 130.392 124.512 130.392L124.623 130.131C124.698 130.131 124.772 130.131 124.847 130.131C126.074 130.131 126.67 129.684 127.302 129.163C127.935 128.679 128.604 128.157 129.907 128.157C131.209 128.157 131.878 128.679 132.511 129.163C133.143 129.647 133.739 130.131 134.966 130.131C136.194 130.131 136.79 129.684 137.422 129.163C137.98 128.753 138.538 128.306 139.506 128.194L139.617 128.455Z"
              fill="white"/>
        <path d="M140.361 130.43C140.25 130.43 140.138 130.43 140.026 130.43C138.799 130.43 138.203 130.877 137.571 131.398C136.938 131.882 136.269 132.404 134.966 132.404C133.664 132.404 132.994 131.882 132.362 131.398C131.729 130.914 131.134 130.43 129.906 130.43C128.679 130.43 128.083 130.877 127.451 131.398C126.818 131.882 126.149 132.404 124.846 132.404C124.437 132.404 124.102 132.367 123.805 132.292L123.916 132.031C124.177 132.106 124.474 132.143 124.846 132.143C126.074 132.143 126.67 131.696 127.302 131.175C127.935 130.69 128.604 130.169 129.906 130.169C131.209 130.169 131.878 130.69 132.511 131.175C133.143 131.659 133.739 132.143 134.966 132.143C136.194 132.143 136.789 131.696 137.422 131.175C138.054 130.69 138.724 130.169 140.026 130.169C140.101 130.169 140.175 130.169 140.25 130.169L140.361 130.43Z"
              fill="white"/>
        <path d="M141.181 132.553C140.846 132.441 140.512 132.367 140.028 132.367C138.8 132.367 138.205 132.814 137.572 133.335C136.94 133.819 136.27 134.341 134.968 134.341C133.666 134.341 132.996 133.819 132.364 133.335C131.731 132.851 131.136 132.367 129.908 132.367C128.68 132.367 128.085 132.814 127.452 133.335C126.82 133.819 126.15 134.341 124.848 134.341C124.104 134.341 123.583 134.192 123.174 133.968L123.285 133.708C123.695 133.931 124.178 134.08 124.885 134.08C126.113 134.08 126.708 133.633 127.341 133.112C127.973 132.627 128.643 132.106 129.945 132.106C131.247 132.106 131.917 132.627 132.55 133.112C133.182 133.596 133.777 134.08 135.005 134.08C136.233 134.08 136.828 133.633 137.461 133.112C138.093 132.627 138.763 132.106 140.065 132.106C140.474 132.106 140.772 132.143 141.07 132.218L141.181 132.553Z"
              fill="white"/>
        <path d="M142.148 135.011C141.627 134.638 141.032 134.34 140.065 134.34C138.837 134.34 138.242 134.787 137.609 135.309C136.977 135.793 136.307 136.314 135.005 136.314C133.703 136.314 133.033 135.793 132.4 135.309C131.768 134.825 131.173 134.34 129.945 134.34C128.717 134.34 128.122 134.787 127.489 135.309C126.857 135.793 126.187 136.314 124.885 136.314C123.769 136.314 123.136 135.942 122.578 135.57L122.69 135.309C123.248 135.719 123.843 136.054 124.885 136.054C126.113 136.054 126.708 135.607 127.34 135.085C127.973 134.601 128.643 134.08 129.945 134.08C131.247 134.08 131.917 134.601 132.549 135.085C133.182 135.57 133.777 136.054 135.005 136.054C136.233 136.054 136.828 135.607 137.46 135.085C138.093 134.601 138.763 134.08 140.065 134.08C140.921 134.08 141.516 134.303 141.999 134.601L142.148 135.011Z"
              fill="white"/>
        <path d="M143.19 137.731C142.929 137.582 142.706 137.396 142.483 137.247C141.85 136.762 141.255 136.278 140.027 136.278C138.799 136.278 138.204 136.725 137.572 137.247C136.939 137.731 136.269 138.252 134.967 138.252C133.665 138.252 132.995 137.731 132.363 137.247C131.73 136.762 131.135 136.278 129.907 136.278C128.679 136.278 128.084 136.725 127.452 137.247C126.819 137.731 126.149 138.252 124.847 138.252C123.545 138.252 122.875 137.731 122.243 137.247C122.168 137.172 122.057 137.098 121.982 137.06L122.094 136.8C122.206 136.874 122.317 136.949 122.429 137.06C123.061 137.545 123.657 138.029 124.884 138.029C126.112 138.029 126.708 137.582 127.34 137.06C127.973 136.576 128.642 136.055 129.944 136.055C131.247 136.055 131.916 136.576 132.549 137.06C133.181 137.545 133.777 138.029 135.004 138.029C136.232 138.029 136.827 137.582 137.46 137.06C138.092 136.576 138.762 136.055 140.064 136.055C141.367 136.055 142.036 136.576 142.669 137.06C142.78 137.135 142.892 137.247 143.004 137.321L143.19 137.731Z"
              fill="white"/>
        <path d="M143.822 139.37H121.052V173.191H143.822V139.37Z" fill="url(#paint29_linear)"/>
        <path d="M138.577 173.19H126.262V157.881C126.262 154.528 128.978 151.772 132.363 151.772H132.512C135.861 151.772 138.614 154.491 138.614 157.881V173.19H138.577Z"
              fill="url(#paint30_linear)"/>
        <path d="M143.823 139.37V173.191H124.104C134.856 166.263 139.916 146.931 141.553 139.37H143.823Z"
              fill="url(#paint31_linear)"/>
        <path d="M79.2715 91.2817H78.8994V99.8115H79.2715V91.2817Z" fill="#89DCFF"/>
        <path d="M79.9411 92.1392H78.1924V92.4372H79.9411V92.1392Z" fill="#89DCFF"/>
        <path d="M79.4953 94.2999C79.4953 94.7469 79.3092 95.1194 79.086 95.1194C78.8628 95.1194 78.6768 94.7469 78.6768 94.2999C78.6768 93.853 78.8628 93.4805 79.086 93.4805C79.3092 93.4805 79.4953 93.853 79.4953 94.2999Z"
              fill="#89DCFF"/>
        <path d="M79.4953 97.5011C79.4953 97.9481 79.3092 98.3206 79.086 98.3206C78.8628 98.3206 78.6768 97.9481 78.6768 97.5011C78.6768 97.0541 78.8628 96.6816 79.086 96.6816C79.3092 96.6816 79.4953 97.0541 79.4953 97.5011Z"
              fill="#89DCFF"/>
        <path d="M86.3785 109.273C86.3785 109.608 86.3413 109.906 86.304 110.241C86.2668 110.688 86.1552 111.098 86.0064 111.508C85.932 111.731 85.8204 111.992 85.7088 112.215C85.6343 112.401 85.5227 112.55 85.4111 112.699C85.1135 113.184 84.7042 113.631 84.2949 114.003C84.1089 114.152 83.9229 114.301 83.7369 114.45C83.0672 114.934 82.2486 115.27 81.3929 115.493C80.9836 115.605 80.5744 115.679 80.1279 115.717C79.7931 115.754 79.4582 115.754 79.0862 115.754C78.7513 115.754 78.3792 115.754 78.0444 115.717C77.5979 115.679 77.1887 115.605 76.8166 115.493C75.9609 115.27 75.1424 114.934 74.4727 114.45C74.2866 114.301 74.0634 114.189 73.9146 114.003C73.4681 113.631 73.096 113.184 72.7984 112.699C72.6868 112.55 72.6124 112.364 72.5008 112.215C72.3891 111.992 72.2775 111.768 72.2031 111.545C72.0543 111.135 71.9427 110.725 71.9055 110.278C71.8683 109.98 71.8311 109.645 71.8311 109.31C71.8311 109.235 71.8311 109.124 71.8311 109.049C71.8311 109.012 71.8311 108.937 71.8311 108.9C71.8311 108.788 71.8683 108.714 71.8683 108.602C71.9427 108.267 72.0543 107.969 72.2031 107.634C72.4636 107.075 72.8356 106.554 73.2821 106.032C73.3937 105.883 73.5053 105.771 73.6541 105.622C73.803 105.473 73.9518 105.287 74.1378 105.138C74.6215 104.617 75.1424 104.095 75.6632 103.574C75.7004 103.536 75.7749 103.462 75.8121 103.425C76.1097 103.089 76.3701 102.829 76.6306 102.531C76.7422 102.382 76.8538 102.27 77.0026 102.121C77.4863 101.562 77.8956 101.041 78.1932 100.631C78.3048 100.482 78.4165 100.333 78.5281 100.184C78.9373 99.6254 79.1234 99.2902 79.1234 99.2529C79.1606 99.2902 79.3094 99.6254 79.7187 100.184C79.7931 100.333 79.9047 100.482 80.0535 100.631C80.3511 101.041 80.7604 101.562 81.2441 102.121C81.3557 102.27 81.4673 102.382 81.6161 102.531C81.8766 102.829 82.137 103.127 82.4347 103.425C82.4719 103.499 82.5463 103.536 82.5835 103.611C83.1044 104.17 83.6252 104.654 84.1089 105.175C84.2577 105.324 84.4438 105.511 84.5926 105.66C84.7042 105.809 84.853 105.92 84.9646 106.069C85.4111 106.591 85.7832 107.112 86.0436 107.671C86.1924 108.006 86.304 108.304 86.3785 108.639C86.4157 108.751 86.4157 108.826 86.4157 108.937C86.4157 108.975 86.4157 109.049 86.4157 109.086C86.3785 109.124 86.3785 109.198 86.3785 109.273Z"
              fill="#89B1FF"/>
        <path d="M86.3029 110.242C85.6704 110.093 85.0379 109.87 84.4426 109.683C84.9635 109.274 85.4471 108.864 85.8936 108.454C86.0424 108.491 86.1913 108.566 86.3401 108.603C86.2657 108.268 86.154 107.97 86.0052 107.635C85.9308 107.709 85.8564 107.784 85.782 107.858C85.1123 107.597 84.4798 107.337 83.8845 107.039C84.2566 106.703 84.5914 106.368 84.9263 106.033C84.8146 105.884 84.703 105.772 84.5542 105.623C84.1822 105.996 83.7729 106.368 83.3636 106.741C82.7683 106.443 82.173 106.107 81.615 105.772C82.0986 105.363 82.5823 104.916 83.0288 104.506C83.3636 104.729 83.7357 104.953 84.1077 105.139C83.6241 104.618 83.1032 104.133 82.5823 103.575C82.173 103.314 81.7638 103.016 81.3917 102.718L81.615 102.494C81.5033 102.345 81.3917 102.234 81.2429 102.085C81.1685 102.196 81.0569 102.271 80.9453 102.383C80.4244 101.973 79.9779 101.563 79.5314 101.154C79.7175 100.967 79.9035 100.781 80.0523 100.632C79.9407 100.483 79.8291 100.334 79.7175 100.185C79.5314 100.371 79.3082 100.595 79.1222 100.781C78.9362 100.595 78.7129 100.371 78.5269 100.185C78.4525 100.334 78.3409 100.446 78.192 100.632C78.3781 100.818 78.5269 101.005 78.7129 101.154C78.2665 101.563 77.7828 101.973 77.2991 102.383L77.0015 102.085C76.8898 102.196 76.7782 102.345 76.6294 102.494L76.8526 102.718C76.4806 103.016 76.0713 103.277 75.6621 103.575C75.1412 104.133 74.6203 104.655 74.1366 105.139C74.5087 104.953 74.8435 104.729 75.2156 104.506C75.6621 104.953 76.1457 105.363 76.6294 105.772C76.0713 106.107 75.476 106.443 74.8807 106.741C74.4715 106.368 74.0622 105.996 73.6902 105.623C73.5785 105.772 73.4297 105.884 73.3181 106.033C73.653 106.368 73.9878 106.703 74.3599 107.039C73.7646 107.337 73.0949 107.597 72.4624 107.858C72.388 107.784 72.3136 107.709 72.2391 107.635C72.0903 107.97 71.9787 108.268 71.9043 108.603C72.0531 108.566 72.2019 108.491 72.3508 108.454C72.7972 108.864 73.2809 109.274 73.8018 109.683C73.2065 109.907 72.574 110.093 71.9415 110.242C71.9787 110.689 72.0903 111.099 72.2391 111.508C72.4996 111.695 72.76 111.918 73.0205 112.104C72.8716 112.142 72.6856 112.179 72.5368 112.216C72.6112 112.402 72.7228 112.551 72.8344 112.7C73.0949 112.663 73.3553 112.589 73.6158 112.514C74.211 112.924 74.8063 113.296 75.4388 113.632C74.9552 113.743 74.4715 113.855 73.9878 113.967C74.1738 114.116 74.3599 114.265 74.5459 114.414C75.104 114.302 75.6249 114.19 76.1457 114.041C76.8526 114.414 77.5968 114.749 78.3781 115.047C77.8944 115.196 77.4107 115.345 76.9271 115.457C77.3363 115.569 77.7456 115.643 78.1548 115.68C78.4897 115.569 78.8245 115.457 79.1966 115.345C79.5314 115.457 79.8663 115.569 80.2384 115.68C80.6848 115.643 81.0941 115.569 81.5033 115.457C80.9825 115.345 80.4988 115.196 80.0523 115.047C80.8336 114.749 81.5778 114.414 82.2847 114.041C82.8055 114.19 83.3264 114.302 83.8845 114.414C84.0705 114.265 84.2938 114.153 84.4426 113.967C83.9589 113.855 83.438 113.781 82.9916 113.632C83.6241 113.259 84.2566 112.887 84.8146 112.514C85.0751 112.589 85.3355 112.626 85.596 112.7C85.7076 112.551 85.782 112.365 85.8936 112.216C85.7448 112.179 85.5588 112.142 85.4099 112.104C85.6704 111.918 85.9308 111.695 86.1913 111.508C86.1168 111.099 86.2285 110.689 86.3029 110.242ZM83.3636 107.411C83.9589 107.709 84.6286 107.97 85.2983 108.231C84.8519 108.64 84.331 109.05 83.8473 109.46C83.1776 109.199 82.5079 108.901 81.8754 108.603C82.3963 108.231 82.88 107.821 83.3636 107.411ZM80.8336 108.678C80.2756 109.05 79.6803 109.423 79.085 109.758C78.4897 109.423 77.8944 109.05 77.3363 108.678C77.9316 108.342 78.5269 108.007 79.085 107.635C79.6431 108.007 80.2012 108.342 80.8336 108.678ZM77.4851 105.81C78.0432 105.437 78.5641 105.065 79.0478 104.655C79.5687 105.065 80.0895 105.437 80.6476 105.81C80.1267 106.219 79.6059 106.592 79.0478 106.964C78.5269 106.629 78.006 106.219 77.4851 105.81ZM78.5269 110.056C77.8944 110.391 77.2247 110.689 76.5178 110.987C75.9225 110.615 75.3644 110.242 74.8063 109.832C75.476 109.572 76.1457 109.274 76.7782 108.938C77.3363 109.348 77.8944 109.721 78.5269 110.056ZM79.085 110.391C79.7175 110.726 80.3872 111.061 81.0569 111.359C80.4244 111.732 79.7919 112.067 79.085 112.365C78.4153 112.067 77.7456 111.732 77.1131 111.359C77.7828 111.061 78.4525 110.726 79.085 110.391ZM79.6431 110.056C80.2384 109.721 80.8336 109.348 81.3917 108.938C82.0242 109.274 82.6567 109.534 83.3636 109.832C82.8055 110.242 82.2475 110.615 81.6522 110.987C80.9453 110.726 80.2756 110.391 79.6431 110.056ZM82.88 107.113C82.3963 107.523 81.8754 107.933 81.3173 108.305C80.6848 107.97 80.1267 107.635 79.5687 107.262C80.1267 106.89 80.6476 106.48 81.1313 106.07C81.6894 106.48 82.2475 106.815 82.88 107.113ZM80.9453 103.053C81.4289 103.426 81.9498 103.798 82.5079 104.171C82.0614 104.618 81.5778 105.027 81.0941 105.437C80.536 105.065 80.0151 104.692 79.4942 104.32C80.0151 103.91 80.4988 103.5 80.9453 103.053ZM79.085 101.489C79.5315 101.898 80.0151 102.345 80.536 102.755C80.0895 103.202 79.6059 103.612 79.085 104.022C78.5641 103.612 78.1176 103.202 77.6712 102.755C78.1548 102.308 78.6385 101.898 79.085 101.489ZM75.6621 104.208C76.2201 103.835 76.741 103.463 77.2247 103.09C77.6712 103.537 78.1548 103.947 78.6385 104.357C78.1176 104.729 77.5968 105.139 77.0387 105.474C76.555 105.065 76.0713 104.618 75.6621 104.208ZM77.0387 106.145C77.5223 106.554 78.0432 106.927 78.6013 107.337C78.0432 107.709 77.4479 108.044 76.8526 108.38C76.2946 107.97 75.8109 107.597 75.29 107.188C75.8853 106.815 76.4806 106.48 77.0387 106.145ZM72.8344 108.231C73.5041 107.97 74.1366 107.709 74.7691 107.411C75.2528 107.821 75.7737 108.231 76.2946 108.64C75.6621 108.938 74.9924 109.236 74.3227 109.497C73.8018 109.05 73.3181 108.64 72.8344 108.231ZM72.0531 110.726C72.7972 110.54 73.5413 110.317 74.2482 110.056C74.7691 110.466 75.3272 110.838 75.9225 111.21C75.2156 111.471 74.4343 111.732 73.653 111.918C73.0577 111.546 72.5368 111.173 72.0531 110.726ZM74.211 112.328C74.9924 112.104 75.7365 111.844 76.4434 111.583C77.0759 111.955 77.7084 112.291 78.3781 112.626C77.634 112.924 76.8526 113.222 76.0713 113.445C75.4388 113.11 74.8063 112.738 74.211 112.328ZM79.085 114.786C78.3037 114.488 77.5223 114.19 76.7782 113.818C77.5596 113.557 78.3409 113.259 79.085 112.961C79.8291 113.296 80.5732 113.557 81.3917 113.818C80.6476 114.153 79.8663 114.488 79.085 114.786ZM82.0242 113.445C81.2057 113.222 80.4616 112.924 79.7175 112.626C80.3872 112.291 81.0569 111.955 81.6522 111.583C82.3591 111.844 83.1032 112.104 83.9217 112.328C83.3264 112.738 82.6939 113.11 82.0242 113.445ZM84.517 111.955C83.7357 111.769 82.9544 111.508 82.2475 111.248C82.8428 110.875 83.4008 110.503 83.9217 110.093C84.6286 110.354 85.3355 110.577 86.1168 110.764C85.596 111.173 85.0751 111.546 84.517 111.955Z"
              fill="white"/>
        <path d="M86.3765 109.272C86.3765 109.608 86.3393 109.943 86.3021 110.241C86.2649 110.688 86.1533 111.098 86.0045 111.507C85.9301 111.731 85.8184 111.992 85.7068 112.215C85.6324 112.401 85.5208 112.55 85.4092 112.699C85.1115 113.184 84.7023 113.593 84.293 114.003C84.107 114.152 83.921 114.301 83.7349 114.413C83.0652 114.897 82.2467 115.232 81.391 115.456C80.9817 115.567 80.5725 115.642 80.126 115.679C79.7911 115.716 79.4563 115.716 79.0842 115.716C78.7494 115.716 78.3773 115.716 78.0425 115.679C77.6332 115.642 77.1868 115.567 76.8147 115.456C76.4054 115.344 75.959 115.195 75.5869 115.046C77.8937 114.45 80.1632 113.37 81.5026 111.619C83.6977 108.714 83.8465 106.628 83.9582 105.063C83.9954 105.101 84.0326 105.138 84.0698 105.175C84.2186 105.324 84.4046 105.51 84.5162 105.659C84.6279 105.808 84.7767 105.92 84.8883 106.069C85.3348 106.591 85.7068 107.112 85.9673 107.671C86.1161 108.006 86.2277 108.304 86.3021 108.639C86.3393 108.751 86.3393 108.826 86.3393 108.937C86.3393 108.975 86.3393 109.049 86.3393 109.086C86.3765 109.124 86.3765 109.198 86.3765 109.272Z"
              fill="url(#paint32_linear)"/>
        <path opacity="0.31"
              d="M74.3965 105.696C75.8103 104.392 76.4428 103.759 77.2242 103.2C78.0799 102.604 76.5917 105.063 75.3639 106.553C74.5825 107.484 74.1361 109.644 73.578 109.346C72.6106 108.825 72.9827 107 74.3965 105.696Z"
              fill="url(#paint33_linear)"/>
        <path d="M84.9641 113.294H73.1699V125.102H84.9641V113.294Z" fill="url(#paint34_linear)"/>
        <path d="M76.6295 122.72H73.7646V119.181C73.7646 118.399 74.3971 117.766 75.1785 117.766H75.2157C75.997 117.766 76.6295 118.399 76.6295 119.181V122.72V122.72Z"
              fill="url(#paint35_linear)"/>
        <path d="M80.4986 122.721H77.6338V119.182C77.6338 118.4 78.2663 117.767 79.0476 117.767H79.0848C79.8661 117.767 80.4986 118.4 80.4986 119.182V122.721Z"
              fill="url(#paint36_linear)"/>
        <path d="M84.4059 122.721H81.541V119.182C81.541 118.4 82.1735 117.767 82.9548 117.767H82.992C83.7734 117.767 84.4059 118.4 84.4059 119.182V122.721V122.721Z"
              fill="url(#paint37_linear)"/>
        <path d="M84.9641 113.294H73.1699V114.188H84.9641V113.294Z" fill="white"/>
        <path d="M90.4701 139.369H67.7002L68.5931 137.06L68.6675 136.762L69.1512 135.533L69.2628 135.272L69.7837 133.931L69.8581 133.67L70.4162 132.255L70.5278 131.994L71.1231 130.392L71.2347 130.132L71.9044 128.418L72.0161 128.12L73.1694 125.066H84.9636L85.4473 126.37L85.5589 126.63L86.1542 128.195L86.2658 128.455L86.8983 130.132L87.0099 130.43L87.7168 132.218L87.8285 132.553L88.6098 134.564L88.7958 135.011L89.6515 137.283L89.8376 137.73L90.4701 139.369Z"
              fill="#89B1FF"/>
        <path d="M85.5607 126.63C85.0026 126.816 84.6306 127.114 84.2213 127.412C83.5888 127.896 82.9191 128.418 81.6169 128.418C80.3147 128.418 79.645 127.896 79.0125 127.412C78.38 126.928 77.7847 126.443 76.557 126.443C75.3292 126.443 74.7339 126.89 74.1014 127.412C73.5433 127.859 72.948 128.306 71.9062 128.418L72.0179 128.12C72.8736 128.008 73.3945 127.598 73.9154 127.188C74.5478 126.704 75.2175 126.183 76.5197 126.183C77.8219 126.183 78.4916 126.704 79.1241 127.188C79.7566 127.673 80.3519 128.157 81.5797 128.157C82.8075 128.157 83.4028 127.71 84.0353 127.188C84.4445 126.89 84.8538 126.555 85.4491 126.369L85.5607 126.63Z"
              fill="white"/>
        <path d="M86.2676 128.455C85.3002 128.529 84.7794 128.939 84.2213 129.386C83.5888 129.87 82.9191 130.392 81.6169 130.392C80.3147 130.392 79.645 129.87 79.0125 129.386C78.38 128.902 77.7847 128.417 76.5569 128.417C75.3291 128.417 74.7338 128.864 74.1014 129.386C73.4689 129.87 72.7992 130.392 71.497 130.392C71.3853 130.392 71.2737 130.392 71.1621 130.392L71.2737 130.131C71.3481 130.131 71.4225 130.131 71.497 130.131C72.7247 130.131 73.32 129.684 73.9525 129.162C74.585 128.678 75.2547 128.157 76.5569 128.157C77.8591 128.157 78.5288 128.678 79.1613 129.162C79.7938 129.647 80.3891 130.131 81.6169 130.131C82.8447 130.131 83.44 129.684 84.0725 129.162C84.6305 128.753 85.1886 128.306 86.156 128.194L86.2676 128.455Z"
              fill="white"/>
        <path d="M87.0106 130.429C86.899 130.429 86.7873 130.429 86.6757 130.429C85.4479 130.429 84.8527 130.876 84.2202 131.398C83.5877 131.882 82.918 132.403 81.6158 132.403C80.3136 132.403 79.6439 131.882 79.0114 131.398C78.3789 130.913 77.7836 130.429 76.5558 130.429C75.328 130.429 74.7327 130.876 74.1002 131.398C73.4678 131.882 72.7981 132.403 71.4959 132.403C71.0866 132.403 70.7517 132.366 70.4541 132.292L70.5657 132.031C70.8262 132.105 71.1238 132.143 71.4959 132.143C72.7236 132.143 73.3189 131.696 73.9514 131.174C74.5839 130.69 75.2536 130.168 76.5558 130.168C77.858 130.168 78.5277 130.69 79.1602 131.174C79.7927 131.658 80.388 132.143 81.6158 132.143C82.8436 132.143 83.4388 131.696 84.0713 131.174C84.7038 130.69 85.3735 130.168 86.6757 130.168C86.7501 130.168 86.8246 130.168 86.899 130.168L87.0106 130.429Z"
              fill="white"/>
        <path d="M87.8298 132.552C87.4949 132.441 87.1601 132.366 86.6764 132.366C85.4486 132.366 84.8533 132.813 84.2208 133.335C83.5883 133.819 82.9186 134.34 81.6165 134.34C80.3143 134.34 79.6446 133.819 79.0121 133.335C78.3796 132.85 77.7843 132.366 76.5565 132.366C75.3287 132.366 74.7334 132.813 74.1009 133.335C73.4684 133.819 72.7987 134.34 71.4965 134.34C70.7524 134.34 70.2315 134.191 69.8223 133.968L69.9339 133.707C70.3431 133.931 70.8268 134.08 71.5337 134.08C72.7615 134.08 73.3568 133.633 73.9893 133.111C74.6218 132.627 75.2915 132.105 76.5937 132.105C77.8959 132.105 78.5656 132.627 79.1981 133.111C79.8306 133.595 80.4259 134.08 81.6537 134.08C82.8814 134.08 83.4767 133.633 84.1092 133.111C84.7417 132.627 85.4114 132.105 86.7136 132.105C87.1229 132.105 87.4205 132.143 87.7182 132.217L87.8298 132.552Z"
              fill="white"/>
        <path d="M88.7977 135.01C88.2768 134.638 87.6815 134.34 86.7142 134.34C85.4864 134.34 84.8911 134.787 84.2586 135.308C83.6261 135.793 82.9564 136.314 81.6542 136.314C80.352 136.314 79.6823 135.793 79.0498 135.308C78.4173 134.824 77.822 134.34 76.5942 134.34C75.3665 134.34 74.7712 134.787 74.1387 135.308C73.5062 135.793 72.8365 136.314 71.5343 136.314C70.4181 136.314 69.7856 135.942 69.2275 135.569L69.3392 135.308C69.8972 135.718 70.4925 136.053 71.5343 136.053C72.7621 136.053 73.3574 135.606 73.9899 135.085C74.6224 134.601 75.2921 134.079 76.5942 134.079C77.8964 134.079 78.5661 134.601 79.1986 135.085C79.8311 135.569 80.4264 136.053 81.6542 136.053C82.882 136.053 83.4773 135.606 84.1098 135.085C84.7423 134.601 85.412 134.079 86.7142 134.079C87.5699 134.079 88.1652 134.303 88.6489 134.601L88.7977 135.01Z"
              fill="white"/>
        <path d="M89.8391 137.73C89.5786 137.581 89.3554 137.395 89.1321 137.246C88.4996 136.762 87.9044 136.278 86.6766 136.278C85.4488 136.278 84.8535 136.725 84.221 137.246C83.5885 137.73 82.9188 138.252 81.6166 138.252C80.3144 138.252 79.6447 137.73 79.0122 137.246C78.3797 136.762 77.7844 136.278 76.5566 136.278C75.3289 136.278 74.7336 136.725 74.1011 137.246C73.4686 137.73 72.7989 138.252 71.4967 138.252C70.1945 138.252 69.5248 137.73 68.8923 137.246C68.8179 137.172 68.7062 137.097 68.6318 137.06L68.7435 136.799C68.8551 136.874 68.9667 136.948 69.0783 137.06C69.7108 137.544 70.3061 138.028 71.5339 138.028C72.7617 138.028 73.357 137.581 73.9894 137.06C74.6219 136.576 75.2916 136.054 76.5938 136.054C77.896 136.054 78.5657 136.576 79.1982 137.06C79.8307 137.544 80.426 138.028 81.6538 138.028C82.8816 138.028 83.4769 137.581 84.1094 137.06C84.7419 136.576 85.4116 136.054 86.7138 136.054C88.016 136.054 88.6857 136.576 89.3182 137.06C89.4298 137.134 89.5414 137.246 89.653 137.321L89.8391 137.73Z"
              fill="white"/>
        <path d="M90.4701 139.37H67.7002V173.191H90.4701V139.37Z" fill="url(#paint38_linear)"/>
        <path d="M85.2242 173.189H72.9092V157.88C72.9092 154.528 75.6252 151.771 79.0109 151.771H79.1597C82.5082 151.771 85.2614 154.491 85.2614 157.88V173.189H85.2242Z"
              fill="url(#paint39_linear)"/>
        <path d="M90.469 139.37V173.191H70.75C81.5024 166.263 86.5624 146.931 88.1994 139.37H90.469Z"
              fill="url(#paint40_linear)"/>
        <path d="M121.053 139.37H90.4697V173.191H121.053V139.37Z" fill="url(#paint41_linear)"/>
        <path d="M111.9 173.19H99.585V157.881C99.585 154.528 102.301 151.772 105.687 151.772H105.836C109.184 151.772 111.937 154.491 111.937 157.881V173.19H111.9Z"
              fill="url(#paint42_linear)"/>
        <path d="M130.02 122.72H127.155V119.181C127.155 118.399 127.788 117.766 128.569 117.766H128.606C129.388 117.766 130.02 118.399 130.02 119.181V122.72V122.72Z"
              fill="url(#paint43_linear)"/>
        <path d="M133.889 122.721H131.024V119.182C131.024 118.4 131.657 117.767 132.438 117.767H132.475C133.257 117.767 133.889 118.4 133.889 119.182V122.721V122.721Z"
              fill="url(#paint44_linear)"/>
        <path d="M137.795 122.721H134.931V119.182C134.931 118.4 135.563 117.767 136.344 117.767H136.382C137.163 117.767 137.795 118.4 137.795 119.182V122.721V122.721Z"
              fill="url(#paint45_linear)"/>
        <path d="M121.016 139.37V173.191H90.4326V168.647C103.455 167.939 110.598 153.822 114.542 139.37H121.016Z"
              fill="url(#paint46_linear)"/>
        <path d="M113.649 91.021V106.851H97.8369V106.591C110.896 104.393 111.677 91.021 111.677 91.021H113.649V91.021Z"
              fill="url(#paint47_linear)"/>
        <path opacity="0.31"
              d="M99.1766 81.2237C101.297 79.2868 102.227 78.3183 103.418 77.4989C104.72 76.6049 102.451 80.2925 100.628 82.5273C99.4743 83.9055 98.8046 87.1461 97.9861 86.6991C96.4606 85.8797 97.0187 83.1606 99.1766 81.2237Z"
              fill="url(#paint48_linear)"/>
        <path opacity="0.31"
              d="M102.377 37.3094C103.493 36.3037 103.977 35.7822 104.572 35.3725C105.242 34.9255 104.088 36.8251 103.121 37.9798C102.526 38.6875 102.191 40.3637 101.744 40.1402C100.963 39.7305 101.261 38.3151 102.377 37.3094Z"
              fill="url(#paint49_linear)"/>
        <path opacity="0.31"
              d="M127.788 105.696C129.202 104.393 129.834 103.759 130.616 103.201C131.471 102.605 129.983 105.063 128.755 106.553C127.974 107.484 127.528 109.645 126.969 109.347C125.965 108.825 126.337 107 127.788 105.696Z"
              fill="url(#paint50_linear)"/>
    </g>
    <defs>
        <linearGradient id="paint0_linear" x1="83.9576" y1="51.5742" x2="83.9576" y2="76.4186"
                        gradientUnits="userSpaceOnUse">
            <stop stop-color="#CCCCCC"/>
            <stop offset="1" stop-color="#CCCCCC" stop-opacity="0"/>
        </linearGradient>
        <linearGradient id="paint1_linear" x1="105.742" y1="72.4341" x2="105.742" y2="117.728"
                        gradientUnits="userSpaceOnUse">
            <stop stop-color="#89DCFF"/>
            <stop offset="1" stop-color="#89FFF8" stop-opacity="0"/>
        </linearGradient>
        <linearGradient id="paint2_linear" x1="105.761" y1="43.9019" x2="105.761" y2="72.4338"
                        gradientUnits="userSpaceOnUse">
            <stop stop-color="#89B1FF"/>
            <stop offset="1" stop-color="#4DF4FF"/>
        </linearGradient>
        <linearGradient id="paint3_linear" x1="107.621" y1="36.3037" x2="107.621" y2="44.2003"
                        gradientUnits="userSpaceOnUse">
            <stop stop-color="#CCCCCC"/>
            <stop offset="1" stop-color="#CCCCCC" stop-opacity="0"/>
        </linearGradient>
        <linearGradient id="paint4_linear" x1="105.76" y1="42.4858" x2="105.76" y2="52.729"
                        gradientUnits="userSpaceOnUse">
            <stop stop-color="#89B1FF"/>
            <stop offset="1" stop-color="#4DF4FF"/>
        </linearGradient>
        <linearGradient id="paint5_linear" x1="64.2766" y1="87.8179" x2="64.2766" y2="118.808"
                        gradientUnits="userSpaceOnUse">
            <stop stop-color="#89B1FF"/>
            <stop offset="1" stop-color="#4DF4FF"/>
        </linearGradient>
        <linearGradient id="paint6_linear" x1="64.2773" y1="87.8179" x2="64.2773" y2="118.808"
                        gradientUnits="userSpaceOnUse">
            <stop stop-color="#89B1FF"/>
            <stop offset="1" stop-color="#4DF4FF"/>
        </linearGradient>
        <linearGradient id="paint7_linear" x1="56.8651" y1="95.0444" x2="56.8651" y2="108.179"
                        gradientUnits="userSpaceOnUse">
            <stop stop-color="#89DCFF"/>
            <stop offset="1" stop-color="#89FFF8" stop-opacity="0"/>
        </linearGradient>
        <linearGradient id="paint8_linear" x1="66.063" y1="98.1724" x2="66.063" y2="118.808"
                        gradientUnits="userSpaceOnUse">
            <stop stop-color="#CCCCCC"/>
            <stop offset="1" stop-color="#CCCCCC" stop-opacity="0"/>
        </linearGradient>
        <linearGradient id="paint9_linear" x1="64.2584" y1="113.855" x2="64.2584" y2="136.241"
                        gradientUnits="userSpaceOnUse">
            <stop stop-color="#89B1FF"/>
            <stop offset="1" stop-color="#4DF4FF"/>
        </linearGradient>
        <linearGradient id="paint10_linear" x1="66.4539" y1="113.855" x2="66.4539" y2="136.241"
                        gradientUnits="userSpaceOnUse">
            <stop stop-color="#CCCCCC"/>
            <stop offset="1" stop-color="#CCCCCC" stop-opacity="0"/>
        </linearGradient>
        <linearGradient id="paint11_linear" x1="56.8723" y1="122.31" x2="56.8723" y2="131.733"
                        gradientUnits="userSpaceOnUse">
            <stop stop-color="#89DCFF"/>
            <stop offset="1" stop-color="#89FFF8" stop-opacity="0"/>
        </linearGradient>
        <linearGradient id="paint12_linear" x1="64.2746" y1="122.31" x2="64.2746" y2="131.734"
                        gradientUnits="userSpaceOnUse">
            <stop stop-color="#89DCFF"/>
            <stop offset="1" stop-color="#89FFF8" stop-opacity="0"/>
        </linearGradient>
        <linearGradient id="paint13_linear" x1="71.6428" y1="122.31" x2="71.6428" y2="131.734"
                        gradientUnits="userSpaceOnUse">
            <stop stop-color="#89DCFF"/>
            <stop offset="1" stop-color="#89FFF8" stop-opacity="0"/>
        </linearGradient>
        <linearGradient id="paint14_linear" x1="147.244" y1="87.8179" x2="147.244" y2="118.808"
                        gradientUnits="userSpaceOnUse">
            <stop stop-color="#89B1FF"/>
            <stop offset="1" stop-color="#4DF4FF"/>
        </linearGradient>
        <linearGradient id="paint15_linear" x1="147.227" y1="87.8179" x2="147.227" y2="118.808"
                        gradientUnits="userSpaceOnUse">
            <stop stop-color="#89B1FF"/>
            <stop offset="1" stop-color="#4DF4FF"/>
        </linearGradient>
        <linearGradient id="paint16_linear" x1="139.647" y1="95.0444" x2="139.647" y2="108.179"
                        gradientUnits="userSpaceOnUse">
            <stop stop-color="#89DCFF"/>
            <stop offset="1" stop-color="#89FFF8" stop-opacity="0"/>
        </linearGradient>
        <linearGradient id="paint17_linear" x1="149.031" y1="98.1724" x2="149.031" y2="118.808"
                        gradientUnits="userSpaceOnUse">
            <stop stop-color="#CCCCCC"/>
            <stop offset="1" stop-color="#CCCCCC" stop-opacity="0"/>
        </linearGradient>
        <linearGradient id="paint18_linear" x1="147.226" y1="113.855" x2="147.226" y2="136.241"
                        gradientUnits="userSpaceOnUse">
            <stop stop-color="#89B1FF"/>
            <stop offset="1" stop-color="#4DF4FF"/>
        </linearGradient>
        <linearGradient id="paint19_linear" x1="139.84" y1="122.309" x2="139.84" y2="131.733"
                        gradientUnits="userSpaceOnUse">
            <stop stop-color="#89DCFF"/>
            <stop offset="1" stop-color="#89FFF8" stop-opacity="0"/>
        </linearGradient>
        <linearGradient id="paint20_linear" x1="147.244" y1="122.31" x2="147.244" y2="131.733"
                        gradientUnits="userSpaceOnUse">
            <stop stop-color="#89DCFF"/>
            <stop offset="1" stop-color="#89FFF8" stop-opacity="0"/>
        </linearGradient>
        <linearGradient id="paint21_linear" x1="154.612" y1="122.31" x2="154.612" y2="131.733"
                        gradientUnits="userSpaceOnUse">
            <stop stop-color="#89DCFF"/>
            <stop offset="1" stop-color="#89FFF8" stop-opacity="0"/>
        </linearGradient>
        <linearGradient id="paint22_linear" x1="149.421" y1="113.855" x2="149.421" y2="136.241"
                        gradientUnits="userSpaceOnUse">
            <stop stop-color="#CCCCCC"/>
            <stop offset="1" stop-color="#CCCCCC" stop-opacity="0"/>
        </linearGradient>
        <linearGradient id="paint23_linear" x1="150.239" y1="140.674" x2="150.239" y2="173.042"
                        gradientUnits="userSpaceOnUse">
            <stop stop-color="#CCCCCC"/>
            <stop offset="1" stop-color="#CCCCCC" stop-opacity="0"/>
        </linearGradient>
        <linearGradient id="paint24_linear" x1="67.2708" y1="140.673" x2="67.2708" y2="173.041"
                        gradientUnits="userSpaceOnUse">
            <stop stop-color="#CCCCCC"/>
            <stop offset="1" stop-color="#CCCCCC" stop-opacity="0"/>
        </linearGradient>
        <linearGradient id="paint25_linear" x1="107.267" y1="78.0981" x2="107.267" y2="94.301"
                        gradientUnits="userSpaceOnUse">
            <stop stop-color="#CCCCCC"/>
            <stop offset="1" stop-color="#CCCCCC" stop-opacity="0"/>
        </linearGradient>
        <linearGradient id="paint26_linear" x1="105.761" y1="117.729" x2="105.761" y2="139.371"
                        gradientUnits="userSpaceOnUse">
            <stop stop-color="#89B1FF"/>
            <stop offset="1" stop-color="#4DF4FF"/>
        </linearGradient>
        <linearGradient id="paint27_linear" x1="134.335" y1="105.062" x2="134.335" y2="115.715"
                        gradientUnits="userSpaceOnUse">
            <stop stop-color="#CCCCCC"/>
            <stop offset="1" stop-color="#CCCCCC" stop-opacity="0"/>
        </linearGradient>
        <linearGradient id="paint28_linear" x1="132.419" y1="113.295" x2="132.419" y2="125.103"
                        gradientUnits="userSpaceOnUse">
            <stop stop-color="#89B1FF"/>
            <stop offset="1" stop-color="#4DF4FF"/>
        </linearGradient>
        <linearGradient id="paint29_linear" x1="132.437" y1="139.37" x2="132.437" y2="173.191"
                        gradientUnits="userSpaceOnUse">
            <stop stop-color="#89B1FF"/>
            <stop offset="1" stop-color="#4DF4FF"/>
        </linearGradient>
        <linearGradient id="paint30_linear" x1="132.438" y1="151.772" x2="132.438" y2="173.19"
                        gradientUnits="userSpaceOnUse">
            <stop stop-color="#89DCFF"/>
            <stop offset="1" stop-color="#89FFF8" stop-opacity="0"/>
        </linearGradient>
        <linearGradient id="paint31_linear" x1="133.963" y1="139.37" x2="133.963" y2="173.191"
                        gradientUnits="userSpaceOnUse">
            <stop stop-color="#CCCCCC"/>
            <stop offset="1" stop-color="#CCCCCC" stop-opacity="0"/>
        </linearGradient>
        <linearGradient id="paint32_linear" x1="80.9817" y1="105.063" x2="80.9817" y2="115.716"
                        gradientUnits="userSpaceOnUse">
            <stop stop-color="#CCCCCC"/>
            <stop offset="1" stop-color="#CCCCCC" stop-opacity="0"/>
        </linearGradient>
        <linearGradient id="paint33_linear" x1="75.2582" y1="103.109" x2="75.2582" y2="109.374"
                        gradientUnits="userSpaceOnUse">
            <stop stop-color="#89DCFF"/>
            <stop offset="1" stop-color="#89FFF8" stop-opacity="0"/>
        </linearGradient>
        <linearGradient id="paint34_linear" x1="79.067" y1="113.294" x2="79.067" y2="125.102"
                        gradientUnits="userSpaceOnUse">
            <stop stop-color="#89B1FF"/>
            <stop offset="1" stop-color="#4DF4FF"/>
        </linearGradient>
        <linearGradient id="paint35_linear" x1="75.1971" y1="117.766" x2="75.1971" y2="122.72"
                        gradientUnits="userSpaceOnUse">
            <stop stop-color="#89DCFF"/>
            <stop offset="1" stop-color="#89FFF8" stop-opacity="0"/>
        </linearGradient>
        <linearGradient id="paint36_linear" x1="79.0662" y1="117.767" x2="79.0662" y2="122.721"
                        gradientUnits="userSpaceOnUse">
            <stop stop-color="#89DCFF"/>
            <stop offset="1" stop-color="#89FFF8" stop-opacity="0"/>
        </linearGradient>
        <linearGradient id="paint37_linear" x1="82.9734" y1="117.767" x2="82.9734" y2="122.721"
                        gradientUnits="userSpaceOnUse">
            <stop stop-color="#89DCFF"/>
            <stop offset="1" stop-color="#89FFF8" stop-opacity="0"/>
        </linearGradient>
        <linearGradient id="paint38_linear" x1="79.0851" y1="139.37" x2="79.0851" y2="173.191"
                        gradientUnits="userSpaceOnUse">
            <stop stop-color="#89B1FF"/>
            <stop offset="1" stop-color="#4DF4FF"/>
        </linearGradient>
        <linearGradient id="paint39_linear" x1="79.0853" y1="151.771" x2="79.0853" y2="173.189"
                        gradientUnits="userSpaceOnUse">
            <stop stop-color="#89DCFF"/>
            <stop offset="1" stop-color="#89FFF8" stop-opacity="0"/>
        </linearGradient>
        <linearGradient id="paint40_linear" x1="80.6095" y1="139.37" x2="80.6095" y2="173.191"
                        gradientUnits="userSpaceOnUse">
            <stop stop-color="#CCCCCC"/>
            <stop offset="1" stop-color="#CCCCCC" stop-opacity="0"/>
        </linearGradient>
        <linearGradient id="paint41_linear" x1="105.761" y1="139.37" x2="105.761" y2="173.191"
                        gradientUnits="userSpaceOnUse">
            <stop stop-color="#89DCFF"/>
            <stop offset="1" stop-color="#89FFF8" stop-opacity="0"/>
        </linearGradient>
        <linearGradient id="paint42_linear" x1="105.761" y1="151.772" x2="105.761" y2="173.19"
                        gradientUnits="userSpaceOnUse">
            <stop stop-color="#89B1FF"/>
            <stop offset="1" stop-color="#4DF4FF"/>
        </linearGradient>
        <linearGradient id="paint43_linear" x1="128.588" y1="117.766" x2="128.588" y2="122.72"
                        gradientUnits="userSpaceOnUse">
            <stop stop-color="#89DCFF"/>
            <stop offset="1" stop-color="#89FFF8" stop-opacity="0"/>
        </linearGradient>
        <linearGradient id="paint44_linear" x1="132.457" y1="117.767" x2="132.457" y2="122.721"
                        gradientUnits="userSpaceOnUse">
            <stop stop-color="#89DCFF"/>
            <stop offset="1" stop-color="#89FFF8" stop-opacity="0"/>
        </linearGradient>
        <linearGradient id="paint45_linear" x1="136.363" y1="117.767" x2="136.363" y2="122.721"
                        gradientUnits="userSpaceOnUse">
            <stop stop-color="#89DCFF"/>
            <stop offset="1" stop-color="#89FFF8" stop-opacity="0"/>
        </linearGradient>
        <linearGradient id="paint46_linear" x1="105.724" y1="139.37" x2="105.724" y2="173.191"
                        gradientUnits="userSpaceOnUse">
            <stop stop-color="#CCCCCC"/>
            <stop offset="1" stop-color="#CCCCCC" stop-opacity="0"/>
        </linearGradient>
        <linearGradient id="paint47_linear" x1="105.743" y1="91.021" x2="105.743" y2="106.851"
                        gradientUnits="userSpaceOnUse">
            <stop stop-color="#CCCCCC"/>
            <stop offset="1" stop-color="#CCCCCC" stop-opacity="0"/>
        </linearGradient>
        <linearGradient id="paint48_linear" x1="100.463" y1="77.3618" x2="100.463" y2="86.7411"
                        gradientUnits="userSpaceOnUse">
            <stop stop-color="#89DCFF"/>
            <stop offset="1" stop-color="#89FFF8" stop-opacity="0"/>
        </linearGradient>
        <linearGradient id="paint49_linear" x1="103.039" y1="35.3057" x2="103.039" y2="40.1606"
                        gradientUnits="userSpaceOnUse">
            <stop stop-color="#89DCFF"/>
            <stop offset="1" stop-color="#89FFF8" stop-opacity="0"/>
        </linearGradient>
        <linearGradient id="paint50_linear" x1="128.637" y1="103.109" x2="128.637" y2="109.375"
                        gradientUnits="userSpaceOnUse">
            <stop stop-color="#89DCFF"/>
            <stop offset="1" stop-color="#89FFF8" stop-opacity="0"/>
        </linearGradient>
    </defs>
</svg>
