<svg viewBox="0 0 200 200" fill="none" xmlns="http://www.w3.org/2000/svg">
    <g clip-path="url(#clip0)">
        <path opacity="0.3"
              d="M173.909 158.697C177.599 157.261 179.619 155.711 179.619 154.074C179.619 146.808 139.415 140.949 89.8102 140.949C40.1765 140.949 -0.0283203 146.836 -0.0283203 154.102C-0.0283203 161.368 40.1765 167.227 89.7809 167.227C98.5949 167.227 107.116 167.026 115.169 166.682C113.588 168.089 112.738 169.611 112.738 171.191C112.738 178.715 132.27 184.832 156.369 184.832C180.469 184.832 200 178.715 200 171.191C200 165.619 189.283 160.823 173.909 158.697Z"
              fill="#395FE4"/>
        <path d="M58.7136 87.6461C43.5453 90.6043 28.787 80.9258 25.7709 66.049C22.7548 51.1435 32.623 36.6688 47.7913 33.7107C62.9596 30.7525 77.7179 40.431 80.734 55.3078C83.7501 70.2133 73.8819 84.688 58.7136 87.6461Z"
              fill="url(#paint0_linear)"/>
        <path d="M31.0125 65.0141C28.582 53.0093 36.5761 41.2916 48.8162 38.9079C61.0562 36.5242 73.0035 44.3646 75.4339 56.3695C77.8644 68.3743 69.8703 80.0919 57.6302 82.4756C45.3901 84.8594 33.4429 77.0189 31.0125 65.0141ZM71.9493 57.03C69.8995 46.9207 59.8557 40.3152 49.519 42.3255C39.2115 44.3359 32.4766 54.1868 34.5264 64.3248C36.5761 74.4341 46.62 81.0396 56.9567 79.0293C67.2641 77.0189 73.9991 67.168 71.9493 57.03Z"
              fill="white"/>
        <path opacity="0.2"
              d="M56.9552 79.0301C46.6185 81.0404 36.5746 74.4636 34.5248 64.3256C32.4751 54.1876 39.1807 44.3367 49.5174 42.3263C59.8541 40.316 69.898 46.8928 71.9478 57.0308C73.9975 67.1688 67.2919 77.0197 56.9552 79.0301Z"
              fill="#F7F7F7"/>
        <path d="M59.4735 66.1057L58.3314 60.4767L59.2978 60.3044C60.3227 60.1033 60.9669 59.9023 61.2597 59.73C61.5525 59.5289 61.6404 59.2417 61.5525 58.8109C61.494 58.4663 61.289 58.2365 60.9961 58.1217C60.7033 58.0068 60.2641 58.0068 59.737 58.0929C58.8293 58.2653 58.2436 58.5525 57.9508 58.9832C57.658 59.3853 57.1602 60.5341 56.4574 62.4296C55.8717 64.0379 55.3739 65.1293 55.0225 65.7611C54.6711 66.3642 54.0855 66.9386 53.2949 67.4555C52.5042 67.9725 51.4794 68.3746 50.1909 68.6043C48.1412 69.0064 46.4428 68.8341 45.0665 68.0874C43.6902 67.3407 42.6946 66.0483 42.0211 64.1528L39.8542 64.5836L39.3271 61.9988L41.5526 61.568C41.4062 60.0459 41.7283 58.6099 42.5189 57.2888C43.3096 55.9677 45.0079 55.0487 47.5555 54.5604L48.6682 54.3307L49.8103 59.9597L48.4047 60.2469C46.8527 60.5341 45.9157 60.7926 45.5643 60.9936C45.2129 61.1947 45.0958 61.5106 45.1836 61.9414C45.2715 62.3147 45.4472 62.5732 45.74 62.7168C46.0328 62.8604 46.4428 62.8604 46.9699 62.7742C48.2583 62.5158 49.166 62.2573 49.6931 61.9701C50.2202 61.6829 50.6887 60.9649 51.128 59.8161C51.8893 57.8919 52.4457 56.5421 52.8556 55.8241C53.2363 55.1061 53.8805 54.4168 54.7004 53.785C55.5496 53.1532 56.5745 52.7224 57.7458 52.4926C59.4735 52.148 60.9083 52.3777 62.0796 53.1244C63.2509 53.8999 64.1294 55.1923 64.7443 57.059L66.5891 56.7144L67.1162 59.2992L65.2714 59.6438C65.3885 61.4244 65.0664 62.8317 64.2758 63.8943C63.4852 64.9569 62.2553 65.6462 60.5569 65.9621C60.3227 66.0196 59.9713 66.0483 59.4735 66.1057Z"
              fill="white"/>
        <path d="M71.83 69.4069C57.0716 64.8692 48.8725 49.4468 53.4992 34.9721C58.1258 20.4973 73.8505 12.4271 88.6088 16.9648C103.367 21.5025 111.596 36.925 106.969 51.3997C102.342 65.9031 86.6176 73.9446 71.83 69.4069Z"
              fill="url(#paint1_linear)"/>
        <path d="M58.6237 36.5517C62.3719 24.8628 75.1097 18.3435 87.0277 21.9909C98.9457 25.667 105.593 38.16 101.874 49.8489C98.1257 61.5378 85.3879 68.0572 73.4699 64.4098C61.5227 60.7336 54.8756 48.2406 58.6237 36.5517ZM98.4186 48.7863C101.581 38.9354 95.9588 28.424 85.915 25.3223C75.8711 22.2206 65.1537 27.7348 61.9912 37.5856C58.8287 47.4365 64.4509 57.9478 74.4948 61.0496C84.568 64.1226 95.2854 58.6371 98.4186 48.7863Z"
              fill="white"/>
        <path opacity="0.2"
              d="M74.5233 61.05C64.4794 57.9483 58.8865 47.4657 62.0197 37.5861C65.1822 27.7353 75.8703 22.2498 85.9435 25.3228C95.9873 28.4245 101.58 38.9072 98.4471 48.7868C95.2845 58.6663 84.5672 64.1518 74.5233 61.05Z"
              fill="#FCFCFC"/>
        <path d="M76.8312 29.8145C75.661 29.6032 74.7949 29.769 73.9442 29.9824C73.0934 30.1957 72.0229 30.8235 71.3896 31.4873C70.9049 31.9518 70.3561 32.7244 69.7419 33.7654C69.7419 33.7654 66.1233 40.0096 65.686 40.7508C65.2487 41.492 65.5478 42.1888 66.3468 42.6402C67.1459 43.0916 75.7457 47.9498 75.7457 47.9498L74.9644 49.2739C74.9644 49.2739 74.3758 50.2715 75.5839 50.954C76.792 51.6365 77.3806 50.6389 77.3806 50.6389L78.1619 49.3147L79.1424 49.8686L78.3611 51.1927C78.3611 51.1927 77.7615 52.1842 78.9805 52.8728C80.1995 53.5615 80.7773 52.5577 80.7773 52.5577L81.5586 51.2336L88.2357 55.0056C88.2357 55.0056 89.3671 55.3861 89.9369 54.4205C90.5067 53.4549 89.6042 52.6864 89.6042 52.6864L82.9271 48.9143L87.831 40.6032C87.831 40.6032 88.3221 39.7033 87.2567 39.1014C85.9359 38.3553 85.4148 39.2383 85.4148 39.2383L80.5109 47.5493L79.5304 46.9955L79.6164 46.8497L83.0463 41.037C84.3656 38.801 84.6145 36.8042 83.8474 35.0384C83.1136 33.3525 82.3238 32.1291 80.3351 31.0056C79.1827 30.3546 77.9538 30.0434 76.8241 29.816L76.8312 29.8145ZM81.1383 36.3116C81.5378 37.3146 81.4457 38.2896 80.6497 39.6387L77.2027 45.4806L77.1167 45.6263L68.8132 40.9356L72.3192 34.9937C72.8794 34.0444 73.3373 33.4259 73.6711 33.1647C74.3952 32.8299 74.9599 32.5659 75.8253 32.6218C76.7259 32.6808 77.6559 32.9842 78.6038 33.5196C79.956 34.2835 80.7424 35.3551 81.1359 36.3158L81.1383 36.3116Z"
              fill="white"/>
        <path d="M141.522 57.6045C133.265 72.4813 114.29 77.9955 99.092 69.9253C83.9237 61.8263 78.3015 43.216 86.5299 28.3105C94.7875 13.4337 113.763 7.91955 128.96 15.9898C144.158 24.0887 149.751 42.699 141.522 57.6045Z"
              fill="url(#paint2_linear)"/>
        <path d="M101.963 64.7568C89.6939 58.2375 85.1551 43.1309 91.8022 31.1261C98.4493 19.0926 113.852 14.6123 126.092 21.1604C138.361 27.6798 142.9 42.7863 136.253 54.7911C129.606 66.8246 114.203 71.2762 101.963 64.7568ZM124.189 24.578C113.881 19.0926 100.909 22.8261 95.3161 32.9642C89.6939 43.0735 93.5299 55.7963 103.867 61.2817C114.174 66.7959 127.146 63.0336 132.739 52.8956C138.361 42.7863 134.525 30.0922 124.189 24.578Z"
              fill="white"/>
        <path opacity="0.2"
              d="M132.74 52.9214C127.117 63.0594 114.204 66.8217 103.867 61.3075C93.5305 55.7934 89.6945 43.128 95.3167 32.99C100.939 22.8519 113.852 19.0897 124.189 24.6038C134.526 30.0893 138.362 42.7834 132.74 52.9214Z"
              fill="white"/>
        <path d="M127.801 37.1006C127.863 35.9379 127.583 35.1192 127.256 34.3215C126.929 33.5238 126.154 32.5668 125.399 32.0386C124.866 31.6286 124.011 31.1966 122.877 30.7359C122.877 30.7359 116.079 28.0363 115.271 27.7083C114.463 27.3803 113.796 27.761 113.442 28.5948C113.089 29.4287 109.283 38.4031 109.283 38.4031L107.84 37.8171C107.84 37.8171 106.752 37.3756 106.217 38.6363C105.683 39.8971 106.77 40.3386 106.77 40.3386L108.213 40.9246L107.78 41.9477L106.336 41.3617C106.336 41.3617 105.254 40.9089 104.714 42.1809C104.175 43.453 105.267 43.8832 105.267 43.8832L106.71 44.4692L103.755 51.4372C103.755 51.4372 103.517 52.5843 104.569 53.0116C105.622 53.439 106.283 52.4636 106.283 52.4636L109.238 45.4956L118.297 49.1738C118.297 49.1738 119.273 49.5333 119.744 48.4215C120.329 47.0432 119.367 46.6524 119.367 46.6524L110.308 42.9742L110.741 41.951L117.236 44.5881C119.673 45.5776 121.729 45.5598 123.419 44.5861C125.032 43.6553 126.169 42.7301 127.049 40.6547C127.559 39.4522 127.715 38.2195 127.799 37.0939L127.801 37.1006ZM121.777 42.1232C120.812 42.6411 119.812 42.6784 118.342 42.0813L111.815 39.4314L115.49 30.7663L121.967 33.3959C123.001 33.8161 123.688 34.18 123.996 34.4699C124.429 35.129 124.77 35.6425 124.826 36.4893C124.883 37.3708 124.696 38.3125 124.277 39.3017C123.678 40.7127 122.695 41.6149 121.772 42.1214L121.777 42.1232Z"
              fill="white"/>
        <path d="M17.6309 144.252C17.6309 150.111 22.521 154.936 28.5239 154.936H142.433C148.406 154.936 153.326 150.14 153.326 144.252V63.1193C153.326 57.2605 148.436 52.4355 142.433 52.4355H28.5239C22.5503 52.4355 17.6309 57.2317 17.6309 63.1193V144.252Z"
              fill="url(#paint3_linear)"/>
        <g opacity="0.05">
            <path opacity="0.05"
                  d="M153.294 63.1193C153.294 56.5712 147.614 52.4355 142.987 52.4355L28.4927 52.4643C22.5191 52.4643 17.5996 57.2605 17.5996 63.148V64.2968H153.265V63.1193H153.294Z"
                  fill="white"/>
            <path opacity="0.05"
                  d="M17.6299 142.673V144.252C17.6299 150.111 22.52 154.936 28.5229 154.936H142.432C148.405 154.936 153.325 150.14 153.325 144.252V142.673H17.6299Z"
                  fill="white"/>
        </g>
        <path d="M17.5986 108.926H65.9732V96.2609C65.9732 90.8903 61.5223 86.5249 56.0465 86.5249H17.5986V108.926Z"
              fill="#89B1FF"/>
        <path d="M7.73047 108.812C7.73047 113.493 11.5957 117.284 16.3688 117.284H57.4813C62.2543 117.284 66.1196 113.493 66.1196 108.812V97.7833C66.1196 93.102 62.2543 89.311 57.4813 89.311H16.3688C11.5957 89.311 7.73047 93.102 7.73047 97.7833V108.812Z"
              fill="url(#paint4_linear)"/>
        <path d="M48.7313 113.114C54.4719 113.047 59.0702 108.429 59.0019 102.799C58.9336 97.1684 54.2246 92.6585 48.4841 92.7254C42.7435 92.7924 38.1452 97.4109 38.2135 103.041C38.2817 108.671 42.9907 113.181 48.7313 113.114Z"
              fill="white"/>
        <g opacity="0.5">
            <path opacity="0.5"
                  d="M116.076 63.5211C115.989 63.435 115.901 63.4062 115.754 63.4062H111.069C110.835 63.4062 110.63 63.6073 110.63 63.837C110.63 63.9806 110.718 64.1242 110.835 64.1817C110.923 64.2391 111.011 64.2678 111.098 64.2678H115.784C116.018 64.2678 116.223 64.0668 116.223 63.837C116.223 63.7222 116.164 63.6073 116.076 63.5211Z"
                  fill="white"/>
            <path opacity="0.5"
                  d="M97.0131 63.4062H92.3279C92.0936 63.4062 91.8887 63.6073 91.8887 63.837C91.8887 64.0668 92.0936 64.2678 92.3279 64.2678H97.0131C97.2474 64.2678 97.4523 64.0668 97.4523 63.837C97.4523 63.6073 97.2766 63.4062 97.0131 63.4062Z"
                  fill="white"/>
            <path opacity="0.5"
                  d="M106.413 63.4062H101.728C101.494 63.4062 101.289 63.6073 101.289 63.837C101.289 64.0668 101.494 64.2678 101.728 64.2678H106.413C106.648 64.2678 106.853 64.0668 106.853 63.837C106.853 63.6073 106.648 63.4062 106.413 63.4062Z"
                  fill="white"/>
            <path opacity="0.5"
                  d="M68.9018 63.4062H64.2166C63.9823 63.4062 63.7773 63.6073 63.7773 63.837C63.7773 64.0668 63.9823 64.2678 64.2166 64.2678H68.9018C69.136 64.2678 69.341 64.0668 69.341 63.837C69.341 63.6073 69.136 63.4062 68.9018 63.4062Z"
                  fill="white"/>
            <path opacity="0.5"
                  d="M87.643 63.4062H82.9578C82.7235 63.4062 82.5186 63.6073 82.5186 63.837C82.5186 64.0668 82.7235 64.2678 82.9578 64.2678H87.643C87.8772 64.2678 88.0822 64.0668 88.0822 63.837C88.0822 63.6073 87.8772 63.4062 87.643 63.4062Z"
                  fill="white"/>
            <path opacity="0.5"
                  d="M22.0213 63.4065H17.5996V64.2681H22.0213C22.2555 64.2681 22.4312 64.067 22.4312 63.8373C22.4312 63.6075 22.2555 63.4065 22.0213 63.4065Z"
                  fill="white"/>
            <path opacity="0.5"
                  d="M31.3627 63.4062H26.6775C26.4433 63.4062 26.2383 63.6073 26.2383 63.837C26.2383 64.0668 26.4433 64.2678 26.6775 64.2678H31.3627C31.597 64.2678 31.8019 64.0668 31.8019 63.837C31.8019 63.6073 31.6263 63.4062 31.3627 63.4062Z"
                  fill="white"/>
            <path opacity="0.5"
                  d="M59.5024 63.4062H54.8172C54.5829 63.4062 54.3779 63.6073 54.3779 63.837C54.3779 64.0668 54.5829 64.2678 54.8172 64.2678H59.5024C59.7366 64.2678 59.9416 64.0668 59.9416 63.837C59.9416 63.6073 59.7659 63.4062 59.5024 63.4062Z"
                  fill="white"/>
            <path opacity="0.5"
                  d="M40.7621 63.4062H36.0769C35.8427 63.4062 35.6377 63.6073 35.6377 63.837C35.6377 64.0668 35.8427 64.2678 36.0769 64.2678H40.7621C40.9964 64.2678 41.2014 64.0668 41.2014 63.837C41.2014 63.6073 40.9964 63.4062 40.7621 63.4062Z"
                  fill="white"/>
            <path opacity="0.5"
                  d="M50.1332 63.4062H45.448C45.2138 63.4062 45.0088 63.6073 45.0088 63.837C45.0088 64.0668 45.2138 64.2678 45.448 64.2678H50.1332C50.3675 64.2678 50.5724 64.0668 50.5724 63.837C50.5724 63.6073 50.3675 63.4062 50.1332 63.4062Z"
                  fill="white"/>
            <path opacity="0.5"
                  d="M78.2739 63.4062H73.5887C73.3544 63.4062 73.1494 63.6073 73.1494 63.837C73.1494 64.0668 73.3544 64.2678 73.5887 64.2678H78.2739C78.5081 64.2678 78.7131 64.0668 78.7131 63.837C78.7131 63.6073 78.5081 63.4062 78.2739 63.4062Z"
                  fill="white"/>
            <path opacity="0.5"
                  d="M134.525 63.4062H129.84C129.605 63.4062 129.4 63.6073 129.4 63.837C129.4 64.0668 129.605 64.2678 129.84 64.2678H134.525C134.759 64.2678 134.964 64.0668 134.964 63.837C134.964 63.6073 134.759 63.4062 134.525 63.4062Z"
                  fill="white"/>
            <path opacity="0.5"
                  d="M125.155 63.4062H120.47C120.235 63.4062 120.03 63.6073 120.03 63.837C120.03 64.0668 120.235 64.2678 120.47 64.2678H125.155C125.389 64.2678 125.594 64.0668 125.594 63.837C125.594 63.6073 125.389 63.4062 125.155 63.4062Z"
                  fill="white"/>
            <path opacity="0.5"
                  d="M143.895 63.4062H139.21C138.975 63.4062 138.771 63.6073 138.771 63.837C138.771 64.0668 138.975 64.2678 139.21 64.2678H143.895C144.129 64.2678 144.334 64.0668 144.334 63.837C144.334 63.6073 144.158 63.4062 143.895 63.4062Z"
                  fill="white"/>
            <path opacity="0.5"
                  d="M153.266 63.4062H148.581C148.347 63.4062 148.142 63.6073 148.142 63.837C148.142 64.0668 148.347 64.2678 148.581 64.2678H153.266V63.4062Z"
                  fill="white"/>
        </g>
        <g opacity="0.5">
            <path opacity="0.5"
                  d="M68.434 142.644H63.8074C63.5731 142.644 63.3682 142.845 63.3682 143.074C63.3682 143.304 63.5731 143.505 63.8074 143.505H68.434C68.6683 143.505 68.8732 143.304 68.8732 143.074C68.8732 142.845 68.6683 142.644 68.434 142.644Z"
                  fill="white"/>
            <path opacity="0.5"
                  d="M86.9106 142.644H82.284C82.0497 142.644 81.8447 142.845 81.8447 143.074C81.8447 143.304 82.0497 143.505 82.284 143.505H86.9106C87.1448 143.505 87.3498 143.304 87.3498 143.074C87.3498 142.845 87.1741 142.644 86.9106 142.644Z"
                  fill="white"/>
            <path opacity="0.5"
                  d="M22.2262 142.644H17.5996V143.505H22.2262C22.4605 143.505 22.6655 143.304 22.6655 143.074C22.6655 142.845 22.4605 142.644 22.2262 142.644Z"
                  fill="white"/>
            <path opacity="0.5"
                  d="M31.4799 142.644H26.8533C26.619 142.644 26.4141 142.845 26.4141 143.074C26.4141 143.304 26.619 143.505 26.8533 143.505H31.4799C31.7142 143.505 31.9192 143.304 31.9192 143.074C31.8899 142.845 31.7142 142.644 31.4799 142.644Z"
                  fill="white"/>
            <path opacity="0.5"
                  d="M59.1811 142.644H54.5545C54.3202 142.644 54.1152 142.845 54.1152 143.074C54.1152 143.304 54.3202 143.505 54.5545 143.505H59.1811C59.4154 143.505 59.6203 143.304 59.6203 143.074C59.6203 142.845 59.4446 142.644 59.1811 142.644Z"
                  fill="white"/>
            <path opacity="0.5"
                  d="M40.7036 142.644H36.0769C35.8427 142.644 35.6377 142.845 35.6377 143.074C35.6377 143.304 35.8427 143.505 36.0769 143.505H40.7036C40.9378 143.505 41.1428 143.304 41.1428 143.074C41.1428 142.845 40.9378 142.644 40.7036 142.644Z"
                  fill="white"/>
            <path opacity="0.5"
                  d="M49.9575 142.644H45.3308C45.0966 142.644 44.8916 142.845 44.8916 143.074C44.8916 143.304 45.0966 143.505 45.3308 143.505H49.9575C50.1917 143.505 50.3967 143.304 50.3967 143.074C50.3967 142.845 50.1917 142.644 49.9575 142.644Z"
                  fill="white"/>
            <path opacity="0.5"
                  d="M77.6879 142.644H73.0613C72.827 142.644 72.6221 142.845 72.6221 143.074C72.6221 143.304 72.827 143.505 73.0613 143.505H77.6879C77.9222 143.505 78.1272 143.304 78.1272 143.074C78.1272 142.845 77.9222 142.644 77.6879 142.644Z"
                  fill="white"/>
        </g>
        <path d="M154.611 145.775C138.184 145.804 124.89 151.749 124.89 159.072C124.89 166.396 138.184 172.341 154.611 172.369C171.039 172.341 184.333 166.396 184.333 159.072C184.333 151.749 171.039 145.804 154.611 145.775Z"
              fill="white"/>
        <path d="M178.919 165.334C177.367 166.282 175.551 167.114 173.501 167.832C171.832 168.436 170.017 168.953 168.084 169.383C166.357 169.757 164.57 170.073 162.667 170.302C160.91 170.503 159.124 170.676 157.25 170.733C156.371 170.762 155.493 170.791 154.614 170.791C153.677 170.791 152.74 170.762 151.832 170.733C149.988 170.647 148.172 170.503 146.415 170.274C144.541 170.044 142.726 169.728 140.998 169.326C139.065 168.895 137.25 168.378 135.581 167.775C133.531 167.028 131.715 166.195 130.163 165.248C127.499 163.611 125.625 161.715 124.863 159.619C124.863 161.399 124.863 165.075 124.863 166.741C125.712 168.694 127.557 170.503 130.163 172.083C131.715 173.031 133.531 173.892 135.581 174.639C137.25 175.242 139.065 175.788 140.998 176.247C142.726 176.649 144.541 176.965 146.415 177.224C148.172 177.454 149.988 177.626 151.832 177.683C152.74 177.712 153.677 177.741 154.614 177.741C155.493 177.741 156.371 177.712 157.25 177.683C159.094 177.597 160.91 177.454 162.667 177.224C164.541 176.994 166.357 176.649 168.084 176.247C170.017 175.817 171.832 175.271 173.501 174.668C175.551 173.921 177.367 173.088 178.919 172.14C181.554 170.532 183.457 168.694 184.336 166.741C184.336 165.075 184.336 161.428 184.336 159.619C183.575 161.744 181.671 163.668 178.919 165.334Z"
              fill="url(#paint5_linear)"/>
        <path d="M154.616 158.323L154.586 158.122V157.921H154.616C154.996 157.921 155.406 157.921 155.787 157.921V158.295C155.406 158.323 155.026 158.323 154.616 158.323ZM153.415 158.295C153.005 158.295 152.624 158.266 152.214 158.266L152.244 157.893C152.624 157.921 153.034 157.921 153.415 157.921V158.295ZM156.988 158.266V157.893C157.397 157.864 157.778 157.864 158.188 157.835L158.217 158.208C157.778 158.237 157.397 158.266 156.988 158.266ZM151.014 158.208C150.604 158.18 150.223 158.151 149.813 158.122L149.843 157.749C150.223 157.778 150.633 157.806 151.014 157.835V158.208ZM159.359 158.122L159.33 157.749C159.74 157.72 160.121 157.692 160.501 157.634L160.531 158.007C160.179 158.065 159.769 158.094 159.359 158.122ZM148.642 158.036C148.232 158.007 147.851 157.95 147.441 157.893L147.5 157.519C147.881 157.577 148.291 157.605 148.671 157.663L148.642 158.036ZM161.761 157.893L161.702 157.519C162.112 157.462 162.493 157.433 162.873 157.376L162.932 157.749C162.551 157.806 162.141 157.864 161.761 157.893ZM146.27 157.749C145.86 157.692 145.48 157.634 145.099 157.577L145.157 157.203C145.538 157.261 145.948 157.318 146.329 157.376L146.27 157.749ZM164.132 157.548L164.074 157.175C164.455 157.117 164.865 157.031 165.245 156.974L165.333 157.347C164.923 157.433 164.513 157.49 164.132 157.548ZM143.898 157.347C143.488 157.261 143.108 157.203 142.727 157.117L142.815 156.744C143.195 156.83 143.576 156.916 143.986 156.974L143.898 157.347ZM166.475 157.117L166.387 156.744C166.768 156.658 167.178 156.571 167.529 156.485L167.617 156.859C167.266 156.945 166.856 157.031 166.475 157.117ZM141.556 156.83C141.175 156.744 140.765 156.629 140.384 156.514L140.502 156.141C140.882 156.256 141.263 156.342 141.644 156.428L141.556 156.83ZM168.788 156.543L168.671 156.169C169.052 156.055 169.433 155.94 169.813 155.825L169.93 156.198C169.55 156.313 169.169 156.428 168.788 156.543ZM139.272 156.198C138.891 156.083 138.51 155.94 138.13 155.825L138.276 155.451C138.627 155.566 139.008 155.71 139.389 155.825L139.272 156.198ZM171.072 155.825L170.926 155.451C171.307 155.308 171.687 155.193 172.039 155.049L172.185 155.423C171.834 155.538 171.453 155.681 171.072 155.825ZM137.017 155.394C136.636 155.25 136.285 155.078 135.904 154.934L136.08 154.59C136.431 154.762 136.783 154.906 137.163 155.049L137.017 155.394ZM173.298 154.934L173.122 154.59C173.474 154.417 173.854 154.245 174.176 154.073L174.352 154.417C174.03 154.59 173.649 154.762 173.298 154.934ZM134.821 154.389C134.469 154.188 134.118 153.987 133.767 153.786L133.972 153.47C134.294 153.671 134.645 153.872 134.996 154.044L134.821 154.389ZM175.406 153.843L175.201 153.527C175.553 153.326 175.875 153.096 176.168 152.895L176.402 153.211C176.109 153.384 175.758 153.613 175.406 153.843ZM132.8 153.125C132.449 152.867 132.156 152.637 131.863 152.378L132.127 152.091C132.39 152.35 132.712 152.579 133.034 152.809L132.8 153.125ZM177.368 152.407L177.105 152.12C177.397 151.861 177.69 151.574 177.924 151.316L178.217 151.574C177.954 151.861 177.661 152.149 177.368 152.407ZM131.014 151.517C130.75 151.201 130.516 150.856 130.311 150.54L130.663 150.339C130.838 150.655 131.073 150.971 131.307 151.258L131.014 151.517ZM178.92 150.569L178.569 150.368C178.774 150.023 178.92 149.679 179.008 149.334L179.389 149.449C179.271 149.851 179.125 150.224 178.92 150.569ZM129.843 149.42C129.726 149.018 129.667 148.616 129.667 148.243H130.048C130.048 148.616 130.106 148.961 130.194 149.334L129.843 149.42ZM179.564 148.272H179.184H179.389L179.184 148.243C179.184 147.898 179.125 147.525 179.037 147.18L179.418 147.065C179.535 147.439 179.594 147.841 179.594 148.243V148.272H179.564ZM130.223 147.123L129.843 147.008C129.96 146.634 130.106 146.261 130.311 145.888L130.663 146.089C130.487 146.433 130.311 146.778 130.223 147.123ZM178.598 146.146C178.422 145.83 178.188 145.514 177.954 145.227L178.247 144.969C178.51 145.285 178.744 145.629 178.949 145.945L178.598 146.146ZM131.336 145.17L131.043 144.911C131.278 144.624 131.57 144.337 131.892 144.05L132.156 144.337C131.834 144.624 131.57 144.911 131.336 145.17ZM177.134 144.394C176.87 144.136 176.548 143.906 176.226 143.676L176.46 143.36C176.812 143.619 177.105 143.877 177.397 144.107L177.134 144.394ZM133.034 143.619L132.8 143.303C133.122 143.073 133.444 142.843 133.796 142.642L134.001 142.987C133.679 143.188 133.357 143.418 133.034 143.619ZM175.26 143.016C174.938 142.815 174.586 142.614 174.235 142.441L174.411 142.097C174.762 142.298 175.113 142.499 175.465 142.7L175.26 143.016ZM135.026 142.413L134.85 142.068C135.201 141.896 135.553 141.723 135.933 141.551L136.109 141.896C135.728 142.068 135.377 142.24 135.026 142.413ZM173.181 141.924C172.829 141.752 172.478 141.609 172.097 141.465L172.244 141.12C172.624 141.264 172.976 141.436 173.356 141.58L173.181 141.924ZM137.193 141.436L137.046 141.063C137.398 140.919 137.778 140.776 138.159 140.632L138.305 141.005C137.895 141.149 137.544 141.293 137.193 141.436ZM171.014 141.034C170.662 140.891 170.282 140.776 169.901 140.661L170.018 140.287C170.399 140.402 170.78 140.546 171.16 140.661L171.014 141.034ZM139.418 140.661L139.301 140.287C139.682 140.173 140.062 140.058 140.443 139.943L140.56 140.316C140.15 140.431 139.769 140.517 139.418 140.661ZM168.759 140.316C168.378 140.201 167.998 140.115 167.617 140L167.705 139.627C168.086 139.713 168.496 139.828 168.847 139.943L168.759 140.316ZM141.673 140L141.585 139.627C141.966 139.541 142.346 139.455 142.756 139.368L142.844 139.742C142.434 139.828 142.053 139.914 141.673 140ZM166.446 139.742C166.065 139.656 165.684 139.569 165.274 139.512L165.362 139.139C165.772 139.225 166.153 139.282 166.534 139.368L166.446 139.742ZM143.986 139.512L143.898 139.139C144.279 139.053 144.689 138.995 145.07 138.938L145.128 139.311C144.777 139.368 144.396 139.426 143.986 139.512ZM164.132 139.311C163.752 139.254 163.342 139.196 162.961 139.139L163.02 138.765C163.43 138.823 163.81 138.88 164.191 138.938L164.132 139.311ZM146.329 139.11L146.27 138.737C146.651 138.679 147.061 138.622 147.441 138.593L147.5 138.966C147.119 138.995 146.739 139.053 146.329 139.11ZM161.79 138.966C161.409 138.909 160.999 138.88 160.619 138.823L160.648 138.449C161.058 138.478 161.438 138.536 161.848 138.593L161.79 138.966ZM148.701 138.823L148.671 138.449C149.052 138.421 149.462 138.363 149.872 138.335L149.901 138.708C149.491 138.765 149.081 138.794 148.701 138.823ZM159.418 138.737C159.037 138.708 158.627 138.679 158.247 138.65L158.276 138.277C158.686 138.306 159.067 138.335 159.477 138.363L159.418 138.737ZM151.072 138.65L151.043 138.277C151.453 138.248 151.834 138.22 152.244 138.22L152.273 138.593C151.863 138.593 151.453 138.622 151.072 138.65ZM157.046 138.593C156.665 138.564 156.255 138.564 155.875 138.564V138.191C156.285 138.191 156.665 138.22 157.075 138.22L157.046 138.593ZM153.444 138.564V138.191C153.854 138.191 154.235 138.191 154.645 138.191H154.704V138.593H154.645C154.235 138.536 153.825 138.536 153.444 138.564Z"
              fill="url(#paint6_linear)"/>
        <path d="M178.919 156.716C177.367 157.664 175.551 158.497 173.501 159.215C171.832 159.818 170.017 160.335 168.084 160.766C166.357 161.139 164.57 161.455 162.667 161.685C160.91 161.886 159.124 162.058 157.25 162.116C156.371 162.144 155.493 162.173 154.614 162.173C153.677 162.173 152.74 162.144 151.832 162.116C149.988 162.03 148.172 161.886 146.415 161.656C144.541 161.426 142.726 161.111 140.998 160.708C139.065 160.278 137.25 159.761 135.581 159.158C133.531 158.411 131.715 157.578 130.163 156.63C127.499 154.993 125.625 153.069 124.863 151.001C124.863 152.782 124.863 156.458 124.863 158.124C125.712 160.077 127.557 161.886 130.163 163.466C131.715 164.413 133.531 165.275 135.581 166.022C137.25 166.625 139.065 167.17 140.998 167.63C142.726 168.032 144.541 168.348 146.415 168.606C148.172 168.836 149.988 169.008 151.832 169.066C152.74 169.095 153.677 169.123 154.614 169.123C155.493 169.123 156.371 169.095 157.25 169.066C159.094 168.98 160.91 168.836 162.667 168.606C164.541 168.377 166.357 168.032 168.084 167.63C170.017 167.199 171.832 166.653 173.501 166.05C175.551 165.304 177.367 164.442 178.919 163.523C181.554 161.915 183.457 160.077 184.336 158.124C184.336 156.458 184.336 152.696 184.336 150.915C183.575 153.04 181.671 155.079 178.919 156.716Z"
              fill="url(#paint7_linear)"/>
        <path d="M154.611 129.089C138.184 129.118 124.89 135.063 124.89 142.387C124.89 149.71 138.184 155.655 154.611 155.684C171.039 155.655 184.333 149.71 184.333 142.387C184.333 135.063 171.039 129.118 154.611 129.089Z"
              fill="white"/>
        <path d="M178.919 148.647C177.367 149.595 175.551 150.427 173.501 151.145C171.832 151.749 170.017 152.266 168.084 152.696C166.357 153.07 164.57 153.386 162.667 153.615C160.91 153.816 159.124 153.989 157.25 154.046C156.371 154.075 155.493 154.104 154.614 154.104C153.677 154.104 152.74 154.075 151.832 154.046C149.988 153.96 148.172 153.816 146.415 153.587C144.541 153.357 142.726 153.041 140.998 152.639C139.065 152.208 137.25 151.691 135.581 151.088C133.531 150.341 131.715 149.508 130.163 148.561C127.499 146.924 125.625 144.999 124.863 142.932C124.863 144.712 124.863 148.388 124.863 150.054C125.712 152.007 127.557 153.816 130.163 155.396C131.715 156.344 133.531 157.205 135.581 157.952C137.25 158.555 139.065 159.101 140.998 159.56C142.726 159.962 144.541 160.278 146.415 160.537C148.172 160.767 149.988 160.939 151.832 161.025C152.74 161.054 153.677 161.082 154.614 161.082C155.493 161.082 156.371 161.054 157.25 161.025C159.094 160.939 160.91 160.795 162.667 160.565C164.541 160.336 166.357 159.991 168.084 159.589C170.017 159.158 171.832 158.613 173.501 158.009C175.551 157.263 177.367 156.401 178.919 155.482C181.554 153.874 183.457 152.036 184.336 150.054C184.336 148.388 184.336 144.741 184.336 142.932C183.575 145.057 181.671 146.981 178.919 148.647Z"
              fill="url(#paint8_linear)"/>
        <path d="M154.611 122.339C138.184 122.368 124.89 128.313 124.89 135.636C124.89 142.96 138.184 148.905 154.611 148.933C171.039 148.905 184.333 142.96 184.333 135.636C184.333 128.313 171.039 122.368 154.611 122.339Z"
              fill="white"/>
        <path d="M178.919 140.577C177.367 141.524 175.551 142.357 173.501 143.075C171.832 143.678 170.017 144.195 168.084 144.626C166.357 144.999 164.57 145.315 162.667 145.545C160.91 145.746 159.124 145.918 157.25 145.976C156.371 146.005 155.493 146.033 154.614 146.033C153.677 146.033 152.74 146.005 151.832 145.976C149.988 145.89 148.172 145.746 146.415 145.516C144.541 145.287 142.726 144.971 140.998 144.569C139.065 144.138 137.25 143.621 135.581 143.018C133.531 142.271 131.715 141.438 130.163 140.49C127.499 138.853 125.625 136.929 124.863 134.861C124.863 136.642 124.863 140.318 124.863 141.984C125.712 143.937 127.557 145.746 130.163 147.326C131.715 148.273 133.531 149.135 135.581 149.882C137.25 150.485 139.065 151.03 140.998 151.49C142.726 151.892 144.541 152.208 146.415 152.466C148.172 152.696 149.988 152.869 151.832 152.926C152.74 152.955 153.677 152.983 154.614 152.983C155.493 152.983 156.371 152.955 157.25 152.926C159.094 152.84 160.91 152.696 162.667 152.466C164.541 152.237 166.357 151.892 168.084 151.49C170.017 151.059 171.832 150.514 173.501 149.91C175.551 149.164 177.367 148.302 178.919 147.383C181.554 145.775 183.457 143.937 184.336 141.984C184.336 140.318 184.336 136.671 184.336 134.861C183.575 136.987 181.671 138.911 178.919 140.577Z"
              fill="url(#paint9_linear)"/>
        <path d="M154.611 112.689C138.184 112.718 124.89 118.663 124.89 125.987C124.89 133.31 138.184 139.255 154.611 139.284C171.039 139.255 184.333 133.31 184.333 125.987C184.333 118.663 171.039 112.718 154.611 112.689Z"
              fill="white"/>
        <path d="M178.919 132.219C177.367 133.166 175.551 133.999 173.501 134.717C171.832 135.32 170.017 135.837 168.084 136.268C166.357 136.641 164.57 136.957 162.667 137.187C160.91 137.388 159.124 137.56 157.25 137.618C156.371 137.647 155.493 137.675 154.614 137.675C153.677 137.675 152.74 137.647 151.832 137.618C149.988 137.532 148.172 137.388 146.415 137.158C144.541 136.929 142.726 136.613 140.998 136.211C139.065 135.78 137.25 135.263 135.581 134.66C133.531 133.913 131.715 133.08 130.163 132.132C127.499 130.495 125.625 128.571 124.863 126.503C124.863 128.284 124.863 131.96 124.863 133.626C125.712 135.579 127.557 137.388 130.163 138.968C131.715 139.916 133.531 140.777 135.581 141.524C137.25 142.127 139.065 142.673 140.998 143.132C142.726 143.534 144.541 143.85 146.415 144.109C148.172 144.338 149.988 144.511 151.832 144.568C152.74 144.597 153.677 144.626 154.614 144.626C155.493 144.626 156.371 144.597 157.25 144.568C159.094 144.482 160.91 144.338 162.667 144.109C164.541 143.879 166.357 143.534 168.084 143.132C170.017 142.701 171.832 142.156 173.501 141.553C175.551 140.806 177.367 139.944 178.919 139.025C181.554 137.417 183.457 135.579 184.336 133.626C184.336 131.96 184.336 128.313 184.336 126.503C183.575 128.629 181.671 130.582 178.919 132.219Z"
              fill="url(#paint10_linear)"/>
        <path d="M154.611 104.619C138.184 104.647 124.89 110.592 124.89 117.916C124.89 125.239 138.184 131.184 154.611 131.213C171.039 131.184 184.333 125.239 184.333 117.916C184.333 110.564 171.039 104.619 154.611 104.619Z"
              fill="white"/>
        <path d="M178.919 124.148C177.367 125.096 175.551 125.928 173.501 126.646C171.832 127.25 170.017 127.766 168.084 128.197C166.357 128.571 164.57 128.887 162.667 129.116C160.91 129.317 159.124 129.49 157.25 129.547C156.371 129.576 155.493 129.605 154.614 129.605C153.677 129.605 152.74 129.576 151.832 129.547C149.988 129.461 148.172 129.317 146.415 129.088C144.541 128.858 142.726 128.542 140.998 128.14C139.065 127.709 137.25 127.192 135.581 126.589C133.531 125.842 131.715 125.009 130.163 124.062C127.499 122.425 125.625 120.5 124.863 118.433C124.863 120.213 124.863 123.889 124.863 125.555C125.712 127.508 127.557 129.317 130.163 130.897C131.715 131.845 133.531 132.706 135.581 133.453C137.25 134.056 139.065 134.602 140.998 135.061C142.726 135.463 144.541 135.779 146.415 136.038C148.172 136.267 149.988 136.44 151.832 136.497C152.74 136.526 153.677 136.555 154.614 136.555C155.493 136.555 156.371 136.526 157.25 136.497C159.094 136.411 160.91 136.267 162.667 136.038C164.541 135.808 166.357 135.463 168.084 135.061C170.017 134.63 171.832 134.085 173.501 133.482C175.551 132.735 177.367 131.902 178.919 130.954C181.554 129.346 183.457 127.508 184.336 125.555C184.336 123.889 184.336 120.242 184.336 118.433C183.575 120.558 181.671 122.511 178.919 124.148Z"
              fill="url(#paint11_linear)"/>
        <path d="M154.611 96.2617C138.184 96.2904 124.89 102.235 124.89 109.559C124.89 116.882 138.184 122.827 154.611 122.856C171.039 122.827 184.333 116.882 184.333 109.559C184.333 102.235 171.039 96.2904 154.611 96.2617Z"
              fill="white"/>
        <path d="M178.919 115.82C177.367 116.767 175.551 117.6 173.501 118.318C171.832 118.921 170.017 119.438 168.084 119.869C166.357 120.243 164.57 120.558 162.667 120.788C160.91 120.989 159.124 121.162 157.25 121.219C156.371 121.248 155.493 121.276 154.614 121.276C153.677 121.276 152.74 121.248 151.832 121.219C149.988 121.133 148.172 120.989 146.415 120.759C144.541 120.53 142.726 120.214 140.998 119.812C139.065 119.381 137.25 118.864 135.581 118.261C133.531 117.514 131.715 116.681 130.163 115.734C127.499 114.097 125.625 112.172 124.863 110.104C124.863 111.885 124.863 115.561 124.863 117.227C125.712 119.18 127.557 120.989 130.163 122.569C131.715 123.517 133.531 124.378 135.581 125.125C137.25 125.728 139.065 126.274 140.998 126.733C142.726 127.135 144.541 127.451 146.415 127.71C148.172 127.939 149.988 128.112 151.832 128.169C152.74 128.198 153.677 128.227 154.614 128.227C155.493 128.227 156.371 128.198 157.25 128.169C159.094 128.083 160.91 127.939 162.667 127.71C164.541 127.48 166.357 127.135 168.084 126.733C170.017 126.274 171.832 125.757 173.501 125.154C175.551 124.407 177.367 123.545 178.919 122.626C181.554 121.018 183.457 119.18 184.336 117.227C184.336 115.561 184.336 111.914 184.336 110.104C183.575 112.23 181.671 114.154 178.919 115.82Z"
              fill="url(#paint12_linear)"/>
        <path d="M154.613 87.9331C138.185 87.9618 124.891 93.9068 124.891 101.23C124.891 108.554 138.185 114.499 154.613 114.527C171.04 114.499 184.334 108.554 184.334 101.23C184.334 93.9068 171.04 87.9618 154.613 87.9331Z"
              fill="url(#paint13_linear)"/>
        <path opacity="0.2"
              d="M154.614 90.1431C140.939 90.1718 129.87 94.5946 129.87 100.023C129.87 105.451 140.939 109.902 154.614 109.902C168.289 109.873 179.357 105.451 179.357 100.023C179.357 94.5946 168.289 90.1718 154.614 90.1431Z"
              fill="white"/>
        <path d="M178.919 107.463C177.367 108.411 175.551 109.244 173.501 109.962C171.832 110.565 170.017 111.082 168.084 111.513C166.357 111.886 164.57 112.202 162.667 112.432C160.91 112.633 159.124 112.805 157.25 112.863C156.371 112.891 155.493 112.92 154.614 112.92C153.677 112.92 152.74 112.891 151.832 112.863C149.988 112.776 148.172 112.633 146.415 112.403C144.541 112.173 142.726 111.857 140.998 111.455C139.065 111.024 137.25 110.508 135.581 109.904C133.531 109.158 131.715 108.325 130.163 107.377C127.499 105.74 125.625 103.816 124.863 101.748C124.863 103.529 124.863 107.205 124.863 108.871C125.712 110.823 127.557 112.633 130.163 114.212C131.715 115.16 133.531 116.022 135.581 116.768C137.25 117.372 139.065 117.917 140.998 118.377C142.726 118.779 144.541 119.095 146.415 119.353C148.172 119.583 149.988 119.755 151.832 119.813C152.74 119.841 153.677 119.87 154.614 119.87C155.493 119.87 156.371 119.841 157.25 119.813C159.094 119.727 160.91 119.583 162.667 119.353C164.541 119.123 166.357 118.779 168.084 118.377C170.017 117.946 171.832 117.4 173.501 116.797C175.551 116.05 177.367 115.189 178.919 114.27C181.554 112.662 183.457 110.823 184.336 108.871C184.336 107.205 184.336 103.557 184.336 101.748C183.575 103.873 181.671 105.826 178.919 107.463Z"
              fill="url(#paint14_linear)"/>
        <path d="M154.672 110.736C142.637 110.736 129.841 107.089 129.841 100.397C129.841 93.7055 142.637 90.0581 154.643 90.0581C166.678 90.0581 179.445 93.7055 179.445 100.397C179.475 107.089 166.678 110.707 154.672 110.736ZM154.643 92.9013C141.759 92.9301 132.769 96.8646 132.769 100.368C132.769 103.872 141.759 107.836 154.643 107.836C167.527 107.807 176.517 103.872 176.517 100.368C176.517 96.8646 167.557 92.9013 154.643 92.9013Z"
              fill="white"/>
        <path d="M141.731 103.992C143.607 102.855 145.787 102.055 147.843 101.038C147.595 100.915 147.398 100.807 147.2 100.711C146.287 100.269 147.91 99.4858 149.219 99.7097C149.57 99.7751 149.976 99.9998 150.206 100.1C150.388 99.9218 150.721 99.7594 150.723 99.7097C150.525 99.6137 150.327 99.5177 150.13 99.4093C149.932 99.2258 149.927 98.8676 150.388 98.5589C151.102 98.0801 151.664 98.3568 152.746 98.6665C152.979 98.7392 153.375 98.5824 153.65 98.4702C156.028 97.4179 158.422 96.3789 160.768 95.2879C161.803 94.811 162.756 94.6541 163.898 95.1408C164.625 95.4597 165.444 95.6455 166.225 95.9045C167.721 96.3945 168.013 97.0053 166.828 97.8118C165.573 98.665 164.155 99.3988 162.674 100.03C161.538 100.515 160.225 100.805 158.962 101.098C157.359 101.462 155.758 101.403 154.217 100.799C153.72 100.603 152.46 100.297 151.963 100.1C151.963 100.1 151.717 100.115 151.311 100.495C152.707 100.956 152.945 101.194 154.325 101.641C155.404 101.991 153.538 103.182 151.963 102.412C150.915 102.079 150.723 101.901 149.656 101.605C149.342 101.517 149.219 101.436 149.219 101.436C149.219 101.436 144.954 103.476 143.3 104.2C142.344 104.618 141.089 104.381 141.731 103.992ZM154.175 99.1536C155.006 99.4272 155.674 99.5939 156.286 99.8578C157.61 100.427 158.912 100.373 160.23 99.9712C160.795 99.7971 161.392 99.6618 161.893 99.4226C162.841 98.9791 163.791 98.5109 164.643 97.976C165.287 97.5564 165.183 97.2653 164.419 96.9946C163.556 96.6822 162.675 96.3939 161.776 96.1297C161.543 96.0571 161.189 96.0414 160.999 96.1325C158.76 97.0913 156.554 98.0889 154.175 99.1536Z"
              fill="white"/>
        <path d="M93.0021 175.901C80.3813 167.113 77.3945 149.968 86.3549 137.589C95.3154 125.211 112.797 122.282 125.418 131.07C138.038 139.858 141.025 157.004 132.065 169.382C123.134 181.76 105.623 184.69 93.0021 175.901Z"
              fill="url(#paint15_linear)"/>
        <path d="M90.7483 140.633C97.9811 130.639 112.154 128.284 122.344 135.349C132.534 142.442 134.935 156.343 127.732 166.337C120.499 176.332 106.327 178.687 96.1363 171.622C85.9167 164.528 83.5155 150.628 90.7483 140.633ZM124.774 164.298C130.865 155.883 128.815 144.166 120.236 138.221C111.656 132.247 99.7087 134.257 93.6472 142.672C87.5565 151.087 89.6063 162.805 98.186 168.75C106.766 174.723 118.684 172.713 124.774 164.298Z"
              fill="white"/>
        <path opacity="0.2"
              d="M98.185 168.75C89.5759 162.776 87.5555 151.088 93.6462 142.673C99.7369 134.229 111.655 132.248 120.235 138.221C128.814 144.195 130.864 155.884 124.773 164.299C118.683 172.742 106.765 174.724 98.185 168.75Z"
              fill="#FCFCFC"/>
        <path d="M105.184 140.777C104.014 140.566 103.147 140.731 102.297 140.945C101.446 141.158 100.375 141.786 99.7422 142.45C99.2574 142.914 98.7086 143.687 98.0944 144.728C98.0944 144.728 94.4759 150.972 94.0386 151.713C93.6012 152.454 93.9003 153.151 94.6994 153.603C95.4984 154.054 104.098 158.912 104.098 158.912L103.317 160.236C103.317 160.236 102.728 161.234 103.936 161.916C105.145 162.599 105.733 161.601 105.733 161.601L106.514 160.277L107.495 160.831L106.714 162.155C106.714 162.155 106.114 163.147 107.333 163.835C108.552 164.524 109.13 163.52 109.13 163.52L109.911 162.196L116.588 165.968C116.588 165.968 117.72 166.349 118.289 165.383C118.859 164.417 117.957 163.649 117.957 163.649L111.28 159.877L116.184 151.566C116.184 151.566 116.675 150.666 115.609 150.064C114.288 149.318 113.767 150.201 113.767 150.201L108.863 158.512L107.883 157.958L107.969 157.812L111.399 151.999C112.718 149.763 112.967 147.767 112.2 146.001C111.466 144.315 110.676 143.091 108.688 141.968C107.535 141.317 106.306 141.006 105.177 140.778L105.184 140.777ZM109.491 147.274C109.89 148.277 109.798 149.252 109.002 150.601L105.555 156.443L105.469 156.589L97.1658 151.898L100.672 145.956C101.232 145.007 101.69 144.388 102.024 144.127C102.748 143.792 103.312 143.528 104.178 143.584C105.078 143.643 106.008 143.947 106.956 144.482C108.309 145.246 109.095 146.318 109.488 147.278L109.491 147.274Z"
              fill="white"/>
    </g>
    <defs>
        <linearGradient id="paint0_linear" x1="53.2524" y1="33.1787" x2="53.2524" y2="88.1781"
                        gradientUnits="userSpaceOnUse">
            <stop stop-color="#DFEAFF"/>
            <stop offset="1" stop-color="#38B7FF"/>
        </linearGradient>
        <linearGradient id="paint1_linear" x1="80.2327" y1="15.7012" x2="80.2327" y2="70.6731"
                        gradientUnits="userSpaceOnUse">
            <stop stop-color="#DFEAFF"/>
            <stop offset="1" stop-color="#89B1FF"/>
        </linearGradient>
        <linearGradient id="paint2_linear" x1="114.029" y1="12.2749" x2="114.029" y2="73.6401"
                        gradientUnits="userSpaceOnUse">
            <stop stop-color="#BEFBFF"/>
            <stop offset="1" stop-color="#C1D6FF"/>
        </linearGradient>
        <linearGradient id="paint3_linear" x1="152.751" y1="52.3259" x2="25.7583" y2="154.414"
                        gradientUnits="userSpaceOnUse">
            <stop stop-color="#BEFBFF"/>
            <stop offset="1" stop-color="#00CCFF"/>
        </linearGradient>
        <linearGradient id="paint4_linear" x1="36.925" y1="89.311" x2="36.925" y2="117.284"
                        gradientUnits="userSpaceOnUse">
            <stop stop-color="#86F0FF"/>
            <stop offset="1" stop-color="#5EBBFF"/>
        </linearGradient>
        <linearGradient id="paint5_linear" x1="154.6" y1="159.619" x2="154.6" y2="177.741"
                        gradientUnits="userSpaceOnUse">
            <stop stop-color="#89B1FF"/>
            <stop offset="1" stop-color="#BEFBFF"/>
        </linearGradient>
        <linearGradient id="paint6_linear" x1="154.63" y1="138.191" x2="154.63" y2="158.323"
                        gradientUnits="userSpaceOnUse">
            <stop stop-color="#89B1FF"/>
            <stop offset="1" stop-color="#4DF4FF"/>
        </linearGradient>
        <linearGradient id="paint7_linear" x1="154.6" y1="150.915" x2="154.6" y2="169.123"
                        gradientUnits="userSpaceOnUse">
            <stop stop-color="#89B1FF"/>
            <stop offset="1" stop-color="#BEFBFF"/>
        </linearGradient>
        <linearGradient id="paint8_linear" x1="154.6" y1="142.932" x2="154.6" y2="161.082"
                        gradientUnits="userSpaceOnUse">
            <stop stop-color="#89B1FF"/>
            <stop offset="1" stop-color="#BEFBFF"/>
        </linearGradient>
        <linearGradient id="paint9_linear" x1="154.6" y1="134.861" x2="154.6" y2="152.983"
                        gradientUnits="userSpaceOnUse">
            <stop stop-color="#89B1FF"/>
            <stop offset="1" stop-color="#BEFBFF"/>
        </linearGradient>
        <linearGradient id="paint10_linear" x1="154.6" y1="126.503" x2="154.6" y2="144.626"
                        gradientUnits="userSpaceOnUse">
            <stop stop-color="#89B1FF"/>
            <stop offset="1" stop-color="#BEFBFF"/>
        </linearGradient>
        <linearGradient id="paint11_linear" x1="154.6" y1="118.433" x2="154.6" y2="136.555"
                        gradientUnits="userSpaceOnUse">
            <stop stop-color="#89B1FF"/>
            <stop offset="1" stop-color="#BEFBFF"/>
        </linearGradient>
        <linearGradient id="paint12_linear" x1="154.6" y1="110.104" x2="154.6" y2="128.227"
                        gradientUnits="userSpaceOnUse">
            <stop stop-color="#89B1FF"/>
            <stop offset="1" stop-color="#BEFBFF"/>
        </linearGradient>
        <linearGradient id="paint13_linear" x1="154.613" y1="87.9331" x2="154.613" y2="114.527"
                        gradientUnits="userSpaceOnUse">
            <stop stop-color="#89DCFF"/>
            <stop offset="1" stop-color="#89B1FF"/>
        </linearGradient>
        <linearGradient id="paint14_linear" x1="154.6" y1="101.748" x2="154.6" y2="119.87"
                        gradientUnits="userSpaceOnUse">
            <stop stop-color="#89B1FF"/>
            <stop offset="1" stop-color="#BEFBFF"/>
        </linearGradient>
        <linearGradient id="paint15_linear" x1="109.21" y1="126" x2="109.21" y2="180.971"
                        gradientUnits="userSpaceOnUse">
            <stop stop-color="#4DF4FF"/>
            <stop offset="1" stop-color="#89B1FF"/>
        </linearGradient>
        <clipPath id="clip0">
            <rect width="200" height="200" fill="white"/>
        </clipPath>
    </defs>
</svg>
