<svg viewBox="0 0 200 200" fill="none" xmlns="http://www.w3.org/2000/svg">
    <path opacity="0.3"
          d="M165.951 148.331C158.148 150.344 152.052 152.758 145.655 155.542C142.239 147.056 120.201 140.482 93.475 140.482C64.4041 140.482 40.8594 148.264 40.8594 157.857C40.8594 167.315 63.7677 174.996 92.2693 175.231C83.4944 176.673 77.198 179.524 77.198 182.711C77.198 186.635 81.9538 191.498 88.4177 193.108C97.1256 195.289 101.145 193.612 103.656 192.773C118.393 187.843 182.228 160.708 186.281 158.393C190.936 155.71 171.879 146.788 165.951 148.331Z"
          fill="#395FE4"/>
    <path d="M157.88 95.0625C158.014 99.1545 127.101 121.191 95.9198 121.459C64.2366 121.728 32.252 100.194 32.252 95.096V114.248C32.252 119.313 53.4187 137.593 95.9198 137.593C136.311 137.593 158.014 118.307 157.88 114.248V95.0625Z"
          fill="url(#paint0_linear)"/>
    <path d="M157.846 94.4597C156.808 81.9824 129.11 71.9536 95.0825 71.9536C61.0214 71.9536 33.3237 81.9824 32.2854 94.4597C32.252 94.6945 32.252 94.9293 32.252 95.1641C32.252 107.876 59.9162 121.259 94.2117 121.427C94.4797 121.427 94.7811 121.427 95.049 121.427C95.0825 121.427 95.116 121.427 95.1495 121.427C95.4174 121.427 95.6519 121.427 95.9198 121.427C96.0873 121.427 96.2212 121.427 96.3887 121.427C130.45 121.158 157.846 107.843 157.88 95.1976V95.1641C157.88 94.9293 157.846 94.6945 157.846 94.4597Z"
          fill="url(#paint1_linear)"/>
    <path d="M154.598 41.8628L95.0493 74.4312L35.501 41.8628L35.6015 94.187C35.6015 98.9834 54.1559 116.827 95.8532 116.827C140.699 116.827 154.598 98.0442 154.464 94.187L154.598 41.8628Z"
          fill="url(#paint2_linear)"/>
    <path opacity="0.5"
          d="M35.6019 82.9169C35.6019 76.3093 45.6829 75.9068 59.448 82.0783C82.4233 92.409 108.781 116.793 127.738 112.836C145.589 107.704 152.991 98.9831 154.263 95.26C154.364 94.455 154.431 93.7506 154.464 93.2811L154.531 69.3327C153.66 69.2992 130.283 68.5948 107.107 67.8234L95.0497 74.431L81.3851 66.9177C69.3951 66.4817 60.8212 66.1128 60.9551 65.945C61.4575 65.4419 37.0085 61.417 37.0085 61.417L35.5684 62.2555L35.6019 82.9169Z"
          fill="url(#paint3_linear)"/>
    <path opacity="0.7" d="M154.566 87.4798V68.2607L135.476 76.5454L136.48 110.757L153.427 96.2005L154.566 87.4798Z"
          fill="url(#paint4_linear)"/>
    <path d="M159.789 41.1671L95.0162 11.9863L30.7789 41.1671L0 47.2045V53.5438L95.0162 95.8056L190.87 53.5438V47.2045L159.789 41.1671Z"
          fill="url(#paint5_linear)"/>
    <path d="M95.0162 4L0 47.201L95.0162 89.4628L190.87 47.201L95.0162 4Z" fill="url(#paint6_linear)"/>
    <path opacity="0.5"
          d="M103.79 42.3021C103.79 44.5494 100.005 46.3606 95.3501 46.3606C90.6947 46.3606 86.9102 44.5494 86.9102 42.3021C86.9102 40.0549 90.6947 38.2437 95.3501 38.2437C100.005 38.2772 103.79 40.0884 103.79 42.3021Z"
          fill="url(#paint7_linear)"/>
    <path opacity="0.4"
          d="M96.3896 41.6958C96.3896 41.6958 53.1852 54.5421 46.6208 66.1473C45.9175 67.3548 45.4821 69.4343 45.1807 71.8493L48.9652 74.0294C48.9652 74.0294 48.9987 68.8977 49.6351 67.7908C56.1995 56.3197 100.141 43.071 100.141 43.071L96.3896 41.6958Z"
          fill="#89B1FF"/>
    <path d="M44.11 87.9161C43.9426 84.3608 43.3732 69.0995 45.7511 64.9069C51.8132 54.2073 90.8311 42.0989 94.7831 40.8579L96.2567 41.9648C88.922 44.1785 53.6217 55.2806 47.5932 65.8796C45.2153 70.0387 45.9521 84.3943 46.1865 87.5807L44.11 87.9161Z"
          fill="white"/>
    <path d="M89.3228 44.2175L91.8347 43.5132C91.8347 43.5132 90.6625 42.3057 90.495 42.2051C90.3276 42.1044 89.4233 42.574 89.4233 42.574L88.9209 42.7753C89.3563 42.6411 89.8587 43.9827 89.3228 44.2175Z"
          fill="#31C7D0"/>
    <path d="M103.188 40.2654C103.188 42.3449 99.6718 44.022 95.3178 44.022C90.9639 44.022 87.4473 42.3449 87.4473 40.2654C87.4473 38.1858 90.9639 36.5088 95.3178 36.5088C99.6718 36.5088 103.188 38.1858 103.188 40.2654Z"
          fill="url(#paint8_linear)"/>
    <path d="M46.5547 93.5215H43.2725V104.12H46.5547V93.5215Z" fill="#89B1FF"/>
    <path d="M56.2001 130.682C56.2001 129.273 54.9609 118.238 52.8174 108.478C51.1428 100.898 49.3008 93.9546 44.6789 93.9546C34.1625 93.9546 32.9233 127.764 33.1577 130.649C33.2917 132.326 34.1625 134.07 36.5739 135.445C37.3442 135.881 38.5499 136.183 39.0188 136.317C40.5259 136.686 42.368 136.887 44.6789 136.887C45.7506 136.887 46.7554 136.887 47.6597 136.753C48.8319 136.552 49.4013 136.485 50.0376 136.351C54.8269 135.344 56.2001 132.594 56.2001 130.682Z"
          fill="url(#paint9_linear)"/>
    <path d="M45.7854 94.1185C45.484 94.0515 45.149 93.9844 44.8141 93.9844C44.2782 94.2862 43.6084 94.7223 42.7376 95.326C35.7713 99.9547 33.8958 123.937 33.8623 132.926C34.3982 133.865 35.269 134.737 36.6086 135.508C37.3789 135.944 38.5846 136.246 39.0535 136.38C39.7234 136.548 40.4267 136.682 41.2305 136.783C41.3645 121.555 43.2735 97.9422 44.4122 95.5273C44.3787 95.4937 45.1825 94.7223 45.7854 94.1185Z"
          fill="white"/>
    <path d="M54.0567 134.603C55.6643 133.362 56.2002 131.886 56.2002 130.678C56.2002 128.196 55.1954 93.9844 44.679 93.9844C43.2389 93.9844 41.9662 94.6217 40.8275 95.7621C40.2246 96.6341 45.4493 96.9695 47.0234 99.3845C50.808 105.086 54.0567 115.82 54.0567 134.368C54.0902 134.435 54.0567 134.502 54.0567 134.603Z"
          fill="#4DF4FF"/>
    <path d="M142.24 125.919C149.608 135.847 151.015 147.319 145.355 151.511C139.728 155.704 129.178 151.042 121.81 141.113C114.442 131.185 113.035 119.714 118.695 115.522C124.322 111.329 134.872 115.958 142.24 125.919Z"
          fill="#968AE5"/>
    <path d="M171.915 71.28L171.948 71.3135C176.972 67.1544 186.584 70.3408 193.483 78.4578C200.014 86.1051 201.823 95.396 197.938 100.058L100.008 189.345L73.8174 160.399L171.915 71.28Z"
          fill="url(#paint10_linear)"/>
    <path d="M78.1388 182.469C75.0576 178.88 72.2108 175.291 71.3065 171.635C70.9716 170.226 74.2203 168.516 73.6175 167.308C72.5122 165.195 72.6127 161.606 74.5552 159.963C79.5455 155.703 89.2246 158.856 96.1909 167.006C103.157 175.157 104.765 185.253 99.7745 189.512C94.7843 193.806 85.1051 190.653 78.1388 182.469Z"
          fill="#B5C0C9"/>
    <path opacity="0.4"
          d="M143.952 105.719C147.369 102.935 153.832 105.082 158.488 110.549C162.875 115.681 164.114 121.987 161.502 125.106L161.603 125.207L95.4898 185.245C95.4898 185.245 98.9395 179.107 92.3751 171.225C86.4135 164.081 80.0166 166.228 80.0166 166.228L143.952 105.719Z"
          fill="#90A3AF"/>
    <path opacity="0.4"
          d="M90.8977 170.216C89.9264 169.076 83.9984 175.784 83.1611 174.643C79.9794 170.384 78.7402 168.505 81.4195 166.225C84.7687 163.34 87.649 165.688 92.3378 171.189C97.0267 176.689 98.6678 182.492 95.3186 185.343C93.8785 186.584 96.6918 184.169 96.5913 181.486C96.5243 177.998 93.577 173.335 90.8977 170.216Z"
          fill="#90A3AF"/>
    <path d="M96.1909 167.036C89.2246 158.886 79.5455 155.699 74.5552 159.992C74.3542 160.16 74.1533 160.361 73.9523 160.596L73.8184 160.429L171.949 71.3097L171.983 71.3433C177.007 67.1842 186.619 70.3706 193.518 78.4875C200.049 86.1349 201.857 95.4258 197.972 100.088L100.746 189.911L100.009 189.341C104.698 184.947 103.057 175.052 96.1909 167.036Z"
          fill="white"/>
    <path opacity="0.5"
          d="M154.062 129.774C154.029 129.673 159.622 132.792 159.588 132.725L199.946 94.3207C200.281 87.277 196.128 81.5415 193.482 78.4557C192.98 77.852 192.444 77.2818 191.908 76.7451L151.952 112.466C152.187 111.594 152.287 111.125 152.521 110.219C151.182 110.353 150.478 110.42 149.139 110.555C149.105 109.683 149.072 109.246 149.038 108.374C147.732 108.71 147.096 108.844 145.79 109.179C145.488 108.408 145.354 108.005 145.053 107.234C143.881 107.704 143.278 107.972 142.106 108.441C141.603 107.771 141.335 107.435 140.833 106.798C139.795 107.402 139.292 107.704 138.254 108.307C137.551 107.771 137.216 107.536 136.512 106.999C135.675 107.704 135.24 108.039 134.402 108.743C133.565 108.374 133.163 108.207 132.326 107.838C131.656 108.609 131.355 108.978 130.685 109.75C129.747 109.548 129.312 109.448 128.374 109.213C127.939 110.018 127.704 110.387 127.235 111.192C126.264 111.125 125.762 111.125 124.757 111.058C124.522 111.863 124.388 112.265 124.154 113.037C123.149 113.137 122.647 113.171 121.642 113.271C121.609 114.043 121.575 114.412 121.542 115.183C120.537 115.418 120.034 115.552 119.063 115.787C119.231 116.525 119.298 116.86 119.465 117.598C118.494 118.001 118.025 118.168 117.087 118.571C117.456 119.242 117.623 119.544 117.991 120.181C117.121 120.718 116.652 120.952 115.781 121.489C116.317 122.059 116.585 122.328 117.154 122.831C116.35 123.501 115.948 123.837 115.178 124.474C115.881 124.91 116.25 125.145 116.987 125.514C116.317 126.285 115.982 126.688 115.312 127.426C116.149 127.728 116.618 127.862 117.556 128.097C117.054 128.935 116.786 129.371 116.317 130.21C117.322 130.31 117.858 130.344 118.929 130.411C118.594 131.35 118.427 131.82 118.125 132.725C119.231 132.658 119.834 132.591 120.972 132.49C120.838 133.463 120.771 133.966 120.637 134.939C121.81 134.704 122.379 134.57 123.585 134.302C123.652 135.308 123.685 135.811 123.786 136.817C124.355 136.616 124.79 136.448 125.226 136.281L94.2793 163.986L98.5662 167.776L102.887 183.674L151.45 139.4C151.852 139.366 150.01 133.765 150.545 133.732C150.545 133.295 150.579 132.927 150.579 132.558L153.66 129.74C153.828 129.774 153.928 129.774 154.062 129.774Z"
          fill="#B3C0C6"/>
    <path opacity="0.4"
          d="M197.971 100.058C199.211 98.5488 199.88 96.5699 199.981 94.2891H199.947L160.963 131.352L146.36 144.131L104.496 182.368L100.343 189.613L100.745 189.915L197.971 100.058Z"
          fill="#5AC7D3"/>
    <path d="M97.5285 192.388C100.442 191.382 102.619 189.269 103.725 186.317C105.701 181.152 104.059 174.276 99.3371 167.903C90.5957 156.13 81.7874 154.889 76.4622 157.606C74.5197 158.612 73.247 160.054 72.7111 161.933C71.338 166.561 74.7876 172.565 76.6297 175.752L76.8976 176.221C79.2755 180.347 88.7537 188.497 94.0789 186.351C95.8205 185.646 96.9592 184.539 97.5285 183.03C98.7342 179.743 96.5908 175.651 95.452 173.437L95.2846 173.102C93.7105 170.083 86.0743 162.503 81.6869 164.65C80.3472 165.32 79.51 166.394 79.242 167.802C78.7396 170.586 80.8161 173.907 82.3233 175.483C82.7922 175.953 83.529 175.986 84.0313 175.517C84.5002 175.047 84.5337 174.309 84.0648 173.806C82.8926 172.599 81.3185 169.949 81.6199 168.205C81.7204 167.568 82.0888 167.132 82.7587 166.796C85.0696 165.656 91.7345 171.458 93.1411 174.209L93.3086 174.544C94.2129 176.288 96.0884 179.877 95.2511 182.192C94.9497 183.03 94.2463 183.667 93.1746 184.103C89.8254 185.479 81.3185 179.106 78.9741 175.014L78.7062 174.544C77.0316 171.66 73.9168 166.259 74.9886 162.604C75.357 161.362 76.1943 160.423 77.5339 159.719C81.7874 157.539 89.5575 158.746 97.3946 169.312C101.648 175.014 103.155 181.051 101.481 185.411C100.476 188.061 98.3323 189.839 95.519 190.409C89.2896 191.684 77.199 184.808 72.4432 171.19C72.2087 170.553 71.5389 170.217 70.9026 170.452C70.2662 170.687 69.9313 171.358 70.1657 171.995C75.3905 187.055 88.7202 194.233 95.9544 192.791C96.5238 192.69 97.0262 192.556 97.5285 192.388Z"
          fill="white"/>
    <path d="M141.938 125.085C136.512 118.713 129.646 115.023 123.986 114.822L118.326 119.954C118.527 119.886 118.795 119.786 119.096 119.551C123.484 116.264 133.632 120.658 139.459 127.5C146.024 135.215 148.335 144.237 144.081 149.839L149.139 145.177C150.177 139.508 147.598 131.76 141.938 125.085Z"
          fill="#90A3AF"/>
    <path d="M142.943 124.08C135.006 114.756 123.953 111.133 118.193 115.896L117.322 116.835L116.552 118.445L116.82 119.183C118.36 117.909 118.427 119.821 120.102 118.546C124.489 115.259 134.637 119.653 140.465 126.495C147.23 134.411 149.474 143.735 144.718 149.303C144.283 149.806 145.556 150.813 145.12 151.316C145.12 151.316 145.489 151.383 145.556 151.316C146.527 150.578 148.068 148.901 148.068 148.901C152.522 143.534 150.412 132.868 142.943 124.08Z"
          fill="#B77CC6"/>
    <path d="M153.627 114.507C145.689 105.183 134.637 101.56 128.876 106.323L128.843 106.29L118.394 115.748C124.221 111.388 135.072 115.01 142.876 124.167C150.345 132.921 152.455 143.621 148 148.987L158.751 139.361C163.206 133.961 161.129 123.295 153.627 114.507Z"
          fill="#89B1FF"/>
    <path opacity="0.5"
          d="M153.628 114.509C153.561 114.441 153.527 114.408 153.46 114.341C151.149 114.408 148.57 114.542 148.436 114.777C148.269 115.079 143.078 119.137 140.298 121.452C141.169 122.29 142.039 123.196 142.877 124.168C147.365 129.434 149.91 135.405 150.278 140.503L160.996 130.575C160.594 125.51 158.048 119.674 153.628 114.509Z"
          fill="#A362CA"/>
    <path d="M166.958 116.866L166.59 119.147L141.203 120.287L140.433 118.04L166.958 116.866Z" fill="#89B1FF"/>
    <path d="M161.365 109.284L166.958 116.864L140.433 118.038L147.633 109.653L161.365 109.284Z" fill="#E9EBFF"/>
    <path d="M141.706 131.949L142.476 134.162L128.811 126.414L128.041 124.167L141.706 131.949Z" fill="#89B1FF"/>
    <path d="M157.615 127.729L158.385 129.977L142.476 134.169L141.706 131.956L157.615 127.729Z" fill="#89B1FF"/>
    <path d="M140.199 118.294L157.614 127.719L141.706 131.945L128.041 124.164L140.199 118.294Z" fill="#E9EBFF"/>
    <path d="M144.52 129.168L145.29 127.256L148.104 126.92L148.271 125.109L151.151 124.405L151.084 124.204L140.2 118.3L128.042 124.17L139.764 130.845L140.534 130.979L141.841 129.101L144.52 129.168Z"
          fill="#89DCFF"/>
    <path d="M145.187 99.7319L146.727 104.193L147.163 105.87L145.622 101.409L145.187 99.7319Z" fill="#4DF4FF"/>
    <path d="M116.886 112.404L118.427 116.865L117.388 115.422L115.848 110.961L116.886 112.404Z" fill="#B77CC6"/>
    <path d="M148.503 100.669L150.01 105.13L149.842 106.975L148.302 102.514L148.503 100.669Z" fill="#B77CC6"/>
    <path d="M115.849 114.943L117.39 119.404L115.849 118.231L114.309 113.77L115.849 114.943Z" fill="#B77CC6"/>
    <path d="M151.149 102.167L152.69 106.628L151.92 108.507L150.379 104.046L151.149 102.167Z" fill="#B77CC6"/>
    <path d="M115.614 117.374L117.155 121.835L115.146 121.03L113.605 116.569L115.614 117.374Z" fill="#B77CC6"/>
    <path d="M153.057 104.129L154.598 108.59L153.258 110.468L151.718 106.007L153.057 104.129Z" fill="#B77CC6"/>
    <path d="M116.185 119.629L117.725 124.09L115.347 123.654L113.807 119.193L116.185 119.629Z" fill="#B77CC6"/>
    <path d="M154.13 106.475L155.671 110.936L153.829 112.714L152.288 108.253L154.13 106.475Z" fill="#B77CC6"/>
    <path d="M117.556 121.566L119.097 126.027L116.418 125.96L114.877 121.499L117.556 121.566Z" fill="#B77CC6"/>
    <path d="M154.331 109.09L155.838 113.551L153.594 115.161L152.054 110.7L154.331 109.09Z" fill="#B77CC6"/>
    <path d="M119.599 123.144L121.14 127.605L118.327 127.94L116.786 123.479L119.599 123.144Z" fill="#B77CC6"/>
    <path d="M153.627 111.867L155.167 116.328L152.588 117.703L151.048 113.242L153.627 111.867Z" fill="#B77CC6"/>
    <path d="M122.314 124.238L123.855 128.699L120.974 129.403L119.434 124.942L122.314 124.238Z" fill="#B77CC6"/>
    <path d="M152.053 114.688L153.594 119.149L150.814 120.223L149.273 115.762L152.053 114.688Z" fill="#89B1FF"/>
    <path d="M125.494 124.861L127.034 129.322L124.254 130.395L122.714 125.934L125.494 124.861Z" fill="#89B1FF"/>
    <path d="M149.273 115.762L150.814 120.223L151.249 121.9L149.709 117.439L149.273 115.762Z" fill="#B77CC6"/>
    <path d="M149.707 117.437L151.248 121.897L148.368 122.602L146.827 118.141L149.707 117.437Z" fill="#89B1FF"/>
    <path d="M129.079 124.948L130.619 129.409L128.04 130.784L126.533 126.323L129.079 124.948Z" fill="#89B1FF"/>
    <path d="M126.532 126.337L128.039 130.798L127.035 129.322L125.494 124.861L126.532 126.337Z" fill="#B77CC6"/>
    <path d="M146.694 119.95L148.202 124.411L145.388 124.747L143.848 120.286L146.694 119.95Z" fill="#B77CC6"/>
    <path d="M146.829 118.146L148.37 122.607L148.202 124.418L146.695 119.957L146.829 118.146Z" fill="#89B1FF"/>
    <path d="M132.863 124.474L134.404 128.935L132.16 130.579L130.619 126.118L132.863 124.474Z" fill="#89B1FF"/>
    <path d="M130.618 126.122L132.158 130.583L130.618 129.409L129.077 124.948L130.618 126.122Z" fill="#B77CC6"/>
    <path d="M143.077 122.206L144.617 126.667L141.938 126.6L140.397 122.139L143.077 122.206Z" fill="#B77CC6"/>
    <path d="M143.847 120.296L145.388 124.757L144.618 126.669L143.077 122.208L143.847 120.296Z" fill="#89B1FF"/>
    <path d="M136.681 123.538L138.221 127.999L136.413 129.777L134.872 125.316L136.681 123.538Z" fill="#89B1FF"/>
    <path d="M134.871 125.313L136.411 129.774L134.402 128.935L132.861 124.474L134.871 125.313Z" fill="#B77CC6"/>
    <path d="M139.092 124.008L140.633 128.469L138.221 127.999L136.681 123.538L139.092 124.008Z" fill="#B77CC6"/>
    <path d="M149.274 115.73L149.709 117.407L146.829 118.112L146.661 119.956L143.815 120.292L143.044 122.204L140.365 122.137L139.059 124.015L136.647 123.545L134.839 125.323L132.829 124.484L130.585 126.094L129.045 124.92L126.466 126.296L125.461 124.853L122.681 125.927L122.246 124.25L119.366 124.954L119.533 123.143L116.686 123.478L117.457 121.566L114.777 121.499L116.117 119.621L113.706 119.151L115.548 117.374L113.538 116.535L115.782 114.925L114.241 113.751L116.82 112.376L115.816 110.934L118.595 109.861L118.16 108.183L121.04 107.479L121.208 105.668L124.055 105.332L124.825 103.421L127.504 103.488L128.81 101.609L131.222 102.079L133.03 100.301L135.04 101.14L137.284 99.5299L138.824 100.704L141.403 99.3286L142.408 100.804L145.188 99.7311L145.623 101.408L148.504 100.704L148.336 102.549L151.183 102.213L150.413 104.125L153.092 104.192L151.752 106.07L154.164 106.54L152.322 108.318L154.331 109.156L152.087 110.766L153.628 111.94L151.049 113.315L152.054 114.758L149.274 115.73Z"
          fill="#E0D1FF"/>
    <path d="M140.398 122.139L141.939 126.6L140.632 128.478L139.092 124.017L140.398 122.139Z" fill="#89B1FF"/>
    <defs>
        <linearGradient id="paint0_linear" x1="95.0661" y1="95.0625" x2="95.0661" y2="137.593"
                        gradientUnits="userSpaceOnUse">
            <stop stop-color="#31B4D0"/>
            <stop offset="0.9999" stop-color="#94EEFD"/>
            <stop offset="1" stop-color="#BEFBFF"/>
        </linearGradient>
        <linearGradient id="paint1_linear" x1="95.0658" y1="71.9536" x2="95.0658" y2="121.427"
                        gradientUnits="userSpaceOnUse">
            <stop stop-color="#89DCFF"/>
            <stop offset="1" stop-color="#BEFBFF"/>
        </linearGradient>
        <linearGradient id="paint2_linear" x1="95.0494" y1="41.8628" x2="95.0494" y2="116.827"
                        gradientUnits="userSpaceOnUse">
            <stop stop-color="#31B4D0"/>
            <stop offset="0.9999" stop-color="#94EEFD"/>
            <stop offset="1" stop-color="#BEFBFF"/>
        </linearGradient>
        <linearGradient id="paint3_linear" x1="95.0497" y1="61.417" x2="95.0497" y2="113.266"
                        gradientUnits="userSpaceOnUse">
            <stop offset="0.46875" stop-color="#A362CA"/>
            <stop offset="1" stop-color="#4DF4FF" stop-opacity="0"/>
        </linearGradient>
        <linearGradient id="paint4_linear" x1="145.021" y1="68.2607" x2="145.021" y2="110.757"
                        gradientUnits="userSpaceOnUse">
            <stop stop-color="#968AE5"/>
            <stop offset="1" stop-color="#8BF6FD" stop-opacity="0"/>
        </linearGradient>
        <linearGradient id="paint5_linear" x1="95.4348" y1="11.9863" x2="95.4348" y2="95.8056"
                        gradientUnits="userSpaceOnUse">
            <stop offset="0.333333" stop-color="#89B1FF"/>
            <stop offset="1" stop-color="#4DF4FF"/>
        </linearGradient>
        <linearGradient id="paint6_linear" x1="95.4348" y1="4" x2="95.4348" y2="89.4628" gradientUnits="userSpaceOnUse">
            <stop stop-color="#60E2FF"/>
            <stop offset="1" stop-color="#BEFBFF"/>
        </linearGradient>
        <linearGradient id="paint7_linear" x1="95.3501" y1="38.2437" x2="95.3501" y2="46.3606"
                        gradientUnits="userSpaceOnUse">
            <stop offset="0.46875" stop-color="#A362CA"/>
            <stop offset="1" stop-color="#4DF4FF" stop-opacity="0"/>
        </linearGradient>
        <linearGradient id="paint8_linear" x1="95.3178" y1="36.5088" x2="95.3178" y2="44.022"
                        gradientUnits="userSpaceOnUse">
            <stop stop-color="#31B4D0"/>
            <stop offset="1" stop-color="#BEFBFF"/>
        </linearGradient>
        <linearGradient id="paint9_linear" x1="16.8364" y1="112.427" x2="65.7795" y2="117.878"
                        gradientUnits="userSpaceOnUse">
            <stop offset="0.310457" stop-color="#BEFBFF"/>
            <stop offset="1" stop-color="#89DCFF"/>
        </linearGradient>
        <linearGradient id="paint10_linear" x1="136.892" y1="69.4883" x2="136.892" y2="189.345"
                        gradientUnits="userSpaceOnUse">
            <stop stop-color="#BEFBFF"/>
            <stop offset="1" stop-color="#E9EBFF"/>
        </linearGradient>
    </defs>
</svg>
