<svg width="360" height="541" viewBox="0 0 360 541" fill="none" xmlns="http://www.w3.org/2000/svg">
<g filter="url(#filter0_d)">
<path d="M174.563 514.192C136.235 408.303 39.8086 332.801 13.7708 220.366C-11.2904 112.126 66.264 7.11111 178.57 6.47493C302.128 6.95032 373.824 128.576 337.594 241.203C303.891 345.976 217.572 422.594 178.577 524.667C177.273 521.259 175.31 517.746 174.563 514.192Z" fill="white"/>
<path fill-rule="evenodd" clip-rule="evenodd" d="M89.1566 102.667C79.0339 119.73 70.1097 135.822 63.6076 154.737C58.7644 174.118 57.5248 192.565 56.4901 212.35C46.2165 172.081 58.3447 130.576 89.1566 102.667ZM178.364 104.424C255.461 104.719 300.194 180.723 277.588 251.106C256.562 316.582 202.698 364.456 178.37 428.245C177.554 426.116 176.327 423.92 175.865 421.698C151.948 355.528 91.7806 308.349 75.5323 238.083C59.8972 170.444 108.29 104.821 178.364 104.424ZM42.9709 216.402C64.3797 308.989 143.664 371.163 175.178 458.358C175.792 461.285 177.406 464.178 178.478 466.984C210.541 382.931 281.514 319.839 309.226 233.561C339.015 140.817 280.064 40.6623 178.473 40.2708C86.1319 40.7946 22.365 127.271 42.9709 216.402V216.402Z" fill="#00AAFF"/>
<path fill-rule="evenodd" clip-rule="evenodd" d="M217.894 138.741C193.43 122.28 150.114 127.325 127.35 144.37C147.715 122.97 195.663 117.598 217.894 138.741ZM91.6392 232.63C145.408 178.509 183.794 233.238 221.799 211.284C260.08 181.425 166.741 139.207 110.605 192.743C152.481 138.307 231.215 152.385 244.516 187.684C266.892 252.451 206.83 281.549 178.316 392.912C198.829 339.148 244.222 298.792 261.944 243.605C281.001 184.28 243.292 120.221 178.31 119.97C119.25 120.305 78.4632 175.618 91.6392 232.63V232.63Z" fill="#01BA77"/>
</g>
<defs>
<filter id="filter0_d" x="0.0487061" y="0.475098" width="359.951" height="540.192" filterUnits="userSpaceOnUse" color-interpolation-filters="sRGB">
<feFlood flood-opacity="0" result="BackgroundImageFix"/>
<feColorMatrix in="SourceAlpha" type="matrix" values="0 0 0 0 0 0 0 0 0 0 0 0 0 0 0 0 0 0 127 0"/>
<feOffset dx="2" dy="5"/>
<feGaussianBlur stdDeviation="5.5"/>
<feColorMatrix type="matrix" values="0 0 0 0 0.22559 0 0 0 0 0.480752 0 0 0 0 0.608333 0 0 0 0.5 0"/>
<feBlend mode="normal" in2="BackgroundImageFix" result="effect1_dropShadow"/>
<feBlend mode="normal" in="SourceGraphic" in2="effect1_dropShadow" result="shape"/>
</filter>
</defs>
</svg>
