<svg viewBox="0 0 182 181" fill="none" xmlns="http://www.w3.org/2000/svg">
    <g filter="url(#filter0_d)">
        <path d="M96.1357 69.6525C100.288 69.6218 104.282 71.2418 107.24 74.156C110.197 77.0703 111.876 81.0401 111.907 85.1922C111.917 86.5762 112.477 87.8995 113.463 88.8709C114.449 89.8423 115.78 90.3823 117.164 90.3721C118.548 90.3618 119.871 89.8022 120.843 88.8163C121.814 87.8304 122.354 86.499 122.344 85.115C122.293 78.1949 119.495 71.5785 114.565 66.7214C109.636 61.8643 102.979 59.1644 96.0586 59.2156C94.6745 59.2258 93.3513 59.7854 92.3798 60.7713C91.4084 61.7572 90.8684 63.0886 90.8787 64.4726C90.8889 65.8566 91.4485 67.1799 92.4344 68.1513C93.4203 69.1228 94.7517 69.6627 96.1357 69.6525Z"
              fill="white"/>
        <path d="M95.9812 48.7784C105.669 48.7068 114.989 52.4867 121.89 59.2866C128.792 66.0865 132.709 75.3494 132.781 85.0376C132.791 86.4216 133.35 87.7449 134.336 88.7163C135.322 89.6877 136.654 90.2277 138.038 90.2175C139.422 90.2073 140.745 89.6476 141.716 88.6618C142.688 87.6759 143.228 86.3445 143.218 84.9604C143.125 72.5042 138.089 60.5948 129.216 51.852C120.343 43.1092 108.36 38.2493 95.9041 38.3414C94.52 38.3517 93.1968 38.9113 92.2253 39.8972C91.2539 40.8831 90.7139 42.2145 90.7242 43.5985C90.7344 44.9825 91.294 46.3058 92.2799 47.2772C93.2658 48.2486 94.5972 48.7886 95.9812 48.7784ZM142.102 110.593C141.809 109.757 141.308 109.01 140.646 108.421C139.985 107.833 139.184 107.422 138.32 107.229L106.956 100.311C106.105 100.124 105.221 100.154 104.384 100.397C103.547 100.64 102.784 101.089 102.165 101.703C101.44 102.387 101.388 102.439 98.0438 108.935C86.7503 103.832 77.6647 94.8434 72.4412 83.605C79.0439 80.2162 79.0961 80.2158 79.7687 79.428C80.3732 78.8002 80.8108 78.031 81.0416 77.1906C81.2724 76.3502 81.289 75.4654 81.0901 74.617L73.7119 43.7243C73.5054 42.8631 73.0831 42.0687 72.4849 41.4158C71.8866 40.7628 71.132 40.2729 70.2922 39.9921C69.0703 39.5658 67.8095 39.2605 66.5279 39.0805C65.2067 38.7844 63.8595 38.6196 62.5058 38.5884C56.1393 38.6355 50.0523 41.2097 45.5837 45.7448C41.1152 50.2799 38.6313 56.4043 38.6783 62.7708C38.8635 84.0761 47.4903 104.438 62.667 119.392C77.8437 134.346 98.3313 142.671 119.637 142.541C122.789 142.518 125.906 141.874 128.81 140.646C131.713 139.418 134.347 137.63 136.559 135.385C138.772 133.139 140.52 130.48 141.705 127.558C142.89 124.637 143.488 121.511 143.464 118.359C143.456 117.03 143.342 115.705 143.122 114.395C142.893 113.1 142.552 111.828 142.102 110.593Z"
              fill="white"/>
    </g>
    <defs>
        <filter id="filter0_d" x="-10.0131" y="-10.5198" width="202.169" height="202.169" filterUnits="userSpaceOnUse"
                color-interpolation-filters="sRGB">
            <feFlood flood-opacity="0" result="BackgroundImageFix"/>
            <feColorMatrix in="SourceAlpha" type="matrix" values="0 0 0 0 0 0 0 0 0 0 0 0 0 0 0 0 0 0 127 0"/>
            <feOffset/>
            <feGaussianBlur stdDeviation="19"/>
            <feColorMatrix type="matrix" values="0 0 0 0 1 0 0 0 0 1 0 0 0 0 1 0 0 0 0.5 0"/>
            <feBlend mode="normal" in2="BackgroundImageFix" result="effect1_dropShadow"/>
            <feBlend mode="normal" in="SourceGraphic" in2="effect1_dropShadow" result="shape"/>
        </filter>
    </defs>
</svg>
