<svg viewBox="0 0 1006 512" fill="none" xmlns="http://www.w3.org/2000/svg">
    <path d="M105.202 162.208L100.043 156.457L44.4078 249.472H0L72.9782 135.46L6.57214 52.8513H51.7111L105.202 123.276V52.8513H143.266V123.001L196.209 52.8513H241.394L175.58 135.598L247.965 249.472H203.604L148.423 156.457L143.266 162.208V249.472H105.202V162.208V162.208ZM417.659 52.8513V249.472H380.416V126.379L306.342 249.472H274.165V52.8513H311.408V179.962L386.623 52.8513H417.659ZM462.297 249.472V52.8513H493.333C511.361 52.8513 524.506 53.9916 532.858 56.3193C544.678 59.4701 554.081 65.2659 561.064 73.7094C568.047 82.1975 571.562 92.1946 571.562 103.695C571.562 111.181 569.963 117.981 566.814 124.097C563.664 130.212 558.508 135.963 551.388 141.303C563.3 146.917 572.018 153.901 577.541 162.344C583.062 170.741 585.801 180.691 585.801 192.193C585.801 203.237 582.926 213.279 577.221 222.362C571.47 231.445 564.076 238.245 555.04 242.717C546.002 247.236 533.543 249.472 517.613 249.472H462.297V249.472ZM499.541 88.4517V130.075H507.893C517.204 130.075 524.14 128.159 528.659 124.28C533.178 120.445 535.414 115.197 535.414 108.579C535.414 102.418 533.269 97.5339 528.978 93.8829C524.688 90.2765 518.161 88.4517 509.397 88.4517H499.541ZM499.541 163.484V213.872H509.033C524.779 213.872 535.414 211.909 540.89 207.985C546.368 204.06 549.105 198.354 549.105 190.869C549.105 182.426 545.91 175.716 539.475 170.832C533.04 165.948 522.36 163.484 507.436 163.484H499.541V163.484ZM714.097 47.9231C741.892 47.9231 765.808 58.0078 785.799 78.1368C805.836 98.2637 815.831 122.819 815.831 151.754C815.831 180.463 805.972 204.744 786.21 224.598C766.493 244.452 742.531 254.4 714.37 254.4C684.841 254.4 660.331 244.177 640.844 223.775C621.31 203.376 611.542 179.139 611.542 151.07C611.542 132.312 616.107 115.014 625.189 99.2223C634.27 83.4762 646.776 70.9705 662.659 61.7512C678.588 52.5313 695.748 47.9231 714.097 47.9231ZM713.549 84.6171C695.43 84.6171 680.185 90.9603 667.862 103.603C655.494 116.246 649.332 132.312 649.332 151.846C649.332 173.571 657.091 190.778 672.654 203.42C684.749 213.324 698.579 218.254 714.233 218.254C731.896 218.254 746.958 211.819 759.373 198.993C771.832 186.167 778.04 170.376 778.04 151.573C778.04 132.86 771.788 117.021 759.236 104.059C746.73 91.0988 731.487 84.6171 713.549 84.6171V84.6171ZM994.606 52.8513V249.472H957.362V126.379L883.288 249.472H851.111V52.8513H888.355V179.962L963.57 52.8513H994.606V52.8513ZM869.185 0H898.759C901.087 3.65096 904.283 6.38848 908.436 8.21537C912.545 10.0401 917.609 10.9522 923.543 10.9522C929.568 10.9522 935.044 9.9031 939.927 7.759C943.123 6.34327 945.907 3.74139 948.326 0H977.902C976.212 11.3188 970.781 20.4017 961.653 27.2465C952.525 34.0928 939.791 37.5163 923.406 37.5163C912.362 37.5163 903.142 35.9642 895.703 32.906C888.263 29.8492 882.284 25.4663 877.721 19.7624C873.201 14.0557 870.326 7.48419 869.185 0V0Z"
          fill="#01BA77"/>
    <path d="M5.44727 308.769H41.2066C60.5451 308.769 74.4623 310.535 83.0034 314.108C91.5423 317.679 98.3165 323.468 103.244 331.433C108.171 339.398 110.633 348.964 110.633 360.132C110.633 372.49 107.389 382.754 100.903 390.923C94.4578 399.094 85.6709 404.801 74.5449 408.004C68.0173 409.85 56.1517 410.755 38.9488 410.755V485.641H5.44727V308.769V308.769ZM38.9488 377.991H49.7463C58.2449 377.991 64.1163 377.375 67.4415 376.184C70.7682 374.954 73.3546 372.983 75.2846 370.19C77.1723 367.398 78.1168 364.033 78.1168 360.05C78.1168 353.193 75.4478 348.184 70.1106 345.064C66.2526 342.723 59.0262 341.534 48.5156 341.534H38.9488V377.991ZM227.029 304.336C252.032 304.336 273.546 313.409 291.528 331.515C309.554 349.621 318.545 371.71 318.545 397.74C318.545 423.564 309.676 445.406 291.899 463.265C274.162 481.125 252.608 490.076 227.276 490.076C200.713 490.076 178.664 480.879 161.134 462.526C143.562 444.174 134.775 422.375 134.775 397.123C134.775 380.25 138.881 364.688 147.052 350.483C155.221 336.319 166.47 325.07 180.759 316.775C195.087 308.483 210.525 304.336 227.029 304.336V304.336ZM226.537 337.346C210.237 337.346 196.524 343.053 185.439 354.424C174.313 365.798 168.771 380.25 168.771 397.822C168.771 417.364 175.75 432.842 189.751 444.215C200.63 453.125 213.07 457.558 227.153 457.558C243.041 457.558 256.589 451.769 267.757 440.233C278.966 428.697 284.549 414.491 284.549 397.575C284.549 380.742 278.925 366.496 267.635 354.835C256.385 343.175 242.672 337.346 226.537 337.346V337.346ZM407.965 308.769H442.001L499.151 454.111H518.777V512H486.261V485.641H364.076V512H331.559V454.111H351.226L407.965 308.769V308.769ZM425.29 355.287L386.452 454.111H464.13L425.29 355.287V355.287ZM540.208 308.769H574.45V375.528H633.571V308.769H667.565V485.641H633.571V408.045H574.45V485.641H540.208V308.769V308.769ZM836.841 308.769V485.641H803.339V374.911L736.705 485.641H707.76V308.769H741.261V423.111L808.922 308.769H836.841V308.769ZM877.487 308.769H911.482V369.943L959.354 308.769H999.959L938.168 387.722L1005.95 485.641H966.005L911.482 406.854V485.641H877.487V308.769V308.769Z"
          fill="#00AAFF"/>
</svg>
